<svg width="95" height="45" viewBox="0 0 95 45" fill="none" xmlns="http://www.w3.org/2000/svg">
<rect width="95" height="45" fill="white"/>
<path d="M68.3219 38.4238C66.0772 38.4238 64.7458 37.2751 64.6439 35.6205H66.7903C66.7903 36.1721 67.0959 36.9063 68.4238 36.9519C69.3442 36.9519 69.8536 36.4004 69.8536 35.9859C69.7517 35.343 68.9332 35.2973 68.1182 35.1568C67.1978 35.0233 66.4847 34.8372 65.9718 34.6088C65.2587 34.24 64.8477 33.4566 64.8477 32.631C64.8477 31.1591 66.0772 30.0104 68.2201 30.0104C70.2646 30.0104 71.5924 31.0678 71.6908 32.6767H69.6498C69.6498 32.2657 69.5479 31.5737 68.3219 31.5737C67.5034 31.5737 66.9941 31.7107 66.8922 32.3079C66.8922 33.1369 68.6276 33.0912 69.9554 33.4109C71.1814 33.7341 71.9999 34.514 71.9999 35.6205C71.9999 37.644 70.3664 38.4238 68.3219 38.4238Z" fill="#999999"/>
<path d="M29.2098 24.8479L36.2567 20.7554L40.0366 27.2402H30.5377" fill="#999999"/>
<path fill-rule="evenodd" clip-rule="evenodd" d="M42.9972 29.9946V38.1797H45.0593V29.9946H42.9972Z" fill="#999999"/>
<path d="M25.9391 34.2099C25.9391 35.4956 27.0633 36.553 28.2857 36.553C29.6171 36.553 30.6359 35.4956 30.6359 34.2099C30.6359 32.9699 29.6171 31.8668 28.2857 31.8668C27.0633 31.8668 25.9391 32.9699 25.9391 34.2099ZM28.1839 38.4395C25.9391 38.4395 24 36.553 24 34.2099C24 31.8668 25.9391 30.026 28.1839 30.026C29.1043 30.026 29.9228 30.2579 30.6359 30.7602V30.1174H32.6804V38.2533H30.6359V37.7474C30.0246 38.2076 29.1043 38.4395 28.1839 38.4395Z" fill="#999999"/>
<path d="M55.4589 27.2383L45.6544 10.1376L52.7013 5.99941L64.9577 27.2383" fill="#999999"/>
<path d="M35.3361 34.2099C35.3361 35.4956 36.3584 36.553 37.6862 36.553C38.9087 36.553 40.0364 35.4956 40.0364 34.2099C40.0364 32.9699 38.9087 31.8668 37.6862 31.8668C36.3584 31.8668 35.3361 32.9699 35.3361 34.2099ZM37.5844 38.4395C35.2342 38.4395 33.397 36.553 33.397 34.2099C33.397 31.8668 35.2342 30.026 37.5844 30.026C38.5012 30.026 39.3197 30.2579 40.0364 30.7602V27.3141H42.0774V38.2533H40.0364V37.7474C39.3197 38.2076 38.5012 38.4395 37.5844 38.4395Z" fill="#999999"/>
<path d="M37.4836 17.5392L44.6324 13.4958L52.4978 27.2383H45.0399V29.2617H42.9989V27.2383" fill="#999999"/>
<path d="M70.6757 29.3262C70.1628 29.3262 69.6534 28.866 69.6534 28.3145C69.6534 27.7629 70.1628 27.3027 70.6757 27.3027C71.2869 27.3027 71.698 27.7629 71.698 28.3145C71.698 28.866 71.2869 29.3262 70.6757 29.3262ZM70.6757 27.4433C70.1628 27.4433 69.8572 27.8543 69.8572 28.3145C69.8572 28.7746 70.1628 29.1892 70.6757 29.1892C71.1851 29.1892 71.4907 28.7746 71.4907 28.3145C71.4907 27.8543 71.1851 27.4433 70.6757 27.4433Z" fill="#999999"/>
<path d="M70.8864 28.8691L70.6827 28.4089H70.4789V28.8691H70.3243V27.7661H70.7845C70.8864 27.7661 71.0902 27.9066 71.0902 28.0893C71.0902 28.2719 70.9883 28.3633 70.8864 28.4089L71.0902 28.8691H70.8864ZM70.6827 27.9066H70.4789V28.2719H70.6827C70.8864 28.2719 70.8864 28.2263 70.8864 28.0893C70.8864 27.9944 70.8864 27.9066 70.6827 27.9066Z" fill="#999999"/>
<path d="M57.1863 34.2099C57.1863 35.4956 58.2086 36.553 59.5364 36.553C60.7625 36.553 61.8831 35.4956 61.8831 34.2099C61.8831 32.9699 60.7625 31.8668 59.5364 31.8668C58.2086 31.8668 57.1863 32.9699 57.1863 34.2099ZM59.4311 38.4395C57.0844 38.4395 55.2472 36.553 55.2472 34.2099C55.2472 31.8668 57.0844 30.026 59.4311 30.026C60.3514 30.026 61.17 30.2579 61.8831 30.7602V30.1174H63.8257V38.2533H61.8831V37.7474C61.17 38.2076 60.3514 38.4395 59.4311 38.4395Z" fill="#999999"/>
<path d="M47.7962 34.2099C47.7962 35.4956 48.9203 36.553 50.1463 36.553C51.4742 36.553 52.4964 35.4956 52.4964 34.2099C52.4964 32.9699 51.4742 31.8668 50.1463 31.8668C48.9203 31.8668 47.7962 32.9699 47.7962 34.2099ZM52.4964 27.3141H54.5374V38.2533H52.4964V37.7474C51.8817 38.2076 51.0632 38.4395 50.1463 38.4395C47.7962 38.4395 45.8571 36.553 45.8571 34.2099C45.8571 31.8668 47.7962 30.026 50.1463 30.026C51.0632 30.026 51.8817 30.2579 52.4964 30.7602V27.3141Z" fill="#999999"/>
</svg>
