<svg width="95" height="45" viewBox="0 0 95 45" fill="none" xmlns="http://www.w3.org/2000/svg">
<rect width="95" height="45" fill="white"/>
<path d="M65.3159 20.4148H66.2583V25.1219C66.2583 25.5633 66.2285 25.8871 66.1386 26.1528C66.1102 26.3299 65.9906 26.5063 65.8452 26.7118C65.493 27.2128 64.934 27.4771 64.1985 27.4771C63.6691 27.4771 63.2561 27.3297 63.0215 27.0059C62.7572 26.6537 62.6098 26.0649 62.6098 25.2997V20.4148H63.3751V20.2972H60.9617V20.4148H61.6391V25.182C61.6391 26.7997 62.4327 27.6231 64.0214 27.6231C64.9042 27.6231 65.5492 27.3297 65.9629 26.7997C66.2569 26.388 66.4043 25.8871 66.4043 25.299V20.4142H67.0519V20.2966H65.3159V20.4148ZM57.6662 20.2675H57.314L54.783 27.3297H54.3416V27.4771H55.7835V27.3297H54.9304L55.9606 24.506H58.1678L59.1987 27.3297H58.1387V27.4771H60.7873V27.3297H60.2269L57.6662 20.2675ZM57.047 21.4438L58.1354 24.3851H56.0174L57.047 21.4438ZM53.1349 24.5628H53.0153C52.6036 26.3583 51.7802 27.2709 50.5154 27.2709H48.3677V18.2077H49.6914V18.0312H46.3086V18.2077H47.1915V27.2702H46.3086V27.4764H53.1349V24.5628ZM79.1443 20.4148C79.6452 20.4148 80.0272 20.5622 80.2909 20.8265C80.5261 21.0625 80.7323 21.4741 80.9101 22.0332H80.998V20.2972H75.4959V20.4148H76.203V27.3297H75.4959V27.4771H81.0277V25.2415H80.9101C80.8506 25.7114 80.7039 26.1528 80.4686 26.5063C80.0867 27.0356 79.6155 27.3297 78.9963 27.3297H77.1724V23.6813H77.937C78.3784 23.6813 78.6725 23.8287 78.8483 24.1525C78.9666 24.3296 79.0842 24.6818 79.2018 25.1827H79.3201V22.0643H79.2018C79.0545 22.6531 78.9084 23.0648 78.7009 23.2412C78.5536 23.4467 78.2298 23.5339 77.7896 23.5339H77.1711V20.4148H79.1443ZM68.1403 20.4148H68.6993V27.2993H68.1403V27.4473H70.7294V27.2993H69.9047V23.8875H69.9642L72.9352 27.4473H74.5529V27.2993H74.1115L71.2587 23.8875C73.113 23.8273 74.0534 23.1817 74.0534 21.9737C74.0534 20.7968 72.9934 20.2384 70.9336 20.2384L68.139 20.2675L68.1403 20.4148ZM70.5814 20.3851C71.2574 20.3851 71.757 20.473 72.0821 20.6501C72.4938 20.9144 72.7013 21.3261 72.7013 21.9737C72.7013 23.15 72.0821 23.7395 70.847 23.7395H69.9047V20.4148L70.5814 20.3851ZM87.2943 20.4148H88.0001V20.2972H86.4405V20.4148H87.1469V25.7695L83.8805 20.2972H82.2026V20.4148H82.9104V27.3297H82.2026V27.4758H83.9981V27.3297H83.0267V20.8265H83.0558L87.1172 27.5934H87.2943V20.4148Z" fill="#999999"/>
<path d="M18.9167 20.2673H18.5631L16.0037 27.3295H15.5623V27.4769H17.0042V27.3295H16.1802L17.1509 24.5058H19.4163L20.4167 27.3295H19.3568V27.4769H22.0047V27.3295H21.4457L18.9167 20.2673ZM18.2988 21.4436L19.3581 24.3849H17.2395L18.2988 21.4436ZM7.00066 18.2075H7.70708V27.2701H7.00066V27.4762H10.1786V27.2701H9.149V22.7976H9.2369L12.9441 27.4749H14.9154V27.2687H14.3563L10.8546 22.7672C13.1496 22.7077 14.2968 21.8843 14.2968 20.295C14.2968 18.7652 13.0314 18 10.4422 18L7 18.0291L7.00066 18.2075ZM11.8551 18.561C12.3844 18.8848 12.6203 19.4439 12.6203 20.297C12.6203 21.0332 12.4141 21.6213 12.0018 22.033C11.6192 22.415 11.0608 22.5927 10.3544 22.5927H9.14834V18.2082H10.0015C10.8546 18.2075 11.5022 18.3258 11.8551 18.561ZM36.0697 20.297V20.4147H36.835V27.3295H36.0697V27.4756H38.5994V27.3295H37.8057V23.8569H41.012V27.3295H40.3069V27.4756H42.748V27.3295H41.9835V20.4147H42.748V20.297H40.3069V20.4147H41.012V23.7095H37.8057V20.4147H38.5994V20.297H36.0697ZM32.2746 20.2673L29.4793 20.2964V20.4437H30.0972V27.2707H29.4793V27.4187H32.0988V27.2707H31.2457V24.0631H32.1272C34.3047 24.0631 35.393 23.4155 35.393 22.1493C35.393 21.5308 35.1578 21.0894 34.7461 20.7953C34.2154 20.4437 33.4211 20.2673 32.2746 20.2673ZM31.245 20.4437L31.9204 20.4147C32.714 20.4147 33.2447 20.5323 33.5388 20.7966C33.8612 21.0325 34.0383 21.5037 34.0383 22.1506C34.0383 23.3276 33.4198 23.917 32.2145 23.917H31.2437L31.245 20.4437ZM25.4483 20.297H22.6827V20.4147H23.4182V27.3295H22.6827V27.4769H28.2436V25.2413H28.1259C27.8319 26.6238 27.1254 27.3295 26.0959 27.3295H24.3599V20.4147H25.4483V20.297Z" fill="#999999"/>
</svg>
