<svg width="95" height="45" viewBox="0 0 95 45" fill="none" xmlns="http://www.w3.org/2000/svg">
<rect width="95" height="45" fill="white"/>
<path d="M16.4682 21.9043C15.7806 21.2167 15.0568 20.7462 14.2607 20.7462C12.1255 20.7462 10.8589 22.4109 10.8589 24.2203C10.8589 26.0298 12.1255 27.6945 14.2607 27.6945C15.1654 27.6945 15.9615 27.2964 16.5044 26.6088L18.4224 28.6715C17.2281 29.8658 15.2739 30.3 14.2607 30.3C10.7865 30.2639 8 27.8392 8 24.2203C8 20.6015 10.7865 18.1406 14.2968 18.1406C15.7806 18.1406 17.3729 18.6835 18.4947 19.9139L16.4682 21.9043Z" fill="#999999"/>
<path d="M25.081 18.1406C23.2354 18.1406 21.4622 18.6835 20.1594 19.9863L21.6793 21.5062C22.4393 20.7824 23.5611 20.3119 24.7553 20.3119C26.3115 20.3119 27.3971 21.0719 27.3971 22.4833V22.809H26.6733C23.7783 22.809 19.3994 23.0623 19.3994 26.8259C19.3994 29.1058 21.4622 30.3 23.5973 30.3C25.1534 30.3 26.4924 29.721 27.2886 28.4182H27.3609V30.0105H29.9665V23.3518C30.0027 21.6871 30.0027 18.1406 25.081 18.1406ZM27.2524 25.4507C27.2524 27.0792 26.3115 28.0925 24.3211 28.0925C23.3802 28.0925 22.2945 27.6221 22.2945 26.5726C22.2945 24.9079 25.0449 24.7994 26.6372 24.7994H27.2524V25.4507Z" fill="#999999"/>
<path d="M32.0294 18.4301H34.9245V20.2758H34.9606C35.5758 18.9368 36.8786 18.1406 38.3624 18.1406C38.7243 18.1406 39.05 18.213 39.4119 18.3216V21.1081C38.9414 20.9995 38.4709 20.891 38.0005 20.891C35.2863 20.891 34.8883 23.1709 34.8883 23.8223V30.0105H31.9932V18.4301H32.0294Z" fill="#999999"/>
<path d="M40.8594 20.8908V18.43H43.2478V15.0645H46.1429V18.3938H49.3275V20.8547H46.1429V25.9211C46.1429 27.0791 46.4686 27.8029 47.7714 27.8029C48.2781 27.8029 48.9657 27.6943 49.3275 27.441V29.8656C48.7123 30.1552 47.699 30.2637 47.0476 30.2637C43.9716 30.2637 43.284 28.8885 43.284 26.1744V20.8908H40.8594Z" fill="#999999"/>
<path d="M62.1384 24.4375C62.1384 20.4205 59.9308 18.1406 56.7101 18.1406C53.2359 18.1406 50.4132 20.5653 50.4132 24.2203C50.4132 27.8392 53.1997 30.3 56.7101 30.3C58.5557 30.3 60.2565 29.6486 61.5955 27.984L59.5328 26.4278C58.809 27.3326 57.8681 27.984 56.4205 27.984C54.792 27.984 53.4893 26.9345 53.3083 25.2336H62.1384V24.4375ZM53.3083 23.0623C53.5254 21.3976 54.5749 20.3119 56.312 20.3119C58.1214 20.3119 59.2433 21.3614 59.2433 23.0623H53.3083Z" fill="#999999"/>
<path d="M63.7668 18.4301H66.6619V20.2758H66.6981C67.3133 18.9368 68.6161 18.1406 70.1361 18.1406C70.4979 18.1406 70.8236 18.213 71.1855 18.3216V21.1081C70.7151 20.9995 70.2446 20.891 69.7742 20.891C67.06 20.891 66.6619 23.1709 66.6619 23.8223V30.0105H63.7668V18.4301Z" fill="#999999"/>
<path d="M73.8273 13.5449H76.7586L74.913 19.2989H72.3074L73.8273 13.5449Z" fill="#999999"/>
<path d="M82.3317 21.6158C81.7889 20.8558 81.0651 20.4215 80.0519 20.4215C79.2919 20.4215 78.351 20.7834 78.351 21.652C78.351 23.7147 84.5754 22.05 84.5754 26.5374C84.5754 29.2878 81.9337 30.2649 79.5814 30.2649C77.8082 30.2649 76.252 29.7944 75.094 28.4916L77.012 26.6822C77.772 27.5145 78.5319 28.0936 79.7623 28.0936C80.5947 28.0936 81.6803 27.6955 81.6803 26.7546C81.6803 24.3661 75.4559 26.2479 75.4559 21.8329C75.4559 19.2635 77.772 18.1055 80.088 18.1055C81.6442 18.1055 83.2727 18.5759 84.2136 19.8787L82.3317 21.6158Z" fill="#999999"/>
<path d="M86.0591 18.5762C85.5524 18.5762 85.1182 18.9742 85.1182 19.5171C85.1182 20.0237 85.5162 20.458 86.0591 20.458C86.5657 20.458 87 20.0599 87 19.5171C87 18.9742 86.5657 18.5762 86.0591 18.5762ZM86.0591 20.277C85.6248 20.277 85.2991 19.9513 85.2991 19.5171C85.2991 19.0828 85.6248 18.7571 86.0591 18.7571C86.4571 18.7571 86.819 19.0828 86.819 19.5171C86.819 19.9513 86.4933 20.277 86.0591 20.277Z" fill="#999999"/>
<path d="M86.2401 19.5508C86.3849 19.5508 86.4934 19.4422 86.4934 19.2612C86.4934 19.0441 86.3849 18.9355 86.1315 18.9355H85.6973V19.985H85.9144V19.5508H86.0592L86.3125 19.985H86.5296L86.2401 19.5508ZM85.9144 19.4422V19.1527H86.0592C86.1677 19.1527 86.3125 19.1527 86.3125 19.2974C86.3125 19.4422 86.1677 19.4422 86.0592 19.4422H85.9144Z" fill="#999999"/>
</svg>
