<svg width="95" height="45" viewBox="0 0 95 45" fill="none" xmlns="http://www.w3.org/2000/svg">
<rect width="95" height="45" fill="white"/>
<path d="M23 35.4434H24.0981V33.2631C24.0981 32.8748 24.0981 32.3957 24.297 32.1151C24.4949 31.81 24.8503 31.7108 25.0487 31.7108C25.9739 31.7108 25.9739 32.8015 25.9739 33.1803V35.4434H27.0715V32.966C27.0715 32.6101 27.0715 31.8429 26.6508 31.3395C26.2714 30.8764 25.6678 30.7019 25.272 30.7019C24.5777 30.7019 24.1978 31.0833 24.0164 31.2567V30.8589H23V35.4434Z" fill="#999999"/>
<path fill-rule="evenodd" clip-rule="evenodd" d="M32.0659 33.6423C32.0973 33.4942 32.1317 33.3038 32.1317 33.0895C32.1317 31.934 31.2145 30.6764 29.761 30.6764C28.3483 30.6764 27.3494 31.8672 27.3494 33.1633C27.3494 34.5007 28.4066 35.5918 29.7694 35.5918C30.8431 35.5918 31.7179 34.8247 31.9826 33.9982H30.8257C30.6198 34.378 30.2569 34.5839 29.7694 34.5839C28.9848 34.5839 28.5552 33.9399 28.5053 33.6423H32.0659ZM28.4724 32.7585C28.6788 31.9076 29.3647 31.6848 29.7694 31.6848C30.3148 31.6848 30.884 32.0233 31.0081 32.7585H28.4724Z" fill="#999999"/>
<path d="M33.5408 35.4434H34.2168L35.0846 32.4705H35.1006L35.9604 35.4434H36.6373L38.3137 30.8589H37.1413L36.2979 33.6593H36.2819L35.5377 30.8589H34.6634L33.9117 33.6593H33.8953L33.0613 30.8589H31.8884L33.5408 35.4434Z" fill="#999999"/>
<path fill-rule="evenodd" clip-rule="evenodd" d="M40.4398 35.4428H41.4467V34.8895C41.7184 35.1955 42.1082 35.5918 42.992 35.5918C44.6678 35.5918 45.271 34.0475 45.271 33.1299C45.271 31.9171 44.3628 30.7013 42.9671 30.7013C42.4546 30.7013 41.9173 30.8922 41.5374 31.2726V29.331H40.4398V35.4428ZM41.4711 33.0895C41.4711 32.4205 41.9916 31.7102 42.834 31.7102C43.5283 31.7102 44.1728 32.2461 44.1728 33.1393C44.1728 34.0301 43.5697 34.5844 42.8509 34.5844C42.2069 34.5844 41.4711 34.1054 41.4711 33.0895Z" fill="#999999"/>
<path fill-rule="evenodd" clip-rule="evenodd" d="M50.3986 30.8583H49.3902V31.4381H49.3738C49.3404 31.3713 48.7866 30.7008 47.8544 30.7008C46.5828 30.7008 45.558 31.7172 45.558 33.1224C45.558 34.6497 46.6073 35.5918 47.7886 35.5918C48.3659 35.5918 49.0438 35.2852 49.3902 34.8745V35.4428H50.3986V30.8583ZM49.3583 33.1393C49.3583 33.9897 48.7791 34.5839 48.0189 34.5839C47.2348 34.5839 46.6561 33.9478 46.6561 33.1717C46.6561 32.4863 47.1187 31.7102 48.0189 31.7102C48.6719 31.7102 49.3583 32.1888 49.3583 33.1393Z" fill="#999999"/>
<path d="M52.0807 29.3316H50.9825V35.4434H52.0807V29.3316Z" fill="#999999"/>
<path fill-rule="evenodd" clip-rule="evenodd" d="M57.2503 30.8583H56.2429V31.4381H56.2259C56.1925 31.3713 55.6387 30.7008 54.7066 30.7008C53.4335 30.7008 52.4102 31.7172 52.4102 33.1224C52.4102 34.6497 53.4594 35.5918 54.6403 35.5918C55.218 35.5918 55.8949 35.2852 56.2429 34.8745V35.4428H57.2503V30.8583ZM56.2095 33.1393C56.2095 33.9897 55.6318 34.5839 54.8716 34.5839C54.0865 34.5839 53.5088 33.9478 53.5088 33.1717C53.5088 32.4863 53.9714 31.7102 54.8716 31.7102C55.5241 31.7102 56.2095 32.1888 56.2095 33.1393Z" fill="#999999"/>
<path d="M57.835 35.4434H58.9326V33.2631C58.9326 32.8748 58.9326 32.3957 59.1315 32.1151C59.3294 31.81 59.6858 31.7108 59.8832 31.7108C60.8078 31.7108 60.8078 32.8015 60.8078 33.1803V35.4434H61.9069V32.966C61.9069 32.6101 61.9069 31.8429 61.4847 31.3395C61.1049 30.8764 60.5028 30.7019 60.106 30.7019C59.4116 30.7019 59.0328 31.0833 58.8503 31.2567V30.8589H57.835V35.4434Z" fill="#999999"/>
<path d="M65.8095 33.9483C65.5199 34.4109 65.1576 34.5844 64.7942 34.5844C63.9672 34.5844 63.4144 33.9319 63.4144 33.1473C63.4144 32.2057 64.0754 31.7102 64.7438 31.7102C65.4212 31.7102 65.678 32.1479 65.8095 32.3787H67.0492C66.5782 30.966 65.3215 30.7013 64.7438 30.7013C63.4802 30.7013 62.3163 31.7272 62.3163 33.1299C62.3163 34.6502 63.5784 35.5918 64.7528 35.5918C65.8265 35.5918 66.6764 34.9722 67.0492 33.9483H65.8095Z" fill="#999999"/>
<path fill-rule="evenodd" clip-rule="evenodd" d="M71.9348 33.6423C71.9672 33.4942 72.0001 33.3038 72.0001 33.0895C72.0001 31.934 71.0839 30.6764 69.6303 30.6764C68.2177 30.6764 67.2183 31.8672 67.2183 33.1633C67.2183 34.5007 68.2755 35.5918 69.6383 35.5918C70.7115 35.5918 71.5878 34.8247 71.8515 33.9982H70.6956C70.4887 34.378 70.1263 34.5839 69.6383 34.5839C68.8532 34.5839 68.4241 33.9399 68.3757 33.6423H71.9348ZM68.3418 32.7585C68.5487 31.9076 69.2336 31.6848 69.6383 31.6848C70.1841 31.6848 70.7534 32.0233 70.877 32.7585H68.3418Z" fill="#999999"/>
<path fill-rule="evenodd" clip-rule="evenodd" d="M41.6941 20.2491L40.2261 22.7843L32.1006 22.3272L32.9141 20.9151L41.6941 20.2491ZM47.5681 12.1709L48.3043 14.9688L36.7747 14.2112L37.5877 12.7995L47.5681 12.1709ZM39.9246 8.74149L46.6733 8.74647L47.1828 10.6596L39.1126 10.1531L39.9246 8.74149ZM39.3314 24.361L38.1595 26.3758L29.7638 26.3848L30.5768 24.9736L39.3314 24.361ZM54.0716 18.9252L52.0393 22.4479H53.9749C54.8716 22.4479 56.4787 22.0002 56.9732 20.7232C57.4313 19.5363 56.5894 18.9237 56.0017 18.9237L54.0716 18.9252ZM56.0096 15.5555L57.6979 15.5451C58.8215 15.5391 59.9934 15.0252 60.4221 13.9824C60.8174 13.0149 60.286 12.1909 59.5817 12.1939L57.9487 12.1919L56.0096 15.5555ZM48.3676 14.9688L50.0724 12.0114L55.8422 11.6411L56.0435 11.2822L50.7064 10.9088L51.9546 8.74149L61.8522 8.74099C64.8958 8.74099 67.1474 9.82914 66.2721 13.0293C66.0089 13.9988 64.7717 16.4393 61.1434 17.4617C61.9135 17.5534 63.8316 18.4033 63.5011 20.6065C62.9139 24.5135 57.8555 26.3733 55.0416 26.3743L43.3565 26.3798L42.7808 24.1192L48.901 23.6876L49.1088 23.3297L42.4707 22.9254L41.7554 20.2456L51.2009 19.6943L51.4063 19.3394L34.4369 18.2687L35.2499 16.8575L53.5158 15.6717L53.7227 15.3163L48.3676 14.9688Z" fill="#999999"/>
</svg>
