<svg width="95" height="45" viewBox="0 0 95 45" fill="none" xmlns="http://www.w3.org/2000/svg">
<rect width="95" height="45" fill="white"/>
<path d="M37.7887 9L30.5535 9.01055L30.5527 23.9501L36.2089 23.9273L36.2033 14.6757L37.6711 14.6692C38.3579 14.6663 39.7377 14.7631 41.2493 15.2073L41.87 15.4199C41.3847 16.0398 40.5327 17.4075 39.9957 19.0398C39.5971 20.2514 39.3976 21.5866 39.4083 22.761C39.4334 25.5385 40.268 27.8198 41.8708 30.0697L41.3134 30.2523C40.3967 30.5555 38.9504 30.7805 37.7149 30.7823L36.2114 30.7847C36.208 30.7648 36.2042 28.2122 36.2008 27.1827L30.5535 27.1787L30.5544 36.4782L38.1214 36.4677C38.6602 36.4669 39.8136 36.374 41.1755 36.1268C41.9033 35.9947 42.8144 35.7385 43.6405 35.4507C44.7791 35.054 45.7389 34.5835 46.3562 34.2301L46.5079 34.1456C47.5709 34.7696 48.7857 35.2899 49.9766 35.6593C51.7667 36.2146 53.819 36.4671 54.8328 36.4669L62.4591 36.4653L62.4574 27.1828L56.8085 27.1893L56.8101 30.8099L55.1809 30.8058C55.1809 30.8058 54.661 30.8326 53.5605 30.6687C52.8236 30.5589 52.0686 30.3855 51.3422 30.1314L51.1442 30.0575L51.2335 29.9471C51.6567 29.4088 52.6821 27.8361 53.1792 25.9012C53.4475 24.8568 53.6405 23.6499 53.6068 22.6953C53.5669 20.4437 52.8888 17.728 51.1775 15.4654L51.1394 15.4248C51.367 15.3178 52.2481 15.0588 52.7751 14.9557C53.2485 14.8631 54.3528 14.6627 55.5915 14.6684L56.8053 14.674L56.8077 17.311L62.4615 17.3102L62.4648 9.01218L55.443 9.01136C53.4212 9.01113 50.8879 9.35106 48.4528 10.3879C47.829 10.6535 47.0583 11.0222 46.5031 11.344C46.0916 11.1113 45.1573 10.5657 44.1744 10.2118C42.8428 9.73228 40.5783 9.01465 37.7887 9ZM59.6273 18.5114L58.79 20.6151L56.643 19.9658L57.77 21.9234L55.9022 23.2099L58.1368 23.5475L57.981 25.8006L59.6387 24.2796L61.2866 25.8135L61.1333 23.5483L63.3646 23.2034L61.5033 21.9275L62.623 19.9626L60.4614 20.6192L59.6273 18.5114ZM46.4974 18.664C46.5151 18.6829 46.9062 19.1522 47.3023 19.9544C47.5917 20.5407 47.7244 21.0312 47.8078 21.4892C47.8485 21.7126 47.8889 21.9115 47.9149 22.2026C47.9375 22.4565 47.9494 22.7936 47.94 23.1117C47.8227 24.4988 47.3734 25.6354 46.5128 26.8029L46.4089 26.6812C46.1016 26.2304 45.7467 25.6421 45.5172 25.079C45.2537 24.4323 45.1363 23.8264 45.1294 23.6246C45.0329 22.7425 45.0263 21.9375 45.299 21.0583C45.6516 19.9208 46.0813 19.2116 46.4268 18.7873L46.4974 18.664Z" fill="white"/>
<path d="M60.4617 20.6196L62.6229 19.9634L61.5031 21.9281L63.3645 23.2039L61.1331 23.5486L61.2868 25.8143L59.6388 24.28L57.981 25.8014L58.1365 23.5484L55.9021 23.2105L57.7702 21.924L56.6434 19.9667L58.7899 20.616L59.6273 18.5117" fill="#999999"/>
<path d="M51.3421 30.1315C52.0685 30.3856 52.8239 30.5588 53.5608 30.6685C54.6613 30.8324 55.1809 30.8062 55.1809 30.8062L56.8104 30.8096L56.8083 27.1894L62.4578 27.183L62.4594 36.4651L54.8332 36.4671C53.8194 36.4674 51.7668 36.2145 49.9767 35.6592C48.7858 35.2898 47.571 34.7694 46.5081 34.1455L46.3563 34.2303C45.739 34.5837 44.7795 35.0544 43.6408 35.4511C42.8148 35.7389 41.9032 35.9944 41.1754 36.1264C39.8135 36.3736 38.6604 36.4666 38.1217 36.4674L30.5546 36.4784L30.5536 27.1787L36.2012 27.1829C36.2046 28.2124 36.2077 30.7648 36.2111 30.7847L37.7146 30.7825C38.9501 30.7807 40.3968 30.5555 41.3136 30.2523L41.8705 30.0699C40.2677 27.82 39.4331 25.5382 39.408 22.7608C39.3974 21.5864 39.5972 20.2517 39.9958 19.04C40.5328 17.4078 41.3846 16.0398 41.8699 15.4199L41.2491 15.2074C39.7375 14.7632 38.3577 14.6667 37.6708 14.6696L36.2034 14.6757L36.2086 23.9272L30.5527 23.9499L30.5539 9.01088L37.7884 9C40.5779 9.01465 42.8424 9.73188 44.174 10.2113C45.1569 10.5653 46.0917 11.1115 46.5031 11.3441C47.0583 11.0224 47.8291 10.6535 48.453 10.3879C50.888 9.35105 53.4213 9.0112 55.443 9.01143L62.4645 9.01225L62.4615 17.3098L56.8079 17.311L56.8051 14.6738L55.5914 14.6683C54.3528 14.6627 53.2484 14.8631 52.775 14.9556C52.248 15.0587 51.3672 15.318 51.1396 15.425L51.1771 15.4655C52.8884 17.7281 53.5672 20.4437 53.6071 22.6954C53.6408 23.65 53.4472 24.8571 53.1789 25.9015C52.6818 27.8364 51.6565 29.4091 51.2332 29.9474L51.1441 30.0575L51.3421 30.1315ZM46.4265 18.7876C46.081 19.2119 45.6513 19.9206 45.2986 21.058C45.026 21.9373 45.0333 22.7423 45.1297 23.6245C45.1367 23.8263 45.2534 24.432 45.517 25.0787C45.7465 25.6419 46.1018 26.2305 46.4092 26.6813L46.513 26.8032C47.3736 25.6357 47.8224 24.4986 47.9398 23.1115C47.9491 22.7934 47.9376 22.4568 47.9149 22.203C47.8889 21.9118 47.8483 21.7126 47.8076 21.4892C47.7242 21.0312 47.5921 20.5408 47.3027 19.9545C46.9066 19.1522 46.5151 18.6829 46.4974 18.664" fill="#999999"/>
</svg>
