<svg width="95" height="45" viewBox="0 0 95 45" fill="none" xmlns="http://www.w3.org/2000/svg">
<rect width="95" height="45" fill="white"/>
<path d="M19.1488 27.5094C17.8178 27.5094 17.178 26.4861 17.5121 25.3023C18.2019 22.8489 22.6343 19.2132 25.6548 19.2132C27.8573 19.2132 27.6897 21.184 26.3984 22.865L25.6847 23.6551C23.1247 26.1672 20.7514 27.5094 19.1488 27.5094ZM29.9446 10.9648C26.0898 10.9663 21.8448 13.3246 19.1788 15.558L19.3892 15.8631C23.5273 12.9623 29.2692 11.0762 30.8521 13.9054C31.6879 15.3978 30.2692 18.412 28.2711 20.7942C28.7489 19.7422 28.4333 17.7222 25.6473 17.7222C21.0158 17.7222 11.8981 23.8575 11.8981 30.1365C11.8981 32.6516 13.6429 34.2925 16.517 34.2925C24.2099 34.2925 34.6428 21.6825 34.6428 15.349C34.6428 13.1117 33.3558 10.9648 29.9446 10.9648Z" fill="#999999"/>
<path d="M39.8488 27.5102C39.4009 27.5102 39.0282 27.354 38.795 27.0686C38.5519 26.7696 38.4794 26.3456 38.5947 25.9079C38.8507 24.9583 39.8743 24.2122 40.9269 24.2122H43.4028L42.5181 27.5102H39.8488ZM46.9646 17.6234C46.2565 16.7528 45.1102 16.3633 44.2899 16.3633H39.7907L39.027 19.2116H43.2702L43.6767 19.2544C43.6809 19.2544 44.0662 19.2993 44.2812 19.5885C44.4548 19.8304 44.4803 20.1897 44.3554 20.6609L44.1548 21.4106H41.4814C39.1803 21.4106 35.9724 23.0614 35.2572 25.7277C34.9015 27.0573 35.2132 28.209 35.9041 29.0554C36.5897 29.8954 37.8837 30.3592 39.2815 30.3592H41.7574H41.7559H44.9027L46.3787 24.8472L47.4651 20.7957C47.8918 19.2026 47.4295 18.1907 46.9646 17.6234Z" fill="#999999"/>
<path d="M77.8706 16.3633C76.6533 16.3633 75.5222 16.7234 74.6025 17.4051C73.6738 18.0928 73.1616 18.9191 72.8562 20.0589C72.1937 22.5291 74.1349 23.7212 75.6947 24.5664C76.8135 25.1723 77.7811 25.6951 77.5715 26.4693C77.4236 27.0249 77.1808 27.5111 75.8045 27.5111H71.6033L70.8411 30.3592H75.4914C76.7383 30.3592 77.8892 30.0996 78.8163 29.3877C79.7444 28.6733 80.269 27.6782 80.5932 26.4636C80.9045 25.3077 80.6947 24.2035 79.9507 23.3796C79.3307 22.6878 78.4388 22.2073 77.6529 21.7827C76.6458 21.2408 75.6962 20.7295 75.862 20.1098C75.9635 19.7346 76.3357 19.2116 77.1491 19.2116H81.236L82 16.3633H77.8706Z" fill="#999999"/>
<path d="M53.4888 16.3633C52.2718 16.3633 51.141 16.7234 50.221 17.4051C49.2923 18.0928 48.7801 18.9191 48.4717 20.0589C47.8107 22.5291 49.7534 23.7212 51.3129 24.5664C52.4323 25.1723 53.3975 25.6951 53.19 26.4693C53.0406 27.0249 52.799 27.5111 51.4228 27.5111H47.2221L46.4584 30.3592H51.1084C52.3568 30.3592 53.5074 30.0996 54.4346 29.3877C55.3641 28.6733 55.8875 27.6782 56.2117 26.4636C56.5219 25.3077 56.3117 24.2035 55.5707 23.3796C54.9507 22.6878 54.0573 22.2073 53.27 21.7827C52.2643 21.2408 51.3159 20.7295 51.482 20.1098C51.5817 19.7346 51.9554 19.2116 52.7673 19.2116H56.8518L57.617 16.3633H53.4888Z" fill="#999999"/>
<path d="M59.8339 16.3633L56.1865 30.3592H59.2681L62.9125 16.3633H59.8339Z" fill="#999999"/>
<path d="M71.1105 16.3633C65.6854 16.3827 62.8463 19.9957 61.9452 23.3614C60.8776 27.3522 63.002 30.3595 66.8871 30.3595H69.4906L70.2528 27.5114H67.6502C66.1961 27.5114 64.1966 26.3672 65.0025 23.3614C65.6426 20.9723 67.9721 19.2119 70.5273 19.2119H72.1805L72.9442 16.3636H71.1105V16.3633Z" fill="#999999"/>
</svg>
