<svg width="95" height="45" viewBox="0 0 95 45" fill="none" xmlns="http://www.w3.org/2000/svg">
<rect width="95" height="45" fill="white"/>
<path d="M69.2969 35.0385C69.0691 34.9173 68.8286 34.8538 68.5854 34.8538C68.3352 34.8538 68.1054 34.9173 67.8783 35.0385C67.6432 35.1714 67.4676 35.348 67.3281 35.5864C67.198 35.8238 67.1421 36.0728 67.1421 36.3263C67.1421 36.5811 67.198 36.8226 67.3281 37.0576C67.4606 37.2926 67.6345 37.476 67.8666 37.6014C68.0977 37.7343 68.3295 37.7961 68.5851 37.7961C68.8336 37.7961 69.0748 37.7339 69.2965 37.6014C69.526 37.476 69.7126 37.2926 69.8287 37.0576C69.9585 36.8226 70.021 36.5811 70.021 36.3263C70.021 36.0728 69.9581 35.8238 69.8287 35.5864C69.7043 35.348 69.5243 35.1711 69.2969 35.0385ZM69.6307 36.9326C69.5166 37.1273 69.3651 37.2796 69.1754 37.3889C68.9895 37.501 68.7921 37.5556 68.5854 37.5556C68.377 37.5556 68.174 37.501 67.99 37.3889C67.7987 37.2796 67.6485 37.1273 67.5385 36.9326C67.4351 36.7464 67.388 36.5435 67.388 36.3263C67.388 36.1162 67.4408 35.9072 67.5445 35.7118C67.6489 35.5144 67.8041 35.3641 67.9941 35.2582C68.1854 35.1502 68.3827 35.0987 68.5858 35.0987C68.7871 35.0987 68.9824 35.1499 69.1758 35.2582C69.3597 35.3644 69.5059 35.5144 69.631 35.7118C69.7344 35.9072 69.7815 36.1162 69.7815 36.3263C69.7812 36.5435 69.7337 36.7464 69.6307 36.9326ZM68.8339 36.5169C68.8045 36.4868 68.7627 36.4568 68.7005 36.4329C68.8339 36.4202 68.948 36.3707 69.0313 36.2867C69.1109 36.2006 69.146 36.0978 69.146 35.9844C69.146 35.9044 69.1226 35.8235 69.0751 35.7501C69.0313 35.6841 68.9651 35.6298 68.8814 35.6001C68.7981 35.5721 68.6654 35.5601 68.4928 35.5601H67.9522V37.1365H68.2018V36.4752H68.3486C68.4393 36.4725 68.4981 36.4865 68.5496 36.5251C68.6115 36.5733 68.7005 36.6959 68.8105 36.8875L68.948 37.1365H69.2561L69.0691 36.8308C68.9714 36.6856 68.8992 36.5808 68.8339 36.5169ZM68.5021 36.2467H68.2018V35.7723H68.4928C68.6112 35.7723 68.6948 35.7808 68.7356 35.7996C68.7868 35.8235 68.8286 35.8477 68.8456 35.8809C68.8721 35.9215 68.8814 35.9642 68.8814 36.0096C68.8814 36.0879 68.857 36.1391 68.8048 36.1859C68.7507 36.2207 68.653 36.2467 68.5021 36.2467ZM17 8L22.7849 35.348L23.2247 35.1205C29.3775 31.8889 35.5209 32.0819 39.5855 32.8142C44.0091 33.606 47.0047 35.1844 47.0408 35.1953L47.201 35.2862L47.3662 35.2069C54.6282 31.9773 60.6254 32.1635 64.3766 32.8859C68.4393 33.6733 70.8231 35.2442 70.8479 35.2623L71.3051 35.5653L71.4228 35.0235L77.3562 8H17Z" fill="#999999"/>
<path d="M58.8029 14.1465V16.212H59.8776L59.3454 17.7576H59.8304L61.0054 16.3376H61.0057V14.1465H58.8029ZM38.239 15.4041C35.0316 15.4041 33.1157 17.1956 33.1157 20.192C33.1157 23.1893 34.9566 24.9846 38.4312 24.9846C41.591 24.9846 43.0344 23.7836 43.3769 21.7304H40.5522C40.395 22.5246 39.6552 22.7985 38.6878 22.7985C37.5566 22.7985 36.8438 22.0174 36.8438 20.742H43.3184C43.3462 20.5937 43.3608 20.3972 43.3608 20.192C43.3608 17.5946 41.6601 15.4041 38.239 15.4041ZM65.9132 15.4322C63.0644 15.4322 61.2408 16.5773 61.2408 18.5314C61.2408 22.1832 66.6566 20.9456 66.6566 22.2374C66.6566 22.7256 66.2622 22.9803 65.4939 22.9803C64.6236 22.9803 64.005 22.5839 64.005 21.7996H61.1641V21.8519C61.1641 23.5078 62.319 24.8753 65.4276 24.8753C68.9353 24.8753 70.2772 23.4839 70.2779 21.694C70.2779 17.9776 64.6144 19.3748 64.6144 17.9504C64.6144 17.6576 64.9796 17.3255 65.9195 17.3255C66.843 17.3255 67.3854 17.7584 67.3854 18.1915H69.9863C69.9863 16.6903 68.4482 15.4322 65.9132 15.4322ZM54.4809 15.6103V24.6718H57.8733V15.6103H54.4809ZM42.4228 15.6279L46.874 24.6912H49.6629L53.9718 15.6279H51.1694L48.7789 20.8611H48.7169L46.3285 15.6279H42.4228ZM24.4353 15.7064V24.676H32.9524V22.3858H27.8262V15.7064H24.4353ZM38.2652 17.3437C39.2306 17.3437 39.5569 18.137 39.5569 19.1313H36.9679C36.9679 18.2412 37.3059 17.3437 38.2652 17.3437Z" fill="white"/>
</svg>
