<svg width="95" height="45" viewBox="0 0 95 45" fill="none" xmlns="http://www.w3.org/2000/svg">
<rect width="95" height="45" fill="white"/>
<path d="M9.51218 23.866C9.93192 24.2784 9.93192 24.8969 9.51218 25.3093L9.14491 25.6701C8.72517 26.0825 8.09556 26.0825 7.67583 25.6701L5.3148 23.3505C4.89507 22.9381 4.89507 22.3196 5.3148 21.9072L5.68207 21.5464C6.10181 21.134 6.73142 21.134 7.15116 21.5464L9.51218 23.866ZM9.24984 19.433C8.83011 19.0206 8.2005 19.0206 7.78076 19.433L7.41349 19.7938C6.99375 20.2062 6.99375 20.8247 7.41349 21.2371L9.77452 23.5567C10.1943 23.9691 10.8239 23.9691 11.2436 23.5567L11.6109 23.1959C12.0306 22.7835 12.0306 22.1649 11.6109 21.7526L9.24984 19.433ZM15.5459 21.4948C15.1262 21.0825 14.4966 21.0825 14.0768 21.4948L13.7096 21.8557C13.2898 22.268 13.2898 22.8866 13.7096 23.299L16.0706 25.6186C16.4903 26.0309 17.1199 26.0309 17.5397 25.6186L17.9069 25.2577C18.3267 24.8454 18.3267 24.2268 17.9069 23.8144L15.5459 21.4948ZM17.6971 19.3814C17.2773 18.9691 16.6477 18.9691 16.228 19.3814L15.8607 19.7423C15.441 20.1546 15.441 20.7732 15.8607 21.1856L18.2217 23.5052C18.6415 23.9175 19.2711 23.9175 19.6908 23.5052L20.0581 23.1443C20.4778 22.732 20.4778 22.1134 20.0581 21.701L17.6971 19.3814ZM13.762 17.1134C14.1818 16.701 14.1818 16.0825 13.762 15.6701L13.3948 15.3093C12.975 14.8969 12.3454 14.8969 11.9257 15.3093L9.56465 17.6289C9.14491 18.0412 9.14491 18.6598 9.56465 19.0722L9.93192 19.433C10.3517 19.8454 10.9813 19.8454 11.401 19.433L13.762 17.1134ZM15.8607 19.1753C16.2804 18.7629 16.2804 18.1443 15.8607 17.732L15.4934 17.3711C15.0737 16.9588 14.4441 16.9588 14.0244 17.3711L11.6633 19.6907C11.2436 20.1031 11.2436 20.7216 11.6633 21.134L12.0306 21.4948C12.4503 21.9072 13.0799 21.9072 13.4997 21.4948L15.8607 19.1753ZM13.762 25.2577C14.1818 24.8454 14.1818 24.2268 13.762 23.8144L13.3948 23.4536C12.975 23.0412 12.3454 23.0412 11.9257 23.4536L9.56465 25.7732C9.14491 26.1856 9.14491 26.8041 9.56465 27.2165L9.93192 27.5773C10.3517 27.9897 10.9813 27.9897 11.401 27.5773L13.762 25.2577ZM15.8607 27.3196C16.2804 26.9072 16.2804 26.2887 15.8607 25.8763L15.4934 25.5155C15.0737 25.1031 14.4441 25.1031 14.0244 25.5155L11.7158 27.8866C11.2961 28.299 11.2961 28.9175 11.7158 29.3299L12.0831 29.6907C12.5028 30.1031 13.1324 30.1031 13.5522 29.6907L15.8607 27.3196ZM33.07 25.3093C33.1224 25.4124 33.4372 25.8763 33.4372 25.8763C33.2798 26.5979 32.8076 27.5773 32.8076 27.5773L32.7552 27.6289C31.0237 28.299 28.2954 28.866 25.4097 27.732C23.6783 27.0619 22.4191 25.7216 21.9469 23.9691C21.4222 22.1649 21.7895 20.2062 22.9438 18.6598C24.203 17.0103 26.1967 16.0825 28.925 15.9278C29.9744 15.8763 32.0731 16.134 33.2274 16.8041H33.3323C33.3323 16.8041 33.3848 19.6392 33.3323 19.7423L33.2798 19.8969L32.4403 19.9485L32.3879 19.6392C32.2305 18.8144 31.8632 16.6495 28.7676 16.8041C27.456 16.8557 26.3542 17.5258 25.5671 18.5567C24.5703 19.8454 24.3079 21.5464 24.7277 23.5052C25.1474 25.3608 26.6165 26.5464 27.7183 27.0103C28.1905 27.1649 29.6596 27.5258 30.7614 27.0103C31.7058 26.5464 32.6502 25.8247 33.07 25.3093ZM43.6683 28.299V18.5567C43.6683 18.2474 43.6683 17.732 43.3535 17.3711C43.3011 17.3196 42.8289 16.9588 42.8289 16.9588V16.5464L45.5047 16.0309L45.767 16.1856C45.767 16.1856 45.767 26.4948 45.767 26.6495C45.8195 27.6289 46.5016 27.732 46.5016 27.732V28.3505L43.6683 28.299ZM55.4734 27.6289C55.0012 27.5258 54.7389 27.1134 54.7389 26.4433V20.2577L54.529 20.1546L51.8532 20.6701V21.0825C51.8532 21.0825 52.3254 21.4433 52.3779 21.4948C52.6927 21.8557 52.6927 22.3711 52.6927 22.6804V26.3402C51.8007 27.0103 51.0137 27.2165 50.4366 26.9588C50.0169 26.7526 49.7545 26.2371 49.7545 25.5155V20.2577L49.5447 20.1546L46.8688 20.6701V21.0825C46.8688 21.0825 47.341 21.4433 47.3935 21.4948C47.7608 21.8557 47.7608 22.3711 47.7083 22.6804V25.8247C47.7083 26.4433 47.7608 26.6495 47.8132 26.9072C47.9706 27.5773 48.3904 28.0412 48.9675 28.2474C49.9119 28.6082 51.2761 28.2474 52.6927 27.3196V28.1959H55.6309V27.6289H55.4734ZM68.8001 27.6289C68.3279 27.5258 68.118 27.1134 68.0656 26.4433V22.6804C68.0656 21.8041 67.5934 20.1546 65.862 20.1546C64.5503 20.1546 63.7108 20.9278 63.2386 21.3402C62.9763 20.7732 62.3991 20.1546 61.3498 20.1546C60.5103 20.1546 59.7758 20.4639 59.0412 21.0825V20.3093L58.7789 20.1546L56.1031 20.6701V21.0825C56.1031 21.0825 56.5753 21.4433 56.6277 21.4948C56.9425 21.8557 56.9425 22.3711 56.9425 22.6804V28.1959H59.8807V27.6289L59.7233 27.5773C59.2511 27.4742 59.0412 27.1134 59.0412 26.3918C59.0412 26.3918 59.0412 22.5773 59.0412 21.9588C59.5659 21.5464 60.0906 21.4433 60.6152 21.4948C61.035 21.5464 61.5072 21.8557 61.5072 23.4021V28.1443H64.3929V27.5773L64.2355 27.5258C63.7633 27.4227 63.5534 27.0619 63.5009 26.3402V22.5773C63.5009 22.4742 63.5009 22.1649 63.4485 21.9588C63.9731 21.4948 64.4978 21.4433 65.0225 21.4948C65.4422 21.5464 65.9144 21.8557 65.9144 23.4021V28.1443H68.8001V27.5773V27.6289ZM42.7239 24.2268C42.7239 23.0412 42.3042 21.9588 41.5696 21.2371C40.7826 20.4639 39.6808 20.0515 38.3167 20.0515C35.7982 20.0515 33.9094 21.8557 33.9094 24.2268C33.9094 26.7526 35.6408 28.4021 38.3167 28.4021C39.5759 28.4021 40.7302 27.9897 41.5172 27.2165C42.3042 26.3918 42.7239 25.3608 42.7239 24.2268ZM38.3167 27.4742C36.6902 27.4742 36.218 26.2371 36.218 24.1753C36.218 22.6804 36.6902 20.8763 38.3167 20.8763C39.9432 20.8763 40.4154 22.6804 40.4154 24.1753C40.4154 26.2371 39.9432 27.4742 38.3167 27.4742ZM78.6639 17.6289C78.6639 17.0619 79.1362 16.5464 79.7658 16.5464C80.3429 16.5464 80.8676 17.0103 80.8676 17.6289C80.8676 18.2474 80.3954 18.7113 79.7658 18.7113C79.1362 18.7113 78.6639 18.1959 78.6639 17.6289ZM78.7689 28.1959V22.6289C78.7689 22.3196 78.7689 21.8041 78.4541 21.4433C78.4016 21.3918 77.9294 21.0309 77.9294 21.0309V20.6186L80.6052 20.1031L80.8676 20.2577V26.4433C80.8676 27.1134 81.1299 27.5258 81.5496 27.6289L81.707 27.6804V28.2474L78.7689 28.1959ZM77.2473 22.0619C76.6702 21.0825 75.9357 20.4639 75.0437 20.2577C73.7845 19.9485 72.5253 20.5155 71.7383 20.9278V16.134L71.4759 15.9794L68.8001 16.4948V16.9072C68.8001 16.9072 69.2723 17.268 69.3248 17.3196C69.6396 17.6804 69.6396 18.1443 69.6396 18.5052V27.5258V27.6289L69.7445 27.6804C71.2661 28.4536 73.2598 28.5567 74.7289 27.9897C76.3554 27.3196 77.0899 26.1856 77.3523 25.3608C77.8769 24.0722 77.6671 22.7835 77.2473 22.0619ZM75.0437 26.3918C74.5715 27.1649 73.6271 27.6289 72.8926 27.4227C72.158 27.2165 71.7383 26.4433 71.7383 25.2577C71.7383 25.2577 71.7383 22.5258 71.7383 21.9072C71.7383 21.9072 71.7907 21.9072 71.8432 21.8557C72.3154 21.6495 73.1549 21.1856 74.2567 21.7526C74.8338 22.0619 75.306 22.6289 75.5159 23.3505C75.7783 24.3299 75.6209 25.4124 75.0437 26.3918ZM88.9475 27.3711L88.7901 27.3196C88.6852 27.3196 88.4753 27.0103 88.4753 26.5464V22.8866C88.4753 21.8041 88.108 20.9794 87.4784 20.567C86.9013 20.1546 86.1143 20.1031 85.1699 20.4124C84.0681 20.7732 82.4416 22.1649 82.1793 22.4742L82.1268 22.5258V22.6289C82.1268 22.732 82.2842 22.8866 82.3367 22.9897L82.3891 23.0412H84.2255C84.2255 23.0412 84.2255 22.6289 84.2255 22.5258C84.2255 21.8041 84.6977 21.4433 85.1174 21.3918C85.5372 21.3402 85.7995 21.3402 86.0094 21.4948C86.2717 21.701 86.4291 22.2165 86.4291 23.0412V23.5052L82.599 25.1546L82.5465 25.2062V25.2577C82.1793 26.2887 82.2842 27.1134 82.7564 27.6804C83.5434 28.5567 85.4847 28.6598 88.3179 28.0412C88.5278 27.9897 89 27.9381 89 27.9381C88.9475 27.8866 88.9475 27.3711 88.9475 27.3711ZM86.4816 24.3299V27.1649C85.852 27.5773 85.2224 27.6289 84.7502 27.268C84.2779 26.8557 84.173 26.134 84.4878 25.4124L86.4816 24.3299Z" fill="#999999"/>
</svg>
