<svg width="95" height="45" viewBox="0 0 95 45" fill="none" xmlns="http://www.w3.org/2000/svg">
<rect width="95" height="45" fill="white"/>
<path d="M70.1114 10.4102H25V34.3644H70.1114V10.4102Z" fill="white"/>
<path d="M70.1114 10.4102H47.5557V34.3644H70.1114V10.4102Z" fill="#CCCCCC"/>
<path d="M70.1114 7H25V12.3901H70.1114V7Z" fill="#999999"/>
<path d="M70.1114 33.1445H25V37.8404H70.1114V33.1445Z" fill="#999999"/>
<path d="M37.1634 8.48589H36.1145V11.2754H35.6934V8.48589H34.6547V8.11328H37.1609V8.48589H37.1634Z" fill="white"/>
<path d="M40.7544 8.05664C40.9738 8.05664 41.1755 8.09492 41.3618 8.17404C41.5481 8.25315 41.7063 8.3629 41.8416 8.50581C41.9743 8.64873 42.0789 8.81973 42.1555 9.02134C42.2295 9.22296 42.2678 9.445 42.2678 9.69255C42.2678 9.93756 42.2295 10.1621 42.1555 10.3612C42.0815 10.5628 41.9768 10.7338 41.8416 10.8793C41.7089 11.0222 41.5481 11.1345 41.3618 11.2136C41.1755 11.2927 40.9738 11.331 40.7544 11.331C40.5323 11.331 40.3307 11.2927 40.1444 11.2136C39.9581 11.1345 39.7999 11.0248 39.6646 10.8793C39.5293 10.7364 39.4247 10.5628 39.3507 10.3612C39.2767 10.1596 39.2384 9.93756 39.2384 9.69255C39.2384 9.44755 39.2767 9.22296 39.3507 9.02134C39.4247 8.81973 39.5293 8.64873 39.6646 8.50581C39.7999 8.3629 39.9607 8.25315 40.1444 8.17404C40.3307 8.09492 40.5349 8.05664 40.7544 8.05664ZM40.7518 10.9712C40.9075 10.9712 41.053 10.9431 41.1857 10.8844C41.3184 10.8257 41.4307 10.7415 41.5277 10.6317C41.6246 10.522 41.6987 10.3867 41.7522 10.2311C41.8058 10.0728 41.8314 9.89417 41.8314 9.69255C41.8314 9.49094 41.8033 9.31229 41.7522 9.15405C41.6987 8.99582 41.6246 8.86311 41.5302 8.75337C41.4358 8.64363 41.3235 8.55941 41.1908 8.50326C41.0606 8.44712 40.9177 8.41649 40.762 8.41649C40.6063 8.41649 40.4609 8.44456 40.3282 8.50326C40.1954 8.56196 40.0806 8.64363 39.9836 8.75337C39.8866 8.86311 39.8101 8.99582 39.7565 9.15405C39.7029 9.31229 39.6748 9.49349 39.6748 9.69511C39.6748 9.89672 39.7029 10.0754 39.7539 10.2336C39.8075 10.3918 39.8815 10.5245 39.9785 10.6343C40.0755 10.744 40.1878 10.8282 40.3205 10.8869C40.4507 10.9431 40.5961 10.9712 40.7518 10.9712Z" fill="white"/>
<path d="M47.571 11.2754H47.1729V8.58287L46.2694 11.2754H45.8942L44.9908 8.58287V11.2754H44.5952V8.11328H45.223L46.0806 10.7522L46.9406 8.11328H47.5684V11.2754H47.571Z" fill="white"/>
<path d="M53.0274 11.2754H52.6293V8.58287L51.7258 11.2754H51.3507L50.4472 8.58287V11.2754H50.0516V8.11328H50.6795L51.537 10.7522L52.397 8.11328H53.0249V11.2754H53.0274Z" fill="white"/>
<path d="M58.0806 8.11328L56.8351 9.93805V11.2779H56.4166V9.93805L55.1737 8.11328H55.6841L56.631 9.56799L57.5727 8.11328H58.0806Z" fill="white"/>
<path d="M33.5751 37.0742H33.154V35.5863H31.5079V37.0742H31.0894V33.9121H31.5079V35.2111H33.154V33.9121H33.5751V37.0742Z" fill="white"/>
<path d="M36.528 37.0742H36.1069V33.9121H36.528V37.0742Z" fill="white"/>
<path d="M41.0095 37.0742H39.052V33.9121H39.4706V36.699H41.0095V37.0742Z" fill="white"/>
<path d="M45.417 34.2847H43.702V35.2647H45.1899V35.6399H43.702V37.0742H43.2834V33.9121H45.417V34.2847Z" fill="white"/>
<path d="M48.2295 37.0742H47.8083V33.9121H48.2295V37.0742Z" fill="white"/>
<path d="M52.1393 37.1279C51.9122 37.1279 51.7054 37.0896 51.5166 37.0105C51.3277 36.9314 51.1669 36.8216 51.0342 36.6787C50.9015 36.5358 50.7969 36.3648 50.7203 36.1632C50.6463 35.9616 50.608 35.737 50.608 35.4894C50.608 35.2419 50.6438 35.0173 50.7178 34.8182C50.7918 34.6166 50.8939 34.4456 51.0266 34.3027C51.1593 34.1598 51.3201 34.05 51.5064 33.9709C51.6927 33.8943 51.8994 33.8535 52.124 33.8535C52.3129 33.8535 52.4864 33.8765 52.6472 33.925C52.808 33.9735 52.9509 34.0424 53.0708 34.1291C53.1908 34.2185 53.2903 34.3231 53.3643 34.4482C53.4383 34.5732 53.4843 34.711 53.4996 34.8642H53.0657C53.0555 34.7621 53.0274 34.6702 52.9815 34.5911C52.9356 34.5094 52.8692 34.4405 52.7901 34.3844C52.7084 34.3282 52.6115 34.2848 52.5017 34.2568C52.3894 34.2261 52.2669 34.2134 52.1317 34.2134C51.9683 34.2134 51.8203 34.2414 51.6876 34.2976C51.5549 34.3537 51.44 34.4354 51.3456 34.5451C51.2512 34.6549 51.1772 34.7876 51.1236 34.9458C51.07 35.1041 51.0444 35.2853 51.0444 35.4894C51.0444 35.691 51.07 35.8697 51.1236 36.0305C51.1772 36.1887 51.2512 36.324 51.3456 36.4312C51.4426 36.5409 51.5574 36.6226 51.6901 36.6813C51.8228 36.74 51.9709 36.768 52.1342 36.768C52.5885 36.768 52.9279 36.6175 53.1525 36.3163V35.834H52.318V35.4588H53.5583V37.0717H53.2622L53.1551 36.74C52.9356 37.0003 52.5987 37.1279 52.1393 37.1279Z" fill="white"/>
<path d="M58.3231 37.0742H55.965V33.9121H58.2517V34.2847H56.3835V35.2545H58.1292V35.6271H56.3835V36.699H58.3231V37.0742Z" fill="white"/>
<path d="M63.3227 37.0742H62.8685L62.5724 36.2294C62.5443 36.1554 62.5086 36.0865 62.4627 36.0253C62.4167 35.9615 62.3657 35.9079 62.3044 35.8645C62.2457 35.8185 62.1768 35.7854 62.1054 35.7598C62.0314 35.7343 61.9573 35.7216 61.8782 35.7216H61.1024V37.0742H60.6838V33.9121H62.085C62.2075 33.9121 62.3172 33.9172 62.4193 33.9274C62.5188 33.9376 62.6081 33.9555 62.6847 33.981C62.7613 34.004 62.8327 34.0423 62.8991 34.0959C62.9629 34.1495 63.019 34.2107 63.065 34.2847C63.1109 34.3587 63.1466 34.4378 63.1722 34.5246C63.1977 34.6114 63.2104 34.7033 63.2104 34.7977C63.2104 34.9074 63.1951 35.007 63.1594 35.0988C63.1262 35.1907 63.0803 35.2724 63.019 35.3439C62.9578 35.4153 62.8838 35.4766 62.797 35.5251C62.7102 35.5735 62.6107 35.6118 62.5035 35.6399C62.7255 35.7139 62.8914 35.9053 63.0037 36.2116L63.3227 37.0742ZM61.1024 35.3439H62.0365C62.1666 35.3439 62.2815 35.3336 62.3733 35.3158C62.4678 35.2954 62.5443 35.2647 62.603 35.2214C62.6617 35.178 62.7077 35.1218 62.7357 35.0504C62.7638 34.9815 62.7766 34.8947 62.7766 34.7951C62.7766 34.4353 62.552 34.2566 62.0977 34.2566H61.0998V35.3439H61.1024Z" fill="white"/>
</svg>
