<svg width="95" height="45" viewBox="0 0 95 45" fill="none" xmlns="http://www.w3.org/2000/svg">
<rect width="95" height="45" fill="white"/>
<path d="M79.4376 22.7194H75.4962C75.1042 21.7315 74.6905 20.9457 72.4912 20.9457C70.9669 20.9457 70.3136 21.5968 70.3136 22.2479C70.3136 22.9663 70.858 23.55 72.5347 23.9317L76.1059 24.9195C78.4359 25.5706 79.5683 27.479 79.5683 29.4771C79.5683 30.5996 79.3287 31.9467 78.3053 33.0692C77.5431 33.8999 76.3672 35 72.4912 35C67.1779 35 65.4141 31.5426 65.4141 29.4322H69.5514C69.9652 30.9588 70.9669 31.5426 72.992 31.5426C74.3856 31.5426 75.5833 31.0262 75.5833 29.9261C75.5833 28.8709 74.7123 28.4892 73.6017 28.1749L70.7927 27.3891C69.4426 26.9626 68.3102 26.6258 67.5045 25.9298C65.4141 24.0889 65.5665 20.7886 67.8312 19.0823C69.0942 18.1394 70.3789 17.6455 72.4476 17.6455C74.8647 17.6455 76.2366 18.3639 77.3254 19.1272C78.2617 19.7558 79.4158 21.4172 79.4376 22.7194ZM13 11C13.0436 11.1347 21.2312 34.7979 21.2312 34.7979H26.1307L33.6651 15.1085H80.4828L80.8312 11H30.0721L23.8225 27.3218L18.2044 11H13ZM53.481 26.2891L59.5999 34.7979H63.4325V17.9598H59.0338V27.1197L53.5028 17.9822H49.2783V34.7979H53.5028V26.2891H53.481ZM80.9837 33.9224C80.9837 33.4284 80.5917 33.0243 80.1126 33.0243C79.6336 33.0243 79.2416 33.4284 79.2416 33.9224C79.2416 34.4163 79.6336 34.8204 80.1126 34.8204C80.5917 34.8204 81.0054 34.4163 80.9837 33.9224C81.0054 33.9224 81.0054 33.9224 80.9837 33.9224ZM80.8966 33.9224C80.8966 34.3489 80.5482 34.7081 80.1344 34.7081C79.7207 34.7081 79.3723 34.3489 79.3723 33.9224C79.3723 33.4958 79.7207 33.1366 80.1344 33.1366C80.5482 33.1141 80.8966 33.4509 80.8966 33.9224C80.8966 33.8999 80.8966 33.8999 80.8966 33.9224ZM80.5264 33.7203C80.5264 33.5407 80.374 33.406 80.2215 33.406C80.1997 33.406 80.1997 33.406 80.178 33.406H79.7642V34.3489H79.9602V34.0346H80.1126L80.3086 34.3489H80.5482L80.3304 34.0122C80.4611 33.9897 80.5481 33.855 80.5264 33.7203ZM80.3304 33.7428C80.3304 33.8101 80.2651 33.8775 80.1997 33.8775H80.178H79.982V33.608H80.178C80.2433 33.5856 80.3304 33.6305 80.3522 33.6978C80.3304 33.7203 80.3522 33.7203 80.3304 33.7428ZM30.181 34.7979H34.8846L35.7556 32.1712H41.9617L42.8545 34.7979H47.4709L41.5479 17.9822H36.5613L30.181 34.7979ZM37.0621 29.1179L38.8913 23.5276L40.6769 29.1179H37.0621Z" fill="#999999"/>
</svg>
