<svg width="95" height="45" viewBox="0 0 95 45" fill="none" xmlns="http://www.w3.org/2000/svg">
<rect width="95" height="45" fill="white"/>
<path d="M45.9543 37.9363C43.5664 37.7077 41.1488 36.8506 39.072 35.4963C37.3317 34.3615 36.9387 33.895 36.9387 32.964C36.9387 31.094 38.996 27.8186 42.5159 24.0847C44.5149 21.9641 47.2995 19.4785 47.6006 19.5458C48.186 19.6766 52.8663 24.2394 54.6184 26.3873C57.3891 29.7839 58.6628 32.5649 58.0157 33.8048C57.5238 34.7473 54.4715 36.5894 52.2291 37.2971C50.381 37.8804 47.9537 38.1276 45.9543 37.9363ZM34.5882 31.0197C33.1421 28.8023 32.4114 26.6193 32.0587 23.462C31.9422 22.4194 31.9839 21.8231 32.3232 19.6832C32.746 17.0162 34.2657 13.9307 36.0917 12.0319C36.8694 11.2231 36.9389 11.2034 37.8869 11.5226C39.0381 11.9102 40.2675 12.7588 42.1741 14.482L43.2866 15.4873L42.6791 16.2332C39.8592 19.6956 36.8824 24.6034 35.7605 27.6397C35.1506 29.2904 34.9046 30.9474 35.167 31.6372C35.3442 32.103 35.1815 31.9293 34.5882 31.0197ZM59.9727 31.3968C60.1156 30.6998 59.9349 29.4197 59.5114 28.1285C58.5942 25.3323 55.5287 20.1305 52.7137 16.5937L51.8276 15.4804L52.7863 14.6006C54.0381 13.4518 54.9072 12.7639 55.8449 12.1798C56.5849 11.7188 57.6424 11.3107 58.097 11.3107C58.3772 11.3107 59.3638 12.334 60.1603 13.4508C61.3938 15.1804 62.3013 17.2772 62.7611 19.4599C63.0581 20.8702 63.0829 23.889 62.8089 25.2958C62.5841 26.4504 62.1094 27.948 61.6462 28.9637C61.2992 29.7247 60.4362 31.2027 60.058 31.6837C59.8635 31.931 59.8633 31.9304 59.9727 31.3968H59.9727ZM46.21 10.7827C44.9111 10.1235 42.9074 9.41587 41.8006 9.2255C41.4126 9.15875 40.7506 9.12153 40.3297 9.14278C39.4164 9.18887 39.4572 9.14114 40.9222 8.44938C42.1402 7.87425 43.1562 7.53606 44.5353 7.24663C46.0868 6.92104 49.0031 6.91722 50.5298 7.23877C52.1789 7.58608 54.1207 8.3083 55.2149 8.98129L55.5401 9.18131L54.794 9.14365C53.3113 9.06882 51.1504 9.6675 48.8305 10.7959C48.1307 11.1362 47.5219 11.4081 47.4776 11.4C47.4333 11.3918 46.8629 11.1141 46.21 10.7827V10.7827Z" fill="#999999"/>
</svg>
