<svg width="95" height="45" viewBox="0 0 95 45" fill="none" xmlns="http://www.w3.org/2000/svg">
<rect width="95" height="45" fill="white"/>
<path d="M86.951 16.2229C88.0271 22.3757 71.2375 30.4329 49.4463 34.2187C27.6584 38.0045 9.12327 36.0839 8.04881 29.9279C6.97436 23.7751 23.7688 15.7196 45.5567 11.9354C67.3463 8.14625 85.8782 10.0685 86.951 16.2229Z" fill="#999999"/>
<path d="M66.4433 25.3542L66.3323 18.957H68.3538V27.0207H65.4472L63.429 20.4036H63.3849L63.4975 27.0207H61.4874V18.957H64.5214L66.3992 25.3542H66.4433Z" fill="white"/>
<path d="M29.6865 19.7129L28.568 27.1054H26.3619L27.8756 18.957H31.5089L33.0177 27.1054H30.8198L29.7323 19.7129H29.6865Z" fill="white"/>
<path d="M39.2112 25.1864L40.2204 18.957H43.5515L43.7279 27.1054H41.6867L41.6329 19.7797H41.5904L40.2253 27.1054H38.1531L36.7864 19.7797H36.7423L36.6917 27.1054H34.6456L34.8269 18.957H38.1597L39.1672 25.1864H39.2112Z" fill="white"/>
<path d="M22.923 24.8064C23.003 25.0035 22.9785 25.2577 22.941 25.4108C22.8724 25.6812 22.6879 25.9581 22.1457 25.9581C21.633 25.9581 21.3228 25.6649 21.3228 25.2186V24.4301H19.1314L19.1298 25.0605C19.1298 26.8769 20.5635 27.4259 22.1 27.4259C23.5778 27.4259 24.7943 26.9225 24.987 25.5639C25.0866 24.8602 25.0115 24.3992 24.9788 24.2249C24.6343 22.5193 21.5334 22.0094 21.3032 21.0564C21.264 20.8935 21.2754 20.7192 21.295 20.6264C21.3522 20.3673 21.5301 20.0806 22.0412 20.0806C22.518 20.0806 22.8005 20.3755 22.8005 20.8202C22.8005 20.9701 22.8005 21.3236 22.8005 21.3236H24.8368V20.7518C24.8368 18.9762 23.2398 18.6992 22.0837 18.6992C20.6304 18.6992 19.4433 19.1782 19.2261 20.5042C19.1673 20.8707 19.1592 21.1965 19.2441 21.6054C19.6017 23.2686 22.5017 23.7508 22.923 24.8064Z" fill="white"/>
<path d="M49.4822 24.7927C49.5622 24.9882 49.5361 25.2358 49.5001 25.3889C49.4332 25.6593 49.2503 25.9314 48.7114 25.9314C48.2069 25.9314 47.8983 25.6381 47.8983 25.2016L47.8966 24.4196H45.7281L45.7249 25.0419C45.7249 26.8404 47.1455 27.3828 48.6657 27.3828C50.1272 27.3828 51.3323 26.886 51.5233 25.5404C51.6229 24.8416 51.5527 24.3871 51.5168 24.216C51.1739 22.5267 48.1056 22.0217 47.877 21.0769C47.8378 20.914 47.8493 20.7429 47.8689 20.655C47.9277 20.3927 48.1024 20.1141 48.6086 20.1141C49.0821 20.1141 49.3581 20.4009 49.3581 20.8439C49.3581 20.9922 49.3581 21.3424 49.3581 21.3424H51.3796V20.7755C51.3796 19.0194 49.7957 18.7441 48.6494 18.7441C47.2124 18.7441 46.0351 19.2166 45.8228 20.5344C45.764 20.8961 45.7575 21.2154 45.8424 21.6226C46.1935 23.2696 49.0658 23.7485 49.4822 24.7927Z" fill="white"/>
<path d="M56.3421 25.8882C56.9087 25.8882 57.0851 25.4972 57.1243 25.2968C57.1406 25.2089 57.1455 25.0916 57.1439 24.9857V18.9551H59.2095V24.8C59.2144 24.9499 59.1997 25.2578 59.1915 25.3343C59.0462 26.8558 57.8411 27.3494 56.3405 27.3494C54.8382 27.3494 53.6315 26.8558 53.4878 25.3343C53.4813 25.2578 53.4666 24.9482 53.4698 24.8V18.9551H55.5338V24.9841C55.5338 25.09 55.5371 25.2089 55.5534 25.2952C55.5991 25.4956 55.7706 25.8882 56.3421 25.8882Z" fill="white"/>
<path d="M73.3816 25.8014C73.9727 25.8014 74.18 25.4283 74.2176 25.2117C74.2323 25.1188 74.2372 25.0048 74.2356 24.9022V23.7195H73.3979V22.5303H76.2947V24.7181C76.293 24.8712 76.2898 24.9836 76.2653 25.2557C76.1297 26.7381 74.8397 27.2675 73.393 27.2675C71.943 27.2675 70.6562 26.7381 70.5174 25.2557C70.4946 24.9836 70.4913 24.8712 70.488 24.7181L70.4897 21.2874C70.4897 21.1424 70.5076 20.8866 70.524 20.7498C70.7052 19.2267 71.943 18.7363 73.393 18.7363C74.8414 18.7363 76.1101 19.2234 76.2604 20.7498C76.2865 21.0088 76.2783 21.2874 76.2783 21.2874V21.5594H74.2192V21.1033C74.2209 21.1049 74.216 20.9094 74.1931 20.7938C74.1588 20.613 74.0021 20.1992 73.3783 20.1992C72.7823 20.1992 72.6092 20.5902 72.5651 20.7938C72.5406 20.9013 72.5308 21.0463 72.5308 21.1782V24.9054C72.5292 25.0081 72.5357 25.1221 72.552 25.2149C72.5847 25.4283 72.7904 25.8014 73.3816 25.8014Z" fill="white"/>
</svg>
