<svg width="95" height="45" viewBox="0 0 95 45" fill="none" xmlns="http://www.w3.org/2000/svg">
<rect width="95" height="45" fill="white"/>
<path d="M56.4858 35.6711C54.7493 37.4082 52.8334 37.1374 51.0072 36.3184C49.0657 35.4829 47.2907 35.43 45.2403 36.3184C42.6868 37.4545 41.3316 37.1242 39.7937 35.6711C31.1113 26.4571 32.3928 12.4214 42.2607 11.893C44.654 12.0251 46.3296 13.2569 47.7393 13.3593C49.8346 12.9201 51.8402 11.6618 54.0829 11.827C56.7773 12.0515 58.7925 13.148 60.1382 15.1196C54.5955 18.5542 55.9091 26.0839 61 28.1975C59.9812 30.9551 58.674 33.6797 56.4826 35.6942L56.4858 35.6711ZM47.547 11.7939C47.2875 7.69881 50.5074 4.33025 54.211 4C54.7205 8.72259 50.046 12.2563 47.547 11.7939Z" fill="#999999"/>
</svg>
