<svg width="95" height="45" viewBox="0 0 95 45" fill="none" xmlns="http://www.w3.org/2000/svg">
<rect width="95" height="45" fill="white"/>
<path d="M47.9659 7.53441L47.6168 7.63398L46.9691 8.3321L44.4787 10.4242L43.9808 10.8728L44.0804 11.0216H44.3802L44.4798 10.8728H44.6297L44.8792 10.5238H45.028L45.1768 10.2754L45.725 9.92636L46.7218 8.93064L47.119 8.7315L47.5173 8.23364L47.816 8.08485L48.1147 7.68656H48.3138L48.4626 7.38785L49.0612 6.93922L49.3599 6.59016L49.4595 6.54094C49.4595 6.54094 49.5098 6.54093 49.559 6.4917V6.39214H49.6586V6.19187L50.0569 5.99273V5.79135C50.1565 5.59221 50.406 5.34272 50.8042 5.04401L51.0034 4.79452C51.2025 4.74529 51.4017 4.84486 51.5516 5.09323L51.9006 5.59109H52.1501L52.2497 5.44118L50.9553 3H50.7561L50.5078 3.14991V3.44975L50.7069 3.59854C50.9061 3.89726 50.9564 4.24632 50.7561 4.59426H50.6073V4.69383L50.3579 4.89297V5.04289L50.3075 5.19281H50.2079L50.1084 5.24203V5.3416L49.4595 5.79135V5.99049H49.3599V6.13929L48.9124 6.53757L48.6629 6.8363H48.4638L48.2154 7.18535C48.1147 7.33639 48.0151 7.43483 47.9659 7.53441ZM41.3897 13.3129C41.0899 13.512 40.8919 13.7112 40.8426 13.8108V14.209L40.9914 14.6577L40.8426 14.906L40.6435 14.8065L40.6927 14.2583L40.5931 14.1084C40.4432 14.1587 40.394 14.2079 40.4432 14.2583L40.4936 14.4574L40.394 14.7069L40.3437 15.056C40.3437 15.2048 40.4432 15.3547 40.6424 15.5046L41.091 15.7541L41.1402 15.9532L41.6381 15.7541V16.1031L40.8415 16.7509C40.592 16.9993 40.394 17.298 40.3437 17.6471V18.2948L39.8961 18.6439V18.7435H39.697V18.9426L39.1991 19.3901V19.7392L39 20.3366L39.0996 20.3869L39.8973 19.9887V20.0882C39.8973 20.1386 39.8973 20.1878 39.7977 20.2381L39.3491 20.3377V20.4876L39.6981 20.7863H39.8973L39.9465 20.5872H40.1456L40.0964 20.7863L39.9968 20.9363H40.3951L40.4947 21.1354H40.893L40.9925 21.1846L41.2913 21.9812L41.3908 22.827L41.788 23.5744L41.8876 24.3732L42.0867 24.522L42.2859 25.4203H42.4358C42.5353 25.1205 42.5846 24.9225 42.5353 24.8721L42.4358 24.8218L42.3362 24.2736L42.0867 23.976L41.9871 23.2768L41.788 23.0776L41.5889 21.932L41.4893 21.8324V21.4833H41.3394L41.2398 20.4865L41.5385 20.1375V20.0871C41.788 19.888 42.0364 19.9383 42.1863 20.237L42.3351 21.0336C42.3843 21.0828 42.3351 21.1332 42.3351 21.1332L42.2859 21.282L42.4358 21.3815V21.6814L42.5353 21.8302L42.6841 22.8259L42.9336 23.3741V23.6236L43.2323 23.9245L43.3823 24.2221L43.1831 24.2725L42.8844 23.825H42.6853L42.5365 24.7222L42.5857 24.7726L42.6349 24.8229L42.7345 24.8732L42.9336 25.5702L43.1328 25.6709L43.4315 26.6185L43.6306 26.8177L43.7302 27.5147L43.8801 27.6154V28.5619L43.9797 28.6122V28.8595L44.378 29.2085L44.727 30.155L45.0761 30.456L45.6735 31.3521L45.923 31.5512H46.1725L46.5708 31.8018L46.9198 31.8522L47.0698 32.0513H47.3685L47.468 31.6542H47.5676L47.7164 31.8533L47.816 33.0985C47.8652 33.6467 47.8652 34.0965 47.816 34.3941L47.7164 34.4444V34.6939L47.4669 35.4894H47.5665C47.6157 35.9391 47.7153 36.2882 48.014 36.5376C47.9648 36.588 48.014 36.6383 48.0632 36.6876C48.0632 36.7379 48.014 36.8386 47.8641 36.937L48.4123 37.3868V37.5859L48.6114 37.7851L48.9113 37.9339L49.0601 38.2829L49.4091 38.3333L49.6586 37.9339C49.6586 37.8354 49.559 37.5859 49.3096 37.3879L49.0108 37.1384H48.8117L48.7625 37.3376L48.5633 37.2872C48.8128 36.9874 48.8128 36.739 48.7132 36.6406L48.5633 36.5399L48.6629 36.24C48.7625 36.0409 48.8117 35.9425 48.7625 35.7925L48.513 35.4446V34.3482L48.6629 34.2978V33.9499L48.7625 33.8996V33.452L48.9616 33.2026L49.1608 33.2529V33.4017C49.21 33.4017 49.2603 33.4017 49.3107 33.3514L49.3599 33.2529L49.4091 33.301H49.4584C49.7078 33.8996 49.8566 34.2497 49.8566 34.3963L49.8074 34.8942L49.8566 35.043L50.0558 35.2432C50.1554 35.4446 50.1553 35.6415 50.1061 35.8406L49.9562 35.9906L49.8074 36.0409L49.8566 35.2936L49.6575 35.1951V34.6973L49.5579 34.6469V34.3963L49.2592 34.0965L49.3084 33.8962L49.2592 33.6971L49.0601 33.546L48.9113 33.9958L48.7121 34.0942V34.1446C48.8117 34.1949 48.8117 34.2934 48.8609 34.4444L48.9113 34.8416L49.0108 34.8919L49.2603 35.4882L49.4091 37.1821H49.6586L49.7582 37.0836L49.8074 36.9326L50.0558 36.7334C50.1061 36.5835 50.2057 36.3363 50.256 35.9861C50.3053 35.5889 50.3556 35.3394 50.3053 35.1895L50.0558 34.3415V33.9454L49.8074 33.4979V33.3469L49.8566 33.1981L49.6575 32.35H49.4595V32.6991L49.3599 32.9486L49.1608 32.9989L49.2603 32.2997L49.4091 32.2516V31.9518L49.559 31.9014L49.8578 31.1026L49.7078 30.5074V30.4571L49.6586 30.2568L49.8085 29.6079C49.9081 29.3584 50.0077 29.2119 50.1084 29.1112V29.0631L49.8589 28.4645L49.8096 28.4142V28.3157C49.9584 28.2654 50.058 28.2654 50.1095 28.3661V28.5652L50.5067 29.1112L50.8054 30.0096H51.4028L51.4531 29.9592C51.6523 29.8104 51.7026 29.6102 51.6523 29.3126H51.5035V29.0631L51.2048 28.5652L51.1555 28.3661L51.1063 28.1636L50.8568 27.9141L50.7573 27.2171H50.6085L50.5581 27.1186V26.9676L50.1598 27.367L50.6085 28.2128L50.7573 28.3638V28.7118C50.5581 28.7621 50.5089 28.7118 50.5581 28.6614L50.359 28.1636L49.9103 27.4666L49.6609 27.5684L49.6116 27.7675L49.8108 28.1166L49.6116 27.9656L49.5624 28.0662L49.4628 28.1166V28.8617H49.2637C49.2637 28.3169 49.2637 28.0159 49.2133 27.9152L49.0142 27.7664L48.7155 27.6176V27.4666L48.3172 27.216V27.0672L48.1181 27.0168L48.0688 26.7159L47.8193 26.4664L47.7198 25.9685V25.3722C47.6705 25.1227 47.5206 24.8251 47.3215 24.4739L47.1716 24.4257V24.325C47.2208 24.2747 47.1716 24.2244 47.1716 24.2244L47.4703 24.2747V24.4739L47.6694 24.6249L48.0185 24.5242L48.1181 25.4237L48.5163 25.7213L48.6663 26.3198L48.9157 26.519L49.0153 26.9184H49.1641L49.2637 27.0672H49.3129L49.5624 27.4162L49.9607 27.216C50.1106 27.1175 50.1598 26.9665 50.1598 26.7696L50.0603 26.2214L49.8611 26.1229V26.519L49.662 26.4686V25.9719C49.662 25.9238 49.6127 25.8734 49.4628 25.8734L49.5624 25.6228L49.1641 25.4237L49.4136 24.9739V24.7245L49.5635 24.6763V24.0275L49.6631 23.929L49.7123 23.8272V23.7768L49.8119 22.9814H49.9607L50.0603 23.081L49.9115 23.778V23.8283L49.8622 24.5253L50.1117 24.7256L50.0614 24.7759L50.1609 24.8263L50.2102 24.8766C50.3097 24.8766 50.4093 24.8263 50.51 24.7256L50.6096 24.626L50.7092 24.2769L50.6599 24.0778L50.5604 23.8775L50.3109 23.3808L50.2113 23.081L50.1117 22.8315L49.9126 22.7319L49.813 22.582L49.8622 22.4332L49.9115 22.3828L49.8622 22.2329L49.813 22.1334L49.8622 21.6858L49.7123 21.6366L49.5635 21.9353C49.4639 21.9353 49.4136 21.9353 49.4639 21.8861H49.4147L49.6139 21.1891L49.5602 20.9844H49.4102C49.4102 20.9351 49.361 20.8848 49.2614 20.8848V20.3869H49.2111L49.1619 20.2874L48.9627 20.3366L48.9135 20.9844L48.7144 20.9351C48.7636 20.5861 48.7636 20.3869 48.7636 20.2874C48.7144 20.0871 48.5644 20.0379 48.315 20.0871L48.1662 20.237L48.0666 20.3869H47.7679L47.8171 20.1375C47.8663 20.0871 48.0162 20.0379 48.1662 19.9875L48.664 19.888L48.7636 19.7381C48.8128 19.7884 48.8128 19.6888 48.7636 19.5389C48.7144 19.4886 48.664 19.4886 48.5645 19.4393L48.315 19.389C48.3643 19.2706 48.3896 19.1436 48.3896 19.0153C48.3896 18.8871 48.3643 18.7601 48.315 18.6416L47.2689 18.7412L46.6211 19.0903L46.422 19.0411L46.3224 18.9415V18.8419L46.9198 18.692L46.9691 18.5924L47.7164 18.2937H48.1147L48.4638 18.1941C48.315 17.9446 48.2154 17.6459 48.165 17.2477C48.1147 16.8494 48.1147 16.5014 48.2143 16.2016L47.816 16.3012L47.7668 16.7498H47.5173L47.3181 16.6502L47.1179 16.601V16.5014L47.5162 16.1524H47.7153L47.8149 15.9029L48.3127 15.7541C48.711 15.5549 48.7614 15.2059 48.5622 14.5581L48.4134 14.4093L48.3138 14.2594H48.0151L47.9659 14.4093L47.6168 14.4585L47.468 14.6577H47.2689L47.468 14.1598H47.7175L48.0666 13.9103L47.8674 13.6608L47.3204 13.5109L46.573 13.0131C46.3018 12.8507 45.9918 12.7645 45.6758 12.7636L45.4766 12.9135V13.3118H45.2752L45.226 12.9135C45.1757 12.8139 45.0761 12.7636 44.8769 12.7636L44.8266 12.9135H44.3791L44.2795 12.815L44.2303 12.6651L44.0804 12.6159H43.9316L44.0312 12.1673L44.2806 11.9681V11.7186H44.2314C43.9327 11.7186 43.8331 11.7186 43.9327 11.7679L43.4841 12.0174L43.3353 11.9681L43.2357 11.9178L44.2337 11.4703V11.3204H43.6866V11.1716L43.7358 11.0228L43.4371 10.874L42.9392 10.8236L42.042 11.2723V11.4211L41.892 11.5206L41.7925 11.7198V12.5163L41.892 13.1641L41.5933 13.1149L41.3897 13.3129ZM41.4904 13.662L41.7891 13.3633C41.8383 13.3633 41.8887 13.4125 41.8887 13.512L42.1885 13.4628L42.3373 13.3633L42.4369 13.512L42.8352 13.7615L43.1339 14.1106L43.5814 14.0614L43.6821 13.6631H43.8812C43.8812 14.1106 43.9305 14.3601 44.0804 14.51L44.3299 14.7091L44.4798 15.1578H44.5794L44.9776 14.4104L45.2764 14.3109L45.3256 14.1621V13.9126L45.5247 13.8633C45.6243 13.9126 45.6243 14.0625 45.5739 14.3109L45.424 14.7595L45.0269 14.7103C44.9776 14.9597 44.8277 15.2585 44.6286 15.6567L44.2303 15.4073C44.2795 15.358 44.2303 15.3077 43.9808 15.3077L43.9316 15.5572L43.8309 15.7037L43.4818 15.6545L43.0835 16.2027H42.7848L42.5353 16.0036L42.4358 15.8537L42.6841 15.5549L42.7837 15.0571L42.5846 15.2059L42.4358 15.3055C42.3362 15.5046 42.2859 15.6042 42.3362 15.6545L42.287 15.8537H42.0878L41.939 15.6042L41.8395 15.3055L41.4904 15.0067V14.9072H41.3405L41.2409 14.4093C41.1917 14.1598 41.1917 14.011 41.2409 13.8611L41.3405 13.7615L41.4904 13.662ZM43.3834 11.5698C43.3834 11.6202 43.3342 11.6202 43.2335 11.5698L43.1842 11.4703C43.2838 11.4703 43.333 11.5195 43.3834 11.5698ZM44.8769 13.8611L44.8266 13.8119H44.7774L44.8266 13.6116C44.9765 13.6116 44.9765 13.662 44.8769 13.8611ZM42.7848 12.8643C42.7345 12.815 42.7345 12.7647 42.7848 12.6148C43.0343 12.5656 43.0835 12.664 42.9336 12.8643H42.7848ZM42.1874 12.6651L42.287 12.5163C42.3865 12.5163 42.4369 12.5656 42.3865 12.7647L42.287 13.0645H42.1874L42.0375 12.8654L42.1874 12.6651ZM46.4209 14.8076L46.4712 14.5581L47.2678 14.708L47.317 15.1063L46.8695 15.2562V15.0571L46.4209 14.8076ZM45.6735 15.7541L45.9734 15.8033C46.1222 15.8033 46.1222 15.8525 46.0226 15.9029L45.8234 16.102H45.6735V15.7541ZM48.4638 29.1022L48.664 29.2029V29.3036L48.5645 29.8015L48.2154 30.2479C48.0162 30.3463 48.0162 30.1975 48.1158 29.8015L48.4638 29.1022ZM49.709 29.2533L49.6094 29.3036L49.3599 29.5542V29.9503L49.0612 30.0006L49.1608 30.2009L49.2603 30.3016L49.3599 30.8968L49.4595 30.9482V31.1474L49.2603 32.0435L49.0108 32.293V32.5928L48.9616 32.6443L48.9124 32.6946L48.8128 32.5928L48.862 32.4944L48.8128 32.293L49.012 31.6967C49.1115 31.1496 49.012 30.6014 48.7132 30.0028L49.2614 29.505L49.4102 29.2052L49.6094 29.006H49.6586V29.0564C49.6586 29.0038 49.709 29.0541 49.709 29.2533ZM46.7207 16.601L46.9198 16.6502L46.7207 16.7498V16.601ZM46.7699 17.5967L46.9198 17.6459L47.5173 17.4971L47.5676 17.3483C48.0151 17.298 47.9659 17.4971 47.468 17.9458H46.9198L46.8706 17.7959L46.7218 17.8451L46.6715 17.9446H46.3716L46.4209 17.7455L46.62 17.5464L46.7699 17.5967ZM46.1222 16.7509L46.3716 16.8001L46.5708 16.6513L46.62 16.8505L46.4209 16.8997L46.3716 17.0485L46.3224 17.1481H46.1233L45.8246 16.601L46.1222 16.7509ZM45.1757 16.8001L45.226 16.5507L45.0269 16.4019L44.8277 16.3023V16.1031L45.0269 16.1524L45.1757 15.9532L45.4252 16.0036C45.3256 16.4018 45.3759 16.7509 45.5247 17.0989H45.7239V17.298L45.226 17.3976L45.0761 17.6963L44.7774 17.7455V17.9446L44.8769 17.9939L45.2752 18.2937L45.8234 18.3933L45.923 18.5924L45.6735 18.7423H45.4744L45.2752 19.1406C45.226 19.2905 45.2752 19.4405 45.3245 19.4405H45.5739L45.7239 19.3409L45.8234 19.191L45.923 19.0914C46.0729 19.0914 46.1222 19.1406 46.1222 19.191C46.1714 19.2402 46.1222 19.2905 46.0226 19.3901L45.5739 19.6396V20.1386L45.4744 20.2381L45.424 20.6868L45.2249 20.736L45.0257 20.5369V20.2381L44.7763 19.7403L44.4775 18.3955H44.1285L43.8298 17.0004H43.9786L44.0278 17.1L44.077 17.2488L44.3265 17.4983L44.8244 17.3495C45.0235 17.2991 45.1242 17.1995 45.1734 17.0496V16.8001H45.1757ZM44.3791 16.4019L44.5782 16.5507L44.529 16.7509H44.3287L44.3791 16.4019ZM42.2366 16.1524C42.3865 16.3012 42.3362 16.4019 42.1874 16.4019L41.7388 16.3023L41.788 16.1031L42.2366 16.1524ZM42.5365 17.3976V17.7466L42.4369 17.9458H42.2366L42.0878 17.7466C42.0386 17.7959 41.9883 17.7466 42.0386 17.6974L41.9894 17.4983L42.2377 17.2488L42.5365 17.3976ZM43.1831 17.5967C43.1831 17.6459 43.1831 17.6963 43.1339 17.6963L43.0847 17.4971L43.1831 17.5967ZM42.8844 18.6428C42.9336 18.5935 42.9336 18.6428 42.9336 18.692C42.984 18.6428 42.984 18.6428 42.9336 18.7916C42.9336 18.8911 42.8844 18.9907 42.7848 18.9907C42.5857 19.1406 42.5857 18.9918 42.8844 18.6428ZM42.0878 19.5893L42.287 19.3398C42.5365 19.2402 42.4861 19.3398 42.2366 19.7884C42.0878 19.7884 42.0375 19.7392 42.0878 19.5893ZM43.333 19.191V18.9918C43.5322 18.6428 43.6317 18.3944 43.6821 18.1953H43.8812L43.7313 18.7435L43.6317 18.843V19.0925L43.1831 19.7403C42.984 19.4908 42.984 19.3912 43.1339 19.4416L43.333 19.191ZM42.7848 19.9875L42.6853 20.1375C42.5365 20.1867 42.4861 20.1867 42.4861 20.0871L42.5857 19.888C42.7345 19.8387 42.7848 19.888 42.7848 19.9875ZM45.0269 21.7306V21.6814L45.0761 21.6322L45.3256 21.8313V22.13C45.1757 22.13 45.1264 22.13 45.226 22.0808L45.0269 21.7306ZM45.4755 21.1343L45.725 21.4833V21.8324L45.8246 21.8816L45.9241 21.9812V22.3795L46.3728 22.629C46.3235 22.629 46.3728 22.6793 46.5719 22.7778C46.6715 22.5786 46.6211 22.5294 46.4723 22.5786L46.422 22.3795V22.1803L46.5719 22.0808C46.4723 21.9812 46.5216 21.9812 46.6715 22.0808L46.771 22.5786L47.8663 23.9749V24.174L47.7175 24.2221L47.5687 24.023L47.3696 23.9749C47.27 23.9749 47.2197 23.9749 47.1704 23.9245V23.524H47.1201L46.7229 23.0765L46.2251 22.8773C46.0609 22.8013 45.9095 22.7002 45.7764 22.5775L45.7272 22.328L45.6769 22.0797L45.5281 21.9801V21.6814L45.2786 21.3815V21.1332L45.4755 21.1343ZM45.6735 23.0754V22.8259H45.8234L46.1725 23.2734V23.9223C46.1725 24.2702 46.1233 24.4201 46.0237 24.4683H45.8234V24.1729L45.9734 24.1226C46.0268 23.9947 46.0501 23.8562 46.0414 23.7178C46.0327 23.5795 45.9921 23.445 45.923 23.3249L45.6735 23.0754ZM41.7388 18.692C41.6895 18.7423 41.6895 18.692 41.6895 18.5432L41.7891 18.2937H41.8383V18.4929C41.8383 18.5935 41.7891 18.6428 41.7388 18.692ZM41.2409 18.6428L41.3405 18.692L41.4904 19.5893H41.7399V19.7884L41.3908 19.8376L41.3416 19.7381L41.242 19.5893L41.0932 18.5924C41.1413 18.5935 41.1917 18.6428 41.2409 18.6428ZM40.5931 18.5935V18.4447C40.6424 18.4447 40.6927 18.4447 40.6927 18.494C40.6927 18.5432 40.6435 18.5935 40.5931 18.5935ZM40.8426 18.0453V18.1953H40.6435L40.6927 17.995C40.7934 17.995 40.8426 17.995 40.8426 18.0453ZM40.9914 19.2402V19.4405L41.2409 19.7895V20.0379L40.9422 20.237L40.6927 20.4865V20.5861C40.6927 20.6364 40.6927 20.6857 40.6435 20.736H40.3951C40.7442 20.2885 40.893 19.6899 40.8426 18.9426L40.9914 18.9918V19.2402ZM46.9198 24.2714L46.6704 24.4716V24.673L46.5708 24.7211L46.4712 24.9706C46.4209 25.1216 46.2217 25.2201 45.923 25.37L45.8234 25.4684H45.6243L45.5751 25.37L45.725 25.219L45.8246 25.1205H46.0237C46.2721 24.9202 46.5216 24.522 46.8203 23.825H46.9198V24.2714ZM45.3759 26.0636L45.1757 26.3142C44.877 26.2639 44.8266 26.2135 44.9765 26.1151L45.226 25.8141C45.3759 25.8678 45.4755 25.9641 45.3759 26.0636ZM46.9691 26.2136L47.1682 25.9629L47.3181 26.0133L47.2689 26.7103C47.2689 27.0112 47.2186 27.2585 47.1693 27.3592H47.0698L46.7207 27.7082H46.4712L46.5708 27.508L46.7207 27.4073L46.9198 26.9609L46.9691 26.2136ZM43.4818 24.9202V25.069L43.7313 25.219V25.6172H43.5814L43.4818 25.3678L43.2323 24.8196H43.4315L43.4818 24.9202ZM44.8769 26.6152L44.7774 26.8647L44.6286 27.0638C44.4787 27.0638 44.4294 26.9631 44.529 26.8143L44.8277 26.5134C44.9262 26.463 44.9262 26.5134 44.8769 26.6152ZM44.4294 28.1088C44.3802 28.1569 44.3299 28.2072 44.2795 28.1569L44.2303 27.9566C44.3287 28.0092 44.4294 28.0092 44.4294 28.1088ZM44.4294 28.6066C44.4294 28.7051 44.3802 28.7051 44.2795 28.7051L44.2303 28.4556H44.3802L44.4294 28.6066ZM44.3791 27.6098H44.2292L44.2784 27.2607C44.4787 27.3625 44.529 27.508 44.3791 27.6098ZM48.1147 28.4052V28.6066L47.8652 28.855V29.6023L47.6157 30.1494H47.4669C47.4669 29.8015 47.4669 29.6023 47.5162 29.6023L47.6157 29.5039L47.7153 29.4535V28.657L47.8641 28.3594L48.1147 28.4052ZM46.1725 28.4556C46.0729 28.902 46.0237 29.1526 45.9734 29.2533C45.7742 29.1022 45.7239 29.0541 45.7742 29.0541L45.923 28.4556H46.1725ZM45.5247 29.7511L45.3256 29.599V29.3495L45.5751 29.4502L45.725 29.5509L45.7742 29.8015V30.051H45.8234L46.0226 30.4985L46.3213 30.9449L46.62 31.0937C46.5708 30.5488 46.7196 30.2479 47.1179 30.1975L47.2678 30.2479C47.3674 30.2982 47.3674 30.2982 47.317 30.2982L47.2174 30.3967L47.1682 30.4985L46.9187 30.5969C46.8486 30.6805 46.8129 30.7878 46.8191 30.8968L46.9187 31.445L46.6692 31.3946L46.4197 31.3443L46.3202 31.144H46.121V30.9449L45.5728 30.447V30.1472L45.5247 29.7511ZM47.5676 30.4985L47.7668 30.5969L47.6168 31.3443C47.7164 31.3946 47.6168 31.3946 47.468 31.445V30.6473C47.5173 30.5969 47.5676 30.5488 47.5676 30.4985Z" fill="#999999"/>
<path d="M43.8812 14.5098L43.7313 14.559V14.9584L43.8812 15.0569L44.2292 15.0076L43.8812 14.5098ZM56.284 23.5249H56.0849C55.5367 23.1277 55.1384 22.9286 54.7401 22.9778C54.541 22.9778 54.4403 23.0282 54.3911 23.0774V23.1781L54.3407 23.3269H54.4403V23.5764H54.2411C54.1416 23.4779 54.1416 23.4276 54.2411 23.4779V23.3269L53.9917 23.2765C53.9424 23.2284 53.8921 23.2765 53.8429 23.4779L54.2411 23.8259H54.4403L54.4906 23.7252L54.6406 23.6267L54.7401 23.7755L54.9896 23.8259V23.978L55.587 24.1268L55.8365 24.3774C56.086 24.3774 56.2348 24.3271 56.284 24.1268V23.5249ZM55.0388 23.1266L55.1384 23.2273L55.5367 23.5249L55.7358 23.6256H55.7851L55.8846 23.7252H55.9339L55.9831 23.9266H55.8835L55.8343 23.8762L55.7347 23.8259L55.3364 23.5753H54.9381L54.7894 23.3761V23.1266H55.0388ZM50.5067 22.7776L50.3567 22.8783L50.5559 23.0282C50.7058 23.2284 50.755 23.5753 50.8054 24.0239V24.2734C50.8054 24.5732 50.7561 24.8719 50.7058 25.1214L50.9553 25.0207C51.0045 25.0207 51.1052 24.9704 51.1052 24.9223C51.1544 24.8719 51.2048 24.6728 51.1544 24.3237L51.1041 23.6267L50.9542 23.5249L50.8546 23.2273L50.5067 22.7776Z" fill="#999999"/>
<path d="M51.0045 22.7754V23.026L51.3032 23.6234C51.4531 23.874 51.5023 24.0709 51.5023 24.2701C51.5023 24.5207 51.4531 24.7679 51.3032 25.0174L50.8546 25.4168L50.9541 25.7144L51.1041 25.965L51.0537 26.1161V26.3152L51.2036 26.464L51.1041 26.812L50.8546 27.0111V27.4083L51.0537 27.4586L51.2036 27.9554L51.4531 28.1556V28.4051L51.5527 28.4554L51.7026 28.9533H51.9521C52.0013 28.9533 52.0013 28.9533 51.9521 28.9533L52.1512 27.7081L52.3012 27.6578C52.3012 28.2563 52.3012 28.6546 52.2016 28.8526L52.1512 29.1021L51.9017 29.3035V29.5026H52.1512V29.3516C52.3011 29.3516 52.3504 29.4523 52.3012 29.6011L52.2508 30.1996C52.3012 30.3003 52.5003 30.5006 52.8494 30.7478V30.8966C52.8001 30.8463 52.7498 30.8463 52.8001 30.947L52.7498 30.9973L52.8001 31.1472H52.8997L53.0988 31.5433C53.1995 31.8431 53.1492 32.492 53.0496 33.387L52.8997 33.4374L52.8505 34.1344C52.8505 34.4342 52.8505 34.6826 52.8997 34.8314C52.8997 34.8817 52.9993 34.9802 53.0988 34.9802L53.3987 35.0809V35.3304L52.9008 35.5306V36.4771C52.9008 36.8262 52.8516 37.126 52.8012 37.3766L52.5518 37.6742C52.4942 37.873 52.5117 38.086 52.601 38.2727L52.7006 38.7191L52.6502 38.9194L52.601 39.0201L52.6502 39.4665H52.8494L52.8986 39.6164H53.1984L53.3976 39.4161L53.0977 38.9698V38.7191L53.1481 38.6207V38.4697L53.1984 37.9214L53.3472 37.8733V36.7277L53.496 36.6281V35.9804L53.5956 35.9323L53.7455 34.6871L54.0453 34.3861V33.9901L53.5967 34.0885V33.839L53.3483 33.49V32.3443H53.3976L53.4971 32.2929L53.5475 32.3443L53.5967 32.445C53.5967 32.8914 53.5967 33.1924 53.647 33.3915L53.8462 33.4922C53.995 33.1924 54.0946 32.7448 54.1449 32.1463L54.2937 30.6516L54.4425 30.6013V30.0531L54.692 29.7532L54.9907 28.5584V28.508L54.9404 28.4073L55.1898 28.0583C55.2894 27.66 55.2402 27.2102 55.1406 26.662C54.9918 26.1675 54.8922 25.8162 54.7423 25.5668L54.1941 24.9201L54.0946 24.6203L53.4971 24.1727V23.9736L53.9458 24.0217V23.6245L53.6963 23.5227H53.3976C53.3976 23.5731 53.3483 23.6245 53.298 23.6245V23.7733H53.0955C52.8471 23.4746 52.648 23.2755 52.4981 23.177L51.5012 22.9768L51.0045 22.7754ZM52.2989 27.1107C52.2989 27.1588 52.2989 27.2606 52.1993 27.3613L52.0002 27.0603L52.0494 26.0624L52.2989 26.1138L52.3985 26.5602L52.8963 27.0581L52.8471 27.2572C52.9467 27.2572 52.9467 27.3076 52.8471 27.4564C52.648 27.4564 52.5976 27.406 52.648 27.406H52.5987L52.3996 26.9115L52.2989 27.1107ZM52.8471 28.0583C52.8963 28.1567 52.8471 28.1567 52.6983 28.0583L52.648 27.6108H52.7475L52.7979 27.5101L52.8975 27.6108L52.8471 28.0583ZM52.648 28.2037C52.6983 28.2037 52.7475 28.2541 52.7475 28.3055L52.7979 28.555H52.5484C52.5484 28.404 52.5484 28.3559 52.5976 28.3559L52.648 28.2037ZM53.3953 30.5957C53.7444 30.5957 53.694 30.7467 53.2957 31.0421H53.0463C53.0955 30.994 53.0463 30.9436 52.9467 30.9436L53.0463 30.6941H53.345L53.3953 30.5957ZM50.0569 25.1696V24.9671L49.8085 24.8183L49.7593 25.0174L49.7089 25.3665L49.8589 25.4168L49.9081 25.7144L49.9573 25.9628L50.2068 26.1138L50.3064 26.4137L50.3567 26.7594L50.4563 26.709H50.5066V26.313L50.3567 25.7648L50.1576 25.2166L50.0569 25.1696ZM48.2646 26.8108L48.9124 27.406H49.1607V27.1565L48.9124 27.0077L48.8128 26.9574L48.5633 26.4595L48.0151 25.6137C47.9659 25.6137 47.9155 25.7122 47.9155 25.8129C47.9155 25.9617 47.9648 26.012 48.0151 25.9617V26.3107L48.2646 26.5602V26.8108ZM50.755 25.616H50.6062C50.5559 25.5656 50.5066 25.7144 50.6062 26.012L50.755 26.6106C50.8042 26.6106 50.8546 26.5099 50.8042 26.2615L50.755 25.616Z" fill="#999999"/>
<path d="M50.8545 30.4476L50.755 30.5964L50.9541 31.7901L51.0537 31.8405L51.0045 32.0911L51.104 32.3406L51.2036 32.5912L51.5023 32.6919L51.9006 32.194V31.9445L52.0505 31.8438L52.2497 31.1972C52.2865 31.0635 52.2688 30.9206 52.2004 30.8L52.0505 30.5002L52.0013 29.8513H51.9017L51.603 30.1008L51.6522 30.0526L51.9017 30.4498L51.8021 30.649L51.4039 30.301H51.0056C50.9541 30.3458 50.9049 30.3961 50.8545 30.4476ZM50.2068 29.453C50.1012 29.7113 50.0177 29.9782 49.9573 30.2507C49.908 30.2507 49.8577 30.2507 49.8577 30.301V30.4498H50.2068C50.1575 30.2003 50.2571 29.952 50.4059 29.7025L50.2068 29.453ZM42.8843 26.0127L42.7848 25.7129L42.6852 25.8136V26.1145L42.5364 26.213C42.5364 26.3137 42.5856 26.4625 42.636 26.6113L42.7355 27.0084L42.4368 27.456C42.3865 27.5566 42.4368 27.805 42.5364 28.153C42.5856 28.4528 42.6852 28.6497 42.7355 28.6497C42.7859 28.7 42.7859 28.7 42.7355 28.7L42.6863 28.8018L42.8855 29.001L42.985 29.5973L43.3341 29.9956V30.1444L43.3833 30.2965L43.6328 30.4453V30.6445H43.5825L43.3833 30.5941H43.3341L43.135 30.2462V30.9432L42.9862 31.0416L42.8866 31.6402L42.787 32.5363L42.6874 32.6874L42.5386 33.6339L42.1896 34.2805C42.1404 34.3309 42.1896 34.4315 42.2388 34.5803L42.1896 35.528L42.2892 35.5783L42.2388 36.2753L42.9862 36.4263L43.2345 35.679V34.6307C43.135 34.6307 43.135 34.53 43.2345 34.3309L43.2849 34.1317L43.3341 33.9326L43.4829 33.8822V33.7323L44.0803 33.2837L44.2795 32.985H44.4786L45.1756 32.2857L45.2752 31.8393L45.424 31.7409L45.5235 31.5887V31.3896L45.3244 31.4399L45.2752 31.6905L45.076 31.789L44.8769 31.8393V31.6402L45.076 31.4903C45.226 31.3896 45.226 31.2408 45.1756 31.0416L44.7281 30.6445L44.6285 30.2473L44.1307 29.6991V29.4496L43.832 28.9518L43.5332 29.0032C43.4829 29.0032 43.3833 29.0032 43.3341 28.9518L43.1842 28.7023L43.135 28.4024L42.7367 28.153L42.6874 27.8542L42.9369 27.9023L43.0868 27.7032C42.9873 27.7032 42.9369 27.7032 42.9369 27.6529V27.5029L43.2356 27.6529C43.3352 27.9527 43.3856 28.1999 43.4348 28.3018L43.5836 28.4506C43.6843 28.5009 43.6843 28.5009 43.6843 28.4002V28.0511L43.5836 27.9505L43.4348 27.0543L43.3352 27.004L42.8843 26.0127ZM43.9807 29.7506C43.7816 29.7506 43.682 29.6991 43.832 29.5984L43.7324 29.5V29.3008L43.9819 29.4496V29.7506H43.9807ZM44.3287 31.9423L44.2795 31.5429H44.5289L44.5782 32.0407L44.379 32.2421H44.2795V32.0407C44.2795 32.1414 44.2795 32.0911 44.3287 31.9423ZM42.6852 33.8867L42.985 34.0858V34.3353L42.5867 34.1865L42.6852 33.8867ZM42.7848 35.0301L42.9839 35.1811C43.0331 35.3598 43.0331 35.5484 42.9839 35.7271L42.7848 36.0762L42.5353 36.0258C42.6852 35.7774 42.7848 35.4284 42.7848 35.0301ZM42.2366 36.725L42.3361 36.8761L42.5353 37.8226C42.5845 38.1224 42.6349 38.2701 42.7344 38.3204V38.3685L42.6852 38.4692L42.7848 38.5699L42.8843 39.6149L43.3822 39.4661C43.5813 39.9639 43.7805 40.2134 43.9796 40.2638H44.3779L44.4775 40.5636H44.5771L44.727 40.7638L44.9261 40.8142L45.226 40.8623C45.3255 40.4662 45.3255 40.1653 45.2752 39.9662L45.1756 39.9158C45.2752 39.8643 45.2259 39.8162 45.1264 39.8162C44.9261 39.8162 44.9261 39.8162 45.0268 39.8643L44.8277 39.9662L44.7281 40.1653C44.7773 40.1653 44.7281 40.2156 44.4786 40.266L44.5289 40.115L44.6285 39.9158L44.8277 39.8643V39.5668L44.7784 39.3654H44.5301V39.4157L44.1318 39.6149L43.9326 39.2669L43.6843 39.0678L43.6339 38.6684L43.3352 38.5196V38.3204L43.1853 38.1683L43.0857 36.8761L42.2892 36.6255C42.2366 36.6255 42.2366 36.6736 42.2366 36.725ZM48.0151 41.0603V41.2595L48.5129 41.4586V41.6578L47.8652 41.509L47.9155 41.6578L47.8159 41.7081L47.7667 42.4554L48.9123 41.7081C48.8746 41.3872 48.808 41.0705 48.7132 40.7616L49.1607 40.3622C49.2099 40.2638 49.2099 40.0646 49.1607 39.8643V39.3676L49.2603 39.2692L49.2099 39.0689L49.3598 39.0186L49.4091 38.7187L48.9112 38.3216L48.5129 39.4661H48.4134L48.3138 39.9136H48.2646L48.3138 40.2134L48.4134 40.3622C48.4134 40.5647 48.363 40.7113 48.2634 40.812L48.0151 41.0603ZM50.1575 36.8727L49.9573 36.9712V37.3225L50.2068 37.4209V37.6682L50.4059 37.77L50.4562 37.2218L50.1575 36.8727ZM49.8085 37.5227V37.6234L49.8577 37.921V38.0217L49.6082 38.6684L49.9573 38.5699L50.0568 38.4189L50.2068 38.2701V38.1202L50.1575 37.9188L50.058 37.8707L50.0087 37.77V37.6201C50.0087 37.5697 49.9595 37.5194 49.8599 37.5194H49.8085V37.5227ZM53.1961 40.1105V39.7614L52.5976 39.6607C52.4488 40.0601 52.4488 40.2593 52.5484 40.3096C52.5976 40.3611 52.8471 40.3119 53.1961 40.1105Z" fill="#999999"/>
</svg>
