<svg width="95" height="45" viewBox="0 0 95 45" fill="none" xmlns="http://www.w3.org/2000/svg">
<rect width="95" height="45" fill="white"/>
<path d="M36.5128 32.4747L40.7856 13.6593L46.0514 13.6599L43.7559 23.6673L48.0091 18.6494H53.8968L48.6135 24.9226L50.7916 32.4749H45.5378L43.3664 25.3194L41.6466 32.4749H36.5128V32.4747ZM17.4993 23.0172L21.2094 32.4745H26.256L30.6049 13.6591L25.4073 13.6597L23.2072 23.2305L19.5662 13.6537H14.2965L10 32.4747H15.2996C15.9012 29.4591 16.7064 26.2741 17.4993 23.0172ZM33.9912 32.4747L37.1437 18.6569H31.9716L28.8197 32.4747H33.9912ZM32.2367 15.6297C32.2367 16.0634 32.3409 17.5964 35.1715 17.5964C37.5228 17.5964 38.4294 16.1239 38.4294 15.0245C38.4294 14.2844 37.8104 13 35.4934 13C33.3592 13.0002 32.2367 14.3948 32.2367 15.6297ZM81.9824 18.4705C79.771 17.8269 77.0307 18.8947 75.6781 20.7243C75.8094 20.1573 75.9499 19.4978 76.1088 18.7383H70.8604L67.7891 32.4747H73.0121L74.7544 24.6837C75.0747 23.2498 76.2544 22.6371 77.2991 22.901C77.7496 23.0201 78.3692 23.3529 78.1641 24.5476L76.3913 32.4745H81.5527L83.9186 21.8952C84.4199 19.5637 82.4606 18.6105 81.9824 18.4705ZM64.4202 31.2286C66.6875 29.4166 67.8089 26.3528 67.7729 23.4702C67.7345 20.6996 65.3336 18.0715 61.1567 18.0715C53.1945 18.0715 52.0364 24.1369 51.8063 25.244C51.2233 28.0444 51.8718 31.6793 55.6119 32.6426C58.0796 33.2792 61.9386 33.2102 64.4202 31.2286ZM58.5792 23.22C58.9534 22.2121 59.9725 21.989 60.433 21.9846C61.5743 21.9751 61.8867 22.6365 61.7874 23.2597C61.5128 24.9872 60.9005 27.1794 60.6744 27.8781C60.6716 27.8874 60.6699 27.8963 60.6671 27.904C60.4184 28.6672 59.6827 29.1115 58.8166 29.1115C57.9398 29.1115 57.4098 28.5726 57.4853 27.8859C57.6139 26.7266 58.3649 23.796 58.5792 23.22Z" fill="#999999"/>
</svg>
