<svg width="95" height="45" viewBox="0 0 95 45" fill="none" xmlns="http://www.w3.org/2000/svg">
<rect width="95" height="45" fill="white"/>
<path d="M22.9191 29.0823C19.525 29.0823 16.7744 26.3302 16.7744 22.9355C16.7744 19.5406 19.525 16.7912 22.9191 16.7912C24.1154 16.7912 25.2323 17.1324 26.1758 17.7237L22.9191 22.9355L29.0502 19.3954C28.384 18.334 27.4286 17.4195 26.2734 16.7256C24.8034 15.8455 22.7585 15.3008 20.4973 15.3008C17.2718 15.3008 14.442 16.4729 12.864 18.2282C11.6956 19.5257 11 21.1588 11 22.9354C11 24.7132 11.6956 26.3475 12.864 27.646C14.4461 29.4035 17.2337 30.5687 20.406 30.5687C23.5779 30.5687 26.3647 29.4026 27.9479 27.646C28.0345 27.5493 28.1185 27.4516 28.1979 27.3503L27.9588 26.4543C26.8465 28.042 25.0041 29.0823 22.9191 29.0823Z" fill="#999999"/>
<path d="M43.2459 30.1991L40.6727 20.5996C40.2593 19.0484 38.8467 17.9082 37.165 17.9082C36.7288 17.9082 36.3109 17.9861 35.9231 18.1272L30.3833 20.1416H36.081L37.0546 23.7778C36.1102 22.9649 34.8801 22.4703 33.5333 22.4703C30.8587 22.4703 28.6934 24.2626 28.6934 26.4734C28.6934 28.6844 30.8587 30.4793 33.5333 30.4793C35.4586 30.4793 37.1614 29.5366 38.2116 28.0885L38.7765 30.1991H43.2459ZM35.3966 28.7081C34.1629 28.7081 33.1628 27.7089 33.1628 26.4734C33.1628 25.2397 34.1629 24.2396 35.3966 24.2396C36.6303 24.2396 37.6313 25.2397 37.6313 26.4734C37.6313 27.7089 36.6303 28.7081 35.3966 28.7081Z" fill="#999999"/>
<path d="M53.7379 17.9102C53.4002 17.9102 53.0809 17.9848 52.7962 18.1185L49.2392 19.7761C49.0631 18.7173 48.1433 17.9102 47.0337 17.9102C46.6979 17.9102 46.3776 17.9848 46.0893 18.1185L41.7467 20.1419H44.7999V30.1995H49.2694V21.2609C49.2694 20.6441 49.7685 20.142 50.3872 20.142C51.0022 20.142 51.505 20.6441 51.505 21.2609V30.1995H55.9726V20.1419C55.9726 18.9085 54.9716 17.9102 53.7379 17.9102" fill="#999999"/>
<path d="M70.4959 24.2398C70.4959 27.7357 67.6626 30.569 64.1677 30.569C60.6701 30.569 57.835 27.7357 57.835 24.2398C57.835 20.7448 60.6701 17.9102 64.1677 17.9102C67.6626 17.9102 70.4959 20.7449 70.4959 24.2398ZM64.4296 19.8312C64.2307 19.0864 63.4651 18.6443 62.7205 18.8445C61.9768 19.0438 61.5324 19.8099 61.7322 20.5546L63.9031 28.6482C64.1038 29.3937 64.8676 29.8353 65.6122 29.6382C66.3568 29.4366 66.7994 28.671 66.5995 27.9264L64.4296 19.8312Z" fill="#999999"/>
<path d="M81.7662 17.9102C81.4276 17.9102 81.1064 17.9848 80.8172 18.1185L77.2639 19.7761C77.0887 18.7173 76.1689 17.9102 75.0593 17.9102C74.7235 17.9102 74.4032 17.9848 74.114 18.1185L69.7732 20.1419H72.8255V30.1995H77.294V21.2609C77.294 20.6441 77.7941 20.142 78.4127 20.142C79.0296 20.142 79.5287 20.6441 79.5287 21.2609V30.1995H84V20.1419C84 18.9085 82.9981 17.9102 81.7662 17.9102" fill="#999999"/>
</svg>
