<svg width="95" height="45" viewBox="0 0 95 45" fill="none" xmlns="http://www.w3.org/2000/svg">
<rect width="95" height="45" fill="white"/>
<path d="M24.5595 21.1335C24.5595 22.0535 23.9895 22.737 22.8496 23.1856C21.9643 23.535 20.8847 23.7115 19.61 23.7115H14.3848C13.0147 23.7115 11.8641 23.5522 10.9292 23.2373C9.64427 22.8054 9 22.1159 9 21.1674V16.0945C9 15.1832 9.65503 14.5102 10.9685 14.0735C12.0056 13.7469 13.149 13.582 14.4024 13.582H16.4771C17.0365 13.582 17.3161 13.8317 17.3161 14.3316C17.3161 14.8338 17.0365 15.0865 16.4771 15.0865H15.8434C15.7831 15.0865 15.748 15.0844 15.7406 15.0781C15.5815 15.0729 15.4396 15.0704 15.3159 15.0675C15.1918 15.0645 15.0893 15.0616 15.0151 15.0616C12.5404 15.0616 11.301 15.4047 11.301 16.0911V21.1594C11.301 21.8465 12.3383 22.1905 14.413 22.1905H19.6137C20.1093 22.1905 20.6404 22.1166 21.1998 21.9659C21.9044 21.7764 22.2581 21.5233 22.2581 21.1997V20.1219H19.0245C18.598 20.1219 18.2488 19.7569 18.2488 19.3105C18.2488 18.8635 18.598 18.4983 19.0245 18.4983H22.9127C23.1093 18.4781 23.3909 18.4804 23.7525 18.4804C24.2906 18.4804 24.5595 18.6964 24.5595 19.1306V21.1335Z" fill="#999999"/>
<path d="M38.1371 21.1824V18.1126C38.1371 17.4818 37.245 17.1575 35.4395 17.1575H31.871C31.2123 17.1575 30.6176 17.2258 30.0863 17.3622C29.3429 17.5675 28.9818 17.8574 28.9818 18.2489V21.1824C28.9818 21.5574 29.3642 21.8476 30.1077 22.018C30.6176 22.1371 31.2123 22.189 31.8921 22.189H35.4395C36.013 22.189 36.565 22.1206 37.075 22.0008C37.7761 21.8137 38.1371 21.5406 38.1371 21.1824ZM40.3463 21.1824C40.3463 22.1036 39.7939 22.7685 38.6681 23.1783C37.8823 23.5026 36.8199 23.673 35.503 23.673H31.871C30.6601 23.673 29.5766 23.5026 28.5994 23.1783C27.3887 22.7516 26.7939 22.0864 26.7939 21.1824V18.2489C26.7939 17.3622 27.3887 16.6804 28.5784 16.2202C29.4704 15.8613 30.5535 15.6914 31.8496 15.6914H35.503C38.7319 15.6914 40.3463 16.5272 40.3463 18.2328V21.1824Z" fill="#999999"/>
<path d="M66.8243 16.5102C66.8243 16.9536 66.4843 17.1754 65.8472 17.1754C65.7621 17.1754 65.6348 17.1754 65.4648 17.1582H65.0608C63.3827 17.1582 62.5541 17.4825 62.5541 18.1648V23.0083C62.5541 23.3326 62.3848 23.5371 62.0874 23.6224C61.9593 23.6569 61.6411 23.6737 61.1314 23.6737C60.6213 23.6737 60.3666 23.4517 60.3666 23.0083V18.1648C60.3666 17.1071 61.0252 16.4078 62.3636 16.0331C63.1707 15.7936 64.3814 15.6914 65.9964 15.6914C66.5488 15.6918 66.8243 15.9644 66.8243 16.5102Z" fill="#999999"/>
<path d="M79.6795 21.1824V18.1126C79.6795 17.4818 78.7874 17.1575 76.9823 17.1575H73.4137C72.7547 17.1575 72.1603 17.2258 71.629 17.3622C70.8858 17.5675 70.5249 17.8574 70.5249 18.2489V21.1824C70.5249 21.5574 70.9073 21.8476 71.6502 22.018C72.1603 22.1371 72.7547 22.189 73.4334 22.189H76.9819C77.5552 22.189 78.1069 22.1206 78.617 22.0008C79.3183 21.8137 79.6795 21.5406 79.6795 21.1824ZM81.8885 21.1824C81.8885 22.1036 81.3361 22.7685 80.2108 23.1783C79.4248 23.5026 78.3623 23.673 77.0458 23.673H73.4137C72.2023 23.673 71.1193 23.5026 70.1425 23.1783C68.9311 22.7516 68.3367 22.0864 68.3367 21.1824V18.2489C68.3367 17.3622 68.9311 16.6804 70.1206 16.2202C71.0131 15.8613 72.0961 15.6914 73.3918 15.6914H77.045C80.2736 15.6914 81.8885 16.5272 81.8885 18.2328V21.1824Z" fill="#999999"/>
<path d="M56.0877 17.2547V15.8728C56.0877 15.2931 55.0869 14.986 53.0863 14.986H44.9332V18.4999H53.0863C55.0869 18.4999 56.0877 18.0732 56.0877 17.2547ZM58.3868 17.3227C58.3868 18.3291 57.7486 19.0623 56.4924 19.5237C55.5131 19.8474 54.3418 20.001 52.9589 20.001H44.9332V22.9697C44.9332 23.2933 44.7842 23.4978 44.4436 23.5832C44.3584 23.6176 44.0179 23.6348 43.4431 23.6348C42.9107 23.6348 42.6342 23.4131 42.6342 22.9697V14.1331C42.6342 13.7062 42.9107 13.4844 43.4431 13.4844H53.0651C54.3637 13.4844 55.4707 13.6379 56.3855 13.9113C57.7271 14.32 58.3868 14.9343 58.3868 15.7364V17.3227Z" fill="#999999"/>
<path d="M49.4492 26.166H40.6917V32.8623H49.4492V26.166Z" fill="#999999"/>
<path d="M60.0129 26.166H51.255V32.8623H60.0129V26.166Z" fill="#999999"/>
<path d="M70.6451 26.166H61.8879V32.862H70.6451V26.166Z" fill="#999999"/>
<path d="M81.5025 26.166H72.7446V32.8623H81.5025V26.166Z" fill="#999999"/>
<path d="M83.0666 22.7734C83.5817 22.7734 84 23.191 84 23.7068C84 24.222 83.5817 24.6402 83.0666 24.6402C82.5518 24.6402 82.1332 24.222 82.1332 23.7068C82.1332 23.191 82.5518 22.7734 83.0666 22.7734Z" fill="#999999"/>
<path d="M83.0665 22.9102C83.5049 22.9102 83.8622 23.2667 83.8622 23.7058C83.8622 24.1449 83.5049 24.5007 83.0665 24.5007C82.6278 24.5007 82.2716 24.1449 82.2716 23.7058C82.2716 23.2667 82.6278 22.9102 83.0665 22.9102Z" fill="white"/>
<path d="M82.7495 24.0954V23.2129H83.1427C83.222 23.2129 83.2819 23.2201 83.322 23.2362C83.3636 23.252 83.3959 23.28 83.4218 23.3205C83.4462 23.3596 83.4583 23.4044 83.4583 23.4529C83.4583 23.5157 83.4383 23.5684 83.3974 23.6118C83.3572 23.6548 83.2933 23.681 83.2083 23.6936C83.2399 23.7079 83.2632 23.723 83.279 23.7373C83.3138 23.7689 83.3461 23.8084 83.3769 23.855L83.5312 24.095H83.3837L83.2668 23.9106C83.2316 23.8579 83.2037 23.8173 83.1821 23.7901C83.1595 23.761 83.1391 23.7413 83.1219 23.7302C83.1046 23.7194 83.0874 23.7112 83.0688 23.7072C83.0555 23.7051 83.0336 23.7036 83.0028 23.7036H82.8672V24.095H82.7495V24.0954Z" fill="#999999"/>
<path d="M82.8665 23.5986H83.1194C83.1728 23.5986 83.2144 23.5936 83.2453 23.5821C83.2754 23.5714 83.2987 23.5534 83.3141 23.5298C83.3299 23.5054 83.3371 23.4785 83.3371 23.4498C83.3371 23.4085 83.3228 23.3737 83.2919 23.3475C83.2618 23.3203 83.2137 23.3066 83.1473 23.3066H82.8665V23.5986Z" fill="white"/>
</svg>
