<svg width="95" height="45" viewBox="0 0 95 45" fill="none" xmlns="http://www.w3.org/2000/svg">
<rect width="95" height="45" fill="white"/>
<path fill-rule="evenodd" clip-rule="evenodd" d="M75.8518 13.8613C75.5466 13.8613 75.2538 13.9826 75.038 14.1984C74.8222 14.4142 74.7009 14.707 74.7009 15.0122C74.7009 15.3174 74.8222 15.6101 75.038 15.826C75.2538 16.0418 75.5466 16.163 75.8518 16.163C76.003 16.1629 76.1527 16.1329 76.2923 16.0748C76.4319 16.0167 76.5587 15.9316 76.6654 15.8244C76.772 15.7172 76.8565 15.59 76.9139 15.4501C76.9713 15.3102 77.0005 15.1604 76.9999 15.0091C76.9998 14.7047 76.8788 14.4127 76.6635 14.1975C76.4482 13.9822 76.1562 13.8613 75.8518 13.8613ZM75.8518 16.0245C75.7186 16.0246 75.5866 15.9984 75.4636 15.9473C75.3406 15.8963 75.2288 15.8214 75.1348 15.7271C75.0407 15.6328 74.9662 15.5208 74.9156 15.3976C74.8649 15.2743 74.8391 15.1423 74.8396 15.0091C74.8398 14.8764 74.866 14.745 74.917 14.6224C74.9679 14.4999 75.0426 14.3886 75.1366 14.2949C75.2306 14.2011 75.3421 14.1269 75.4648 14.0763C75.5876 14.0258 75.719 13.9999 75.8518 14.0002C76.1194 14.0002 76.376 14.1065 76.5652 14.2957C76.7544 14.4849 76.8607 14.7415 76.8607 15.0091C76.8614 15.1421 76.8358 15.2739 76.7854 15.397C76.735 15.5201 76.6608 15.632 76.5671 15.7263C76.4734 15.8207 76.3619 15.8956 76.2392 15.9467C76.1164 15.9979 75.9848 16.0243 75.8518 16.0245Z" fill="#999999"/>
<path fill-rule="evenodd" clip-rule="evenodd" d="M76.4433 14.7062C76.4433 14.5978 76.3951 14.4833 76.2986 14.4291C76.2021 14.3721 76.0937 14.366 75.9846 14.366H75.4247V15.6523H75.5812V15.0587H75.8705L76.2377 15.6523H76.425L76.036 15.0587C76.2653 15.0526 76.4433 14.9593 76.4433 14.7062ZM75.8224 14.9352H75.5812V14.4805H75.9487C76.1084 14.4805 76.2832 14.5045 76.2832 14.7033C76.2835 14.9654 76.0026 14.9352 75.8224 14.9352ZM37.32 33.9893L29.8202 30.3272C29.6554 30.2419 29.5704 30.0238 29.5736 29.8811L29.5935 27.8594C29.5964 27.717 29.6246 27.5707 29.8116 27.4367C30.6133 26.9255 33.0963 25.5512 35.6613 21.8076C39.0774 16.8216 35.6613 12.6325 30.3221 13.773C25.5802 14.7858 20.7526 17.3533 18.6587 18.7494C16.7925 19.9934 17.0516 21.4966 17 22.8445C17.1036 23.4144 17.3111 23.3627 17.7777 22.7925C21.2506 19.5787 26.5381 17.1423 27.523 16.7276C28.5079 16.313 30.8407 14.9134 33.5882 15.5353C36.2273 16.1331 35.5859 19.7211 34.7803 21.2374C33.899 22.8961 31.385 25.3065 30.2445 25.9027C29.8113 26.1292 29.6487 25.9027 29.6487 25.5397L29.8302 17.7382C29.8302 17.2199 29.5967 16.9865 29.0784 17.168L28.2491 17.5826C27.6789 17.9197 27.7049 18.0493 27.6529 18.464L27.5272 27.4578C27.523 27.6519 27.4326 27.8077 27.3258 27.8536L24.6203 29.3753C23.9985 29.6864 24.1537 30.1531 24.6203 30.3086L26.7976 31.3451C27.3162 31.5523 27.4717 31.7078 27.4717 32.2261L27.3938 36.5807C29.3379 36.192 29.4671 35.2587 29.5191 34.6365V33.3146C29.5707 33.0035 29.7522 32.8999 30.0114 32.9519L36.3354 36.0101C36.9056 36.2696 37.2167 36.1653 37.6314 35.4402C38.0457 34.7151 38.0977 34.3524 37.32 33.9893ZM48.3718 23.0029C47.4931 23.5103 47.0864 24.4599 47.4328 25.0593C47.7785 25.659 48.824 25.7597 49.7034 25.2517C50.5828 24.744 50.9631 23.8204 50.6168 23.221C50.271 22.6216 49.2512 22.4949 48.3718 23.0029Z" fill="#999999"/>
<path fill-rule="evenodd" clip-rule="evenodd" d="M45.1291 23.6493C44.8902 23.9405 44.4294 24.8289 44.1702 25.3731C43.9111 25.9171 43.3669 27.1482 42.8226 27.1482C42.2473 27.1482 42.1745 25.723 42.1745 25.2044C42.1745 24.6859 41.8634 24.6083 41.7078 24.6342C41.5523 24.6602 41.1117 24.8154 40.9821 25.36C40.8525 25.9042 40.1527 28.263 39.375 28.263C38.8827 28.263 38.5197 26.8375 38.494 26.3968C38.4681 25.9565 38.2606 25.5935 37.8199 25.5935C37.5088 25.5935 37.1201 25.749 36.9646 25.9305C36.8091 26.112 36.7834 26.3968 35.9537 26.2156C35.202 26.1897 34.4762 26.5787 33.5953 28.0558C33.0648 28.9452 32.6338 30.6026 33.4397 31.2696C34.1915 31.8915 35.5131 30.777 35.9021 30.3104C36.2908 29.8441 36.6279 29.507 36.7834 29.2482C36.9386 28.9888 37.0945 29.0148 37.1721 29.2739C37.2497 29.5333 37.6904 30.5439 38.2609 30.5182C38.8311 30.4923 39.5569 30.0516 40.4122 28.5481C40.5677 28.237 40.8009 28.263 40.8528 28.5222C40.9048 28.7816 41.2415 29.6369 41.8118 29.6369C42.356 29.6369 42.9615 28.7723 43.2633 28.2633C43.4704 27.9135 43.7815 28.0821 43.7815 28.4189C43.7815 28.7556 43.626 36.7127 43.626 36.7127C43.626 37.0754 43.7684 37.179 44.0275 37.179H45.1551C45.3623 37.179 45.5438 36.9978 45.5438 36.7127L45.777 23.818C45.7773 23.5066 45.4274 23.2866 45.1291 23.6493ZM36.3171 28.7293C36.0836 29.1183 35.4618 30.1549 34.9175 29.9737C34.6324 29.8181 35.0125 28.7813 35.2026 28.4186C35.4877 27.8743 36.3235 27.0075 36.7058 27.2262C37.0688 27.4334 36.5502 28.3406 36.3171 28.7293ZM75.8086 20.7797C75.7053 20.8704 75.5366 21.026 75.1607 20.8573C74.5126 20.5981 74.4609 19.3801 74.1242 18.2653C73.8211 17.2641 73.0919 17.3269 72.8282 17.7859L72.0377 19.0559C71.895 19.315 71.5842 19.9112 71.2728 19.9112C70.9101 19.9112 71.0724 19.3926 71.0919 18.8743C71.1044 18.5245 70.8841 18.0841 70.5214 18.0841C70.1067 18.0841 69.6664 18.7188 69.3293 19.4449C69.0939 19.9526 68.4868 21.8941 67.7219 21.8941C67.2297 21.8941 67.1777 20.4686 67.152 20.0279C67.1264 19.5873 66.9705 19.043 66.5302 19.043C66.2319 19.043 66.0379 19.1983 65.8821 19.3798C65.7268 19.5613 65.7012 19.7165 65.1566 19.6389C64.4049 19.6129 63.1609 20.313 62.2796 21.7902C61.7491 22.6795 61.1106 24.5444 61.9168 25.2115C62.6686 25.8334 64.0159 24.3818 64.4049 23.9155C64.7933 23.4489 65.1303 23.1118 65.2862 22.853C65.4414 22.5936 65.5969 22.6196 65.6746 22.879C65.7522 23.1381 66.1931 24.149 66.7634 24.123C67.3339 24.097 67.7999 23.9675 68.6555 22.464C68.8107 22.1532 69.0959 22.1144 69.1478 22.3736C69.1998 22.6327 69.2517 23.3197 69.796 23.3197C70.7286 23.3197 71.7859 21.0494 72.0508 20.5202C72.284 20.0536 72.6595 20.1831 72.7894 20.533C72.9748 21.034 73.139 22.6455 74.1499 22.6455C75.1607 22.6455 75.8474 21.5699 76.0545 21.2328C76.2883 20.8964 76.1668 20.4663 75.8086 20.7797ZM64.8192 22.3348C64.5861 22.7235 64.0675 23.5788 63.5233 23.3973C63.2381 23.2417 63.5922 22.4903 63.7827 22.1273C64.0678 21.583 64.9033 20.7037 65.2862 20.9221C65.6486 21.1296 65.0524 21.9458 64.8192 22.3348ZM59.812 20.9763C59.812 20.9763 57.6091 19.3692 56.9869 18.6438C56.5691 18.1563 56.8574 17.7884 57.1165 17.5813C58.6713 16.5444 61.1077 14.9374 62.0669 12.4493C62.9909 10.0511 61.5483 7.96552 60.5115 7.62846C59.0908 7.16696 56.0793 8.09509 54.5759 10.8942C53.6025 12.7072 53.151 13.3046 53.0211 18.2291C52.9961 19.1617 52.9691 20.2248 52.9691 21.3913C52.9691 22.5577 52.8396 25.7195 52.7097 26.3154C52.2174 27.7149 53.6949 26.8856 54.3684 26.3417C55.0425 25.7971 54.9902 24.9809 54.9902 24.631C54.9902 24.1901 55.0165 16.4149 55.2497 14.6782C55.395 13.5981 55.5611 11.594 56.7009 9.85737C57.8416 8.12074 59.0077 8.82085 59.3191 9.10563C59.6299 9.39074 60.0709 10.1165 59.8371 11.594C59.475 13.8867 56.8304 16.3889 56.1563 17.1663C55.4828 17.9437 55.6384 18.6178 56.0274 19.162C56.3035 19.5491 56.9863 20.3025 57.6861 21.0022C58.3859 21.702 58.3079 22.3242 58.2047 22.7908C57.8413 24.1901 54.0573 27.9744 54.0573 27.9744C53.2536 28.8297 54.0829 30.2293 54.368 30.6956C54.6538 31.1622 55.0162 31.007 55.2494 30.618C56.1826 28.8817 60.1998 24.6827 60.1998 24.6827C61.3675 23.2052 60.8745 21.7796 59.812 20.9763Z" fill="#999999"/>
</svg>
