<svg width="95" height="45" viewBox="0 0 95 45" fill="none" xmlns="http://www.w3.org/2000/svg">
<rect width="95" height="45" fill="white"/>
<path d="M37.3709 31.5981C38.4371 30.7095 38.6212 29.6067 38.6212 28.6213V24.4685H32.8257V30.1027C32.8257 30.9077 32.1719 31.5615 31.3679 31.5615C30.562 31.5615 29.9636 30.9086 29.9636 30.1027V14.1414C29.9636 13.3364 30.562 12.6836 31.3679 12.6836C32.171 12.6836 32.8257 13.3355 32.8257 14.1414V19.8103H38.6146V13.9301C38.6136 10.6809 36.4908 8.00751 31.3181 8C26.0073 8 24 10.6865 24 13.9357V30.5987C24 33.8197 26.5568 36.2572 29.8255 36.2563H31.6215L37.3709 31.5981ZM60.2223 32.2519V13.9404H56.2237V8.54576H70.7011V13.9404H66.6799V36.2253H64.9657L60.2223 32.2519Z" fill="#999999"/>
<path d="M62.8174 36.2634L48.7176 24.4512L34.1077 36.2634H62.8174Z" fill="#999999"/>
<path d="M52.7425 8.57617H44.6645L39.9586 29.6897L48.7214 22.6184L57.8579 30.274L52.7425 8.57617ZM47.1584 21.2648L48.7214 13.2851L50.2721 21.2648H47.1584ZM75.0979 9.42534C75.5487 9.42534 75.9338 9.58502 76.2523 9.90534C76.5688 10.2238 76.7275 10.608 76.7275 11.0588C76.7275 11.5126 76.5688 11.8996 76.2523 12.2189C75.9348 12.5392 75.5506 12.6989 75.0979 12.6989C74.6451 12.6989 74.2591 12.5392 73.9435 12.2189C73.7901 12.0677 73.6691 11.8869 73.5877 11.6875C73.5063 11.4881 73.4663 11.2742 73.47 11.0588C73.47 10.6089 73.6288 10.2238 73.9453 9.90534C74.0943 9.7507 74.2735 9.6283 74.4718 9.54573C74.67 9.46316 74.8831 9.42219 75.0979 9.42534ZM76.9999 11.0551C76.9999 10.5328 76.8149 10.0876 76.4448 9.72029C76.0747 9.35301 75.6276 9.1689 75.1026 9.1689C74.8542 9.165 74.6078 9.2119 74.3782 9.30672C74.1487 9.40154 73.941 9.54228 73.7678 9.72029C73.5889 9.89297 73.4473 10.1005 73.3518 10.3301C73.2563 10.5597 73.209 10.8065 73.2127 11.0551C73.2127 11.5811 73.3958 12.0292 73.7622 12.3983C74.1313 12.7703 74.5775 12.9554 75.1026 12.9554C75.6276 12.9554 76.0747 12.7703 76.4448 12.3983C76.8149 12.0273 76.9999 11.5792 76.9999 11.0551ZM75.6051 10.6484C75.6051 10.8071 75.5327 10.9151 75.389 10.9715C75.2752 11.0071 75.156 11.0226 75.0368 11.0175H74.7033V10.2689H75.019C75.4294 10.2689 75.6051 10.3478 75.6051 10.6484ZM74.3361 10.0124V12.0893H74.7033V11.274H74.9936C75.189 11.274 75.3252 11.2956 75.4031 11.3407C75.5346 11.4177 75.5994 11.5755 75.5994 11.8141V11.9785L75.6079 12.0452C75.6089 12.0531 75.6105 12.0609 75.6126 12.0686L75.6182 12.0884H75.9592L75.946 12.063C75.9244 11.9005 75.9226 11.6497 75.9226 11.6497C75.921 11.5214 75.8734 11.398 75.7883 11.3019C75.7033 11.2059 75.5866 11.1436 75.4595 11.1265C75.8277 11.0654 75.9592 10.8992 75.9592 10.6145C75.9592 10.3525 75.8521 10.1768 75.6361 10.0866C75.5149 10.0359 75.3252 10.0115 75.0669 10.0115H74.3361V10.0124Z" fill="#999999"/>
</svg>
