<svg width="95" height="45" viewBox="0 0 95 45" fill="none" xmlns="http://www.w3.org/2000/svg">
<rect width="95" height="45" fill="white"/>
<path fill-rule="evenodd" clip-rule="evenodd" d="M68.4065 31.1436C67.5749 32.1837 65.5376 32.9256 65.5376 32.9256L50.382 38.3226V34.3424L61.5355 30.4025C62.8012 29.953 62.9956 29.3174 61.9668 28.9838C60.9399 28.6492 59.0805 28.7451 57.8138 29.1966L50.382 31.7916V27.6609L50.8104 27.5171C50.8104 27.5171 52.9579 26.7637 55.9776 26.432C58.9974 26.1022 62.6949 26.477 65.5976 27.5679C68.8687 28.5927 69.2371 30.1035 68.4065 31.1436ZM51.8247 24.3662V14.1876C51.8247 12.9922 51.6023 11.8917 50.471 11.5802C49.6046 11.305 49.067 12.1026 49.067 13.297V38.7866L42.1332 36.6048V6.21289C45.0814 6.75547 49.3764 8.03809 51.6855 8.80978C57.5576 10.8085 59.5485 13.2961 59.5485 18.9011C59.5485 24.3642 56.1469 26.4348 51.8247 24.3662ZM29.4104 33.9264C26.0523 32.9889 25.4934 31.0352 27.024 29.9098C28.4387 28.8707 30.8444 28.0885 30.8444 28.0885L40.7863 24.5838V28.5793L33.632 31.1177C32.3682 31.5673 32.1739 32.2038 33.2008 32.5374C34.2286 32.871 36.089 32.7761 37.3547 32.3255L40.7863 31.0908V34.6655C40.5687 34.7038 40.326 34.7422 40.1017 34.7796C36.6691 35.3356 33.0132 35.1036 29.4104 33.9264ZM66.198 35.5091C66.6322 35.5091 67.0393 35.6759 67.3458 35.9836C67.6523 36.2865 67.8215 36.6911 67.8215 37.1205C67.8215 37.5519 67.6523 37.9545 67.3458 38.2574C67.0393 38.5632 66.6322 38.73 66.198 38.73C65.7639 38.73 65.3578 38.5632 65.0503 38.2574C64.7438 37.9545 64.5755 37.5519 64.5755 37.1205C64.5755 36.2328 65.3027 35.5091 66.198 35.5091ZM64.8482 37.1205C64.8482 37.4781 64.9884 37.8146 65.2437 38.0657C65.498 38.3207 65.8383 38.4587 66.198 38.4587C66.9435 38.4587 67.5479 37.8586 67.5479 37.1205C67.5479 36.762 67.4086 36.4255 67.1524 36.1734C66.8981 35.9184 66.5577 35.7813 66.198 35.7813C65.8383 35.7813 65.498 35.9184 65.2437 36.1734C64.9884 36.4255 64.8482 36.762 64.8482 37.1205ZM66.6883 36.253C66.8662 36.3306 66.9561 36.4802 66.9561 36.693C66.9561 36.8023 66.9329 36.8943 66.8855 36.9662C66.8517 37.0179 66.8033 37.0601 66.7492 37.0965C66.7917 37.1215 66.8294 37.1512 66.8575 37.1857C66.8962 37.2355 66.9184 37.3151 66.9213 37.4234L66.93 37.6525C66.9329 37.7139 66.9368 37.7609 66.9465 37.7896C66.9561 37.8318 66.9745 37.8586 66.9977 37.8673L67.0219 37.8788V37.9047V37.944V37.9833H66.9822H66.6951H66.6718L66.6602 37.9632C66.6506 37.944 66.6438 37.9219 66.637 37.8932C66.6322 37.8673 66.6274 37.8222 66.6245 37.7532L66.6099 37.4685C66.6061 37.3698 66.5722 37.3084 66.5084 37.2758C66.4688 37.2576 66.403 37.249 66.3141 37.249H65.8219V37.944V37.9833H65.7813H65.5473H65.5077V37.944V36.2309V36.1916H65.5473H66.3469C66.4842 36.1916 66.5993 36.2118 66.6883 36.253L66.6883 36.253ZM65.8219 36.9748H66.3228C66.4233 36.9748 66.5036 36.9566 66.5606 36.9192C66.6129 36.8818 66.638 36.8138 66.638 36.715C66.638 36.6077 66.6022 36.5377 66.5268 36.5003C66.4852 36.4802 66.4272 36.4687 66.3537 36.4687H65.8219V36.9748Z" fill="#999999"/>
</svg>
