<svg width="95" height="45" viewBox="0 0 95 45" fill="none" xmlns="http://www.w3.org/2000/svg">
<rect width="95" height="45" fill="white"/>
<path d="M72.35 25.5447C71.7583 25.4016 71.6104 25.1154 71.5365 24.5429C71.3885 23.6127 71.3885 21.3228 71.5365 20.321C71.6104 19.8201 71.9062 19.5339 72.35 19.3908C72.8677 19.2477 77.601 19.1761 78.1187 19.3908C78.5625 19.5339 78.7104 19.8201 78.7844 20.2495C79.0062 21.1797 79.0062 23.5411 78.7844 24.4713C78.7104 24.9007 78.5625 25.1154 78.1187 25.33C77.675 25.6878 73.0156 25.6878 72.35 25.5447ZM79.6719 16.2422C78.2667 15.956 72.8677 15.8845 70.7229 16.2422C69.0958 16.5285 67.8385 17.6734 67.4688 19.1045C67.1729 20.7504 67.1729 24.3998 67.4688 25.9025C67.7646 27.2621 68.9479 28.4785 70.7229 28.7648C72.5719 29.1226 78.0448 29.051 79.7458 28.6932C81.7427 28.2639 82.5563 26.8327 82.7781 25.9025C83.074 24.4713 83.074 20.8219 82.7781 19.1045C82.4083 17.6018 81.0771 16.5285 79.6719 16.2422ZM61.1083 16.3138H65.176V28.6932H61.1083V16.3138ZM54.6 23.9704C55.2656 24.1136 55.4135 24.6144 55.4135 25.0438C55.4135 25.4731 55.3396 25.974 54.6 26.0456C53.7865 26.1887 51.05 26.1887 50.0146 26.0456C49.5708 25.974 49.0531 25.974 48.9052 25.1869V24.9722H44.8375C44.8375 25.0438 44.8375 25.2585 44.9115 25.5447C45.0594 27.1905 45.725 28.3354 47.6479 28.6932C49.201 28.9794 55.0437 29.051 56.8187 28.6932C58.8896 28.2639 59.4073 26.4749 59.4073 24.9007C59.4073 23.1117 58.7417 21.8953 57.1146 21.3944C56.6708 21.2513 55.6354 21.1797 55.1917 21.1797C54.8219 21.1797 50.4583 21.0366 49.4969 20.8935C48.9052 20.8219 48.7573 20.4641 48.7573 19.9632C48.7573 19.4623 48.8313 19.1045 49.5708 18.9614C50.4583 18.8183 53.9344 18.8183 54.3042 18.9614C54.7479 19.1045 54.8958 19.3908 54.8958 19.7486V20.0348H58.9635C58.9635 19.7486 58.8896 19.5339 58.8896 19.3192C58.6677 17.3872 57.5583 16.3138 55.5615 16.1707C53.5646 15.956 48.9792 16.0276 47.574 16.2422C46.2427 16.5285 44.9115 17.3156 44.9115 19.9632C44.9115 22.1099 45.9469 23.1833 47.7219 23.5411C48.2396 23.6126 49.7188 23.6842 49.9406 23.6842C50.4583 23.7558 54.3042 23.8989 54.6 23.9704ZM38.551 23.8989H34.0396L35.9625 18.9614H36.6281L38.551 23.8989ZM39.4385 26.4749L40.326 28.6932H44.6896L39.2167 16.2422H33.3L27.901 28.6932H32.2646L33.1521 26.4034L39.4385 26.4749H39.4385ZM16.2156 24.6144C16.2896 25.33 16.6594 25.4731 17.0292 25.5447C17.6208 25.6878 21.8365 25.6878 22.576 25.5447C23.0938 25.4731 23.4635 25.1154 23.5375 24.686C23.5375 24.4713 23.6115 24.1136 23.6115 23.9704H27.8271C27.8271 24.2567 27.8271 24.9722 27.7531 25.6163C27.5312 27.119 26.6438 28.3354 24.7208 28.7648C23.3896 29.051 16.9552 29.051 15.476 28.7648C13.9229 28.407 12.5917 27.4767 12.2219 25.9025C11.926 24.4713 11.926 20.7504 12.2219 19.1761C12.4438 18.0312 13.5531 16.6716 15.4021 16.3138C17.1031 16.0276 23.0938 15.956 24.7208 16.3138C26.8656 16.8147 27.5313 18.6752 27.6052 19.3192C27.6792 20.0348 27.6792 20.5357 27.6792 20.8219H23.4635C23.4635 20.5357 23.5375 19.7486 22.7979 19.5339C22.3542 19.3908 18.2125 19.3908 17.1771 19.4623C16.6594 19.5339 16.3635 19.7486 16.2896 20.2495C16.0677 21.2513 16.0677 23.6842 16.2156 24.6144Z" fill="#999999"/>
</svg>
