<svg width="95" height="45" viewBox="0 0 95 45" fill="none" xmlns="http://www.w3.org/2000/svg">
<rect width="95" height="45" fill="white"/>
<path d="M35.788 29.9998C32.9625 29.9998 30.3396 29.136 28.5889 27.534C27.2662 26.3236 26.6306 24.6796 26.6306 22.9875C26.6306 21.3161 27.2936 19.6607 28.5887 18.4568C30.2147 16.9461 33.0853 16 35.788 16C38.779 16 41.1729 16.768 43.0029 18.4609C44.3049 19.6655 44.9344 21.3135 44.9344 22.9877C44.9344 24.6105 44.2664 26.3386 43.0029 27.534C41.2988 29.1464 38.6208 29.9998 35.788 29.9998V28.1534C37.2877 28.1534 38.6789 27.6255 39.6505 26.64C40.6153 25.6611 41.0648 24.458 41.0648 22.9875C41.0648 21.5789 40.5799 20.2619 39.6505 19.3278C38.6919 18.3653 37.2675 17.8237 35.788 17.8237C34.304 17.8237 32.8787 18.3597 31.9194 19.3278C30.995 20.2616 30.5088 21.5824 30.5088 22.9875C30.5088 24.3884 31.0006 25.7084 31.9194 26.6401C32.8795 27.6138 34.2998 28.1535 35.788 28.1535V30V29.9998ZM15.1362 16.0067C13.6248 16.0067 11.9077 16.2949 10.4487 16.9592C9.10218 17.5717 8 18.5623 8 20.2046C7.99937 21.6836 8.92143 22.5499 8.89637 22.5259C9.28857 22.894 9.91993 23.5207 11.5706 23.8888C12.3083 24.0532 13.8856 24.3058 15.4562 24.4732C17.0153 24.6408 18.5496 24.8002 19.1745 24.9614C19.671 25.0903 20.5051 25.2658 20.5051 26.2197C20.5051 27.1698 19.6264 27.4597 19.4737 27.5226C19.3211 27.5841 18.267 28.0772 16.3722 28.0772C14.9732 28.0772 13.2913 27.6483 12.6783 27.4248C11.9716 27.1683 11.2303 26.8292 10.5388 25.968C10.3668 25.7546 10.0955 25.1674 10.0955 24.5861H8.3806V29.4849H10.2867V28.823C10.2867 28.7477 10.3792 28.4377 10.6991 28.5851C11.0973 28.7695 12.266 29.2439 13.488 29.504C14.49 29.7177 15.1361 29.8708 16.3817 29.8708C18.4141 29.8708 19.5059 29.5333 20.2607 29.3136C20.9718 29.106 21.8505 28.7333 22.5642 28.153C22.9508 27.8393 23.7984 27.035 23.7984 25.5751C23.7984 24.1738 23.0607 23.304 22.8012 23.0394C22.4477 22.6789 22.0159 22.3995 21.5659 22.1841C21.1739 21.996 20.5552 21.77 20.049 21.6437C19.0664 21.3978 16.8449 21.0944 15.7825 20.9811C14.6684 20.8624 12.7358 20.6992 11.9639 20.4557C11.7299 20.3818 11.2528 20.1501 11.2528 19.5855C11.2528 19.1839 11.471 18.8435 11.9022 18.5684C12.5867 18.1312 13.9692 17.8594 15.4103 17.8594C17.1141 17.853 18.5569 18.2501 19.4748 18.6685C19.7869 18.8106 20.1522 19.0147 20.4423 19.2561C20.7696 19.5282 21.2291 20.0936 21.3953 20.8822H22.935V16.6179H21.2158V17.1136C21.2158 17.2736 21.0537 17.4815 20.7472 17.3097C19.9779 16.8982 17.8026 16.0104 15.1359 16.0067H15.1362ZM52.8102 16.7816L61.1963 24.4971L61.1102 19.3024C61.1017 18.6212 60.9786 18.3368 60.2559 18.3368H58.6792V16.7829H65.8495V18.3368H64.3115C63.5744 18.3368 63.5279 18.5772 63.5189 19.3024L63.6489 29.2283H61.1933L51.5342 20.4398L51.5362 26.677C51.5447 27.355 51.5758 27.6743 52.2611 27.6743H53.9832V29.2277H46.9413V27.6745H48.5874C49.2023 27.6745 49.1779 27.0768 49.1779 26.6417V19.3615C49.1779 18.8916 49.1132 18.338 48.1478 18.338H46.812V16.7816H52.8102ZM74.0431 27.6715C74.1105 27.6715 74.4096 27.6627 74.4676 27.6446C74.6331 27.5919 74.7454 27.4715 74.7974 27.346C74.8194 27.2933 74.8303 27.0602 74.8303 27.0096L74.8316 24.5538C74.8316 24.4947 74.8274 24.4692 74.729 24.3376C74.6209 24.1939 70.3364 19.244 70.1403 19.026C69.8968 18.7554 69.4692 18.337 68.8195 18.337H67.3295V16.7824H75.7383V18.3351H74.7246C74.4901 18.3351 74.3343 18.5618 74.5346 18.8138C74.5346 18.8138 77.3638 22.2639 77.3906 22.3C77.4169 22.3367 77.4394 22.3455 77.4754 22.312C77.5108 22.2776 80.3755 18.8454 80.3981 18.8183C80.5344 18.6519 80.442 18.3368 80.1483 18.3368H79.1084V16.7824H86V18.3368H84.4604C83.9018 18.3368 83.6746 18.4422 83.2543 18.9265C83.0622 19.1482 78.7319 24.187 78.6141 24.3235C78.5524 24.3949 78.5577 24.4944 78.5577 24.5535V27.009C78.5577 27.0588 78.5687 27.2922 78.5906 27.3446C78.6428 27.4707 78.7557 27.5911 78.9211 27.6432C78.9791 27.6614 79.2741 27.6703 79.3413 27.6703H80.9162V29.2246H72.5508V27.6702L74.0434 27.6715H74.0431Z" fill="#999999"/>
</svg>
