<svg width="48" height="48" viewBox="0 0 48 48" fill="none" xmlns="http://www.w3.org/2000/svg">
<rect width="48" height="48" rx="24" fill="url(#paint0_radial)"/>
<rect width="48" height="48" rx="24" fill="url(#paint1_radial)"/>
<path fill-rule="evenodd" clip-rule="evenodd" d="M35.0005 24.0002L34.9278 28.6469L34.9277 28.6516C34.9078 30.3099 34.2402 31.8948 33.0675 33.0675C31.8947 34.2403 30.31 34.9079 28.6517 34.9279L28.6469 34.9279L24.0002 35.0005L19.3535 34.9279L19.3489 34.9279C17.6906 34.9079 16.1057 34.2403 14.933 33.0675C13.7602 31.8948 13.0926 30.31 13.0726 28.6517L13 24.0002L13.0726 19.3487C13.0927 17.6905 13.7603 16.1057 14.933 14.933C16.1058 13.7603 17.6905 13.0926 19.3488 13.0726L24.0002 13L28.6516 13.0726C30.3099 13.0926 31.8947 13.7602 33.0674 14.933C34.2401 16.1057 34.9077 17.6904 34.9277 19.3485L34.9278 19.3535L35.0005 24.0002ZM16.3472 31.6533C17.1515 32.4576 18.2387 32.9152 19.3761 32.928L24.0002 33.0002L28.6243 32.928C29.7617 32.9152 30.8489 32.4577 31.6532 31.6533C32.4576 30.849 32.9151 29.7618 32.9279 28.6244L33.0002 24.0002L32.9279 19.3761C32.915 18.2387 32.4575 17.1515 31.6532 16.3472C30.8489 15.5429 29.7617 15.0853 28.6243 15.0724L24.0002 15.0002L19.3761 15.0724C18.2387 15.0853 17.1516 15.5429 16.3472 16.3472C15.5429 17.1515 15.0854 18.2387 15.0724 19.3761L15.0002 24.0002L15.0724 28.6244C15.0853 29.7618 15.5429 30.849 16.3472 31.6533ZM31 18C31 18.5523 30.5523 19 30 19C29.4477 19 29 18.5523 29 18C29 17.4477 29.4477 17 30 17C30.5523 17 31 17.4477 31 18ZM28 24C28 26.2091 26.2091 28 24 28C21.7909 28 20 26.2091 20 24C20 21.7909 21.7909 20 24 20C26.2091 20 28 21.7909 28 24ZM30 24C30 27.3137 27.3137 30 24 30C20.6863 30 18 27.3137 18 24C18 20.6863 20.6863 18 24 18C27.3137 18 30 20.6863 30 24Z" fill="white"/>
<defs>
<radialGradient id="paint0_radial" cx="0" cy="0" r="1" gradientUnits="userSpaceOnUse" gradientTransform="translate(12.7501 51.697) rotate(-90) scale(47.5715 44.2453)">
<stop stop-color="#FFDD55"/>
<stop offset="0.1" stop-color="#FFDD55"/>
<stop offset="0.5" stop-color="#FF543E"/>
<stop offset="1" stop-color="#C837AB"/>
</radialGradient>
<radialGradient id="paint1_radial" cx="0" cy="0" r="1" gradientUnits="userSpaceOnUse" gradientTransform="translate(9.6 -6.53957) rotate(71.1846) scale(39.2365 39.2472)">
<stop stop-color="#0066FF"/>
<stop offset="0.115406" stop-color="#6926D7"/>
<stop offset="1" stop-color="#6600FF" stop-opacity="0"/>
</radialGradient>
</defs>
</svg>
