<svg width="98" height="23" viewBox="0 0 98 23" fill="none" xmlns="http://www.w3.org/2000/svg">
<path d="M36.6439 5.0408H31.2207C30.8496 5.0408 30.534 5.29474 30.4761 5.63981L28.2828 18.7382C28.2392 18.9966 28.4517 19.2297 28.73 19.2297H31.3191C31.6902 19.2297 32.0058 18.9757 32.0637 18.6299L32.6552 15.0971C32.7123 14.7513 33.0287 14.4973 33.399 14.4973H35.1158C38.6881 14.4973 40.7499 12.8691 41.2883 9.64246C41.5309 8.23081 41.2986 7.12166 40.5968 6.34489C39.826 5.49193 38.459 5.0408 36.6439 5.0408ZM37.2695 9.8247C36.9729 11.6576 35.4861 11.6576 34.0485 11.6576H33.2301L33.8042 8.23455C33.8383 8.02766 34.0286 7.87529 34.2507 7.87529H34.6258C35.6051 7.87529 36.5289 7.87529 37.0062 8.40111C37.2909 8.71481 37.3781 9.18087 37.2695 9.8247Z" fill="#253B80"/>
<path d="M52.8545 9.7657H50.2575C50.0363 9.7657 49.8452 9.91807 49.8111 10.125L49.6961 10.8091L49.5145 10.5612C48.9523 9.79259 47.6986 9.53566 46.4473 9.53566C43.5775 9.53566 41.1265 11.5829 40.6491 14.4547C40.4009 15.8873 40.7538 17.2571 41.6165 18.2124C42.4079 19.0908 43.5403 19.4567 44.8875 19.4567C47.1998 19.4567 48.482 18.0563 48.482 18.0563L48.3663 18.736C48.3227 18.9959 48.5352 19.2289 48.8119 19.2289H51.1512C51.5231 19.2289 51.8371 18.975 51.8958 18.6292L53.2993 10.2572C53.3437 9.99948 53.132 9.7657 52.8545 9.7657ZM49.2346 14.5265C48.984 15.9239 47.8064 16.862 46.3045 16.862C45.5504 16.862 44.9478 16.6342 44.5608 16.2025C44.177 15.7738 44.0311 15.1636 44.1532 14.4839C44.3872 13.0984 45.5845 12.1296 47.0634 12.1296C47.8009 12.1296 48.4004 12.3604 48.7953 12.7959C49.191 13.2358 49.348 13.8498 49.2346 14.5265Z" fill="#253B80"/>
<path d="M66.6854 9.76575H64.0758C63.8268 9.76575 63.5928 9.88227 63.4517 10.0772L59.8524 15.071L58.3267 10.2722C58.2308 9.9719 57.9366 9.76575 57.6036 9.76575H55.0391C54.7275 9.76575 54.511 10.0526 54.6101 10.3289L57.4846 18.2744L54.7822 21.8678C54.5697 22.1509 54.7838 22.54 55.1509 22.54H57.7574C58.0048 22.54 58.2363 22.4265 58.3767 22.2353L67.0565 10.4342C67.2643 10.1519 67.051 9.76575 66.6854 9.76575Z" fill="#253B80"/>
<path d="M75.3257 5.0408H69.9018C69.5315 5.0408 69.2159 5.29474 69.158 5.63981L66.9647 18.7382C66.9211 18.9966 67.1336 19.2297 67.4103 19.2297H70.1936C70.4522 19.2297 70.6734 19.0519 70.7138 18.8099L71.3363 15.0971C71.3934 14.7513 71.7098 14.4973 72.0801 14.4973H73.7961C77.3692 14.4973 79.4302 12.8691 79.9694 9.64246C80.2128 8.23081 79.9789 7.12166 79.2771 6.34489C78.5071 5.49193 77.1408 5.0408 75.3257 5.0408ZM75.9514 9.8247C75.6556 11.6576 74.1688 11.6576 72.7304 11.6576H71.9128L72.4877 8.23455C72.5218 8.02766 72.7105 7.87529 72.9334 7.87529H73.3084C74.287 7.87529 75.2116 7.87529 75.6889 8.40111C75.9736 8.71481 76.06 9.18087 75.9514 9.8247Z" fill="#179BD7"/>
<path d="M91.5355 9.7657H88.9402C88.7173 9.7657 88.5278 9.91807 88.4945 10.125L88.3795 10.8091L88.1971 10.5612C87.6349 9.79259 86.382 9.53566 85.1307 9.53566C82.261 9.53566 79.8107 11.5829 79.3333 14.4547C79.0859 15.8873 79.4372 17.2571 80.3 18.2124C81.0929 19.0908 82.2237 19.4567 83.571 19.4567C85.8833 19.4567 87.1655 18.0563 87.1655 18.0563L87.0497 18.736C87.0061 18.9959 87.2186 19.2289 87.4969 19.2289H89.8354C90.2057 19.2289 90.5213 18.975 90.5792 18.6292L91.9836 10.2572C92.0264 9.99948 91.8139 9.7657 91.5355 9.7657ZM87.9156 14.5265C87.6666 15.9239 86.4875 16.862 84.9856 16.862C84.2331 16.862 83.6288 16.6342 83.2419 16.2025C82.8581 15.7738 82.7138 15.1636 82.8343 14.4839C83.0698 13.0984 84.2656 12.1296 85.7445 12.1296C86.4819 12.1296 87.0814 12.3604 87.4763 12.7959C87.8736 13.2358 88.0306 13.8498 87.9156 14.5265Z" fill="#179BD7"/>
<path d="M94.5972 5.40013L92.3713 18.7383C92.3277 18.9967 92.5402 19.2297 92.8169 19.2297H95.0547C95.4266 19.2297 95.7422 18.9758 95.7993 18.63L97.9943 5.53233C98.0379 5.2739 97.8253 5.04012 97.5486 5.04012H95.0428C94.8216 5.04087 94.6313 5.19323 94.5972 5.40013Z" fill="#179BD7"/>
<path d="M5.7618 21.7752L6.17652 19.294L5.25272 19.2738H0.841431L3.90705 0.964997C3.91656 0.909727 3.94749 0.85819 3.99269 0.821592C4.03789 0.784994 4.09577 0.764828 4.15604 0.764828H11.5941C14.0634 0.764828 15.7675 1.24882 16.6572 2.20411C17.0743 2.65225 17.3399 3.12055 17.4684 3.63592C17.6032 4.17667 17.6056 4.82274 17.4739 5.61072L17.4644 5.66823V6.17314L17.8815 6.39572C18.2328 6.57124 18.5119 6.77215 18.726 7.0022C19.0829 7.38536 19.3136 7.87234 19.4112 8.4497C19.5119 9.04348 19.4786 9.75005 19.3136 10.55C19.1233 11.4702 18.8157 12.2716 18.4001 12.9274C18.0179 13.5316 17.531 14.0328 16.953 14.4212C16.4011 14.7901 15.7453 15.0702 15.0038 15.2495C14.2854 15.4258 13.4663 15.5146 12.5679 15.5146H11.989C11.5751 15.5146 11.173 15.6551 10.8574 15.9068C10.541 16.1637 10.3317 16.5147 10.2674 16.8986L10.2238 17.122L9.49113 21.4951L9.45783 21.6557C9.44911 21.7064 9.43404 21.7318 9.41184 21.749C9.39201 21.7647 9.36347 21.7752 9.33571 21.7752H5.7618Z" fill="#253B80"/>
<path d="M18.2764 5.72657C18.2542 5.86027 18.2288 5.99695 18.2003 6.13737C17.2194 10.8809 13.8635 12.5196 9.57755 12.5196H7.3953C6.87115 12.5196 6.42946 12.8781 6.34779 13.3651L5.23049 20.0394L4.9141 21.9313C4.86097 22.251 5.12265 22.5393 5.46521 22.5393H9.33569C9.79403 22.5393 10.1834 22.2256 10.2555 21.7999L10.2936 21.6147L11.0223 17.2587L11.0691 17.0197C11.1405 16.5925 11.5306 16.2788 11.989 16.2788H12.5678C16.3178 16.2788 19.2533 14.8447 20.1113 10.695C20.4698 8.9614 20.2842 7.5139 19.3358 6.49588C19.0488 6.1889 18.6927 5.93421 18.2764 5.72657Z" fill="#179BD7"/>
<path d="M17.2502 5.34113C17.1003 5.30005 16.9457 5.26271 16.7871 5.2291C16.6277 5.19623 16.4644 5.1671 16.2962 5.14171C15.7079 5.05208 15.0632 5.00951 14.3725 5.00951H8.54259C8.39907 5.00951 8.26268 5.04013 8.14056 5.0954C7.87174 5.21714 7.67191 5.4569 7.62354 5.75043L6.38334 13.1492L6.34766 13.3651C6.42933 12.8781 6.87102 12.5196 7.39517 12.5196H9.57742C13.8634 12.5196 17.2193 10.8801 18.2002 6.13733C18.2295 5.99691 18.2541 5.86023 18.2763 5.72653C18.0281 5.60255 17.7593 5.49649 17.4698 5.40611C17.3985 5.3837 17.3247 5.36204 17.2502 5.34113Z" fill="#222D65"/>
<path d="M7.62359 5.75039C7.67196 5.45686 7.87179 5.21711 8.14061 5.09611C8.26352 5.04084 8.39911 5.01021 8.54264 5.01021H14.3725C15.0632 5.01021 15.7079 5.05279 16.2963 5.14242C16.4644 5.16781 16.6277 5.19694 16.7871 5.2298C16.9457 5.26341 17.1004 5.30076 17.2502 5.34184C17.3248 5.36275 17.3985 5.38441 17.4707 5.40607C17.7601 5.49645 18.0289 5.60325 18.2771 5.72649C18.5689 3.97352 18.2747 2.77997 17.2685 1.6992C16.1591 0.509387 14.1569 0 11.5948 0H4.15673C3.63337 0 3.18693 0.358513 3.10605 0.846239L0.00792082 19.3433C-0.0531378 19.7092 0.246604 20.0394 0.638331 20.0394H5.23041L6.38339 13.1492L7.62359 5.75039Z" fill="#253B80"/>
</svg>
