<?xml version="1.0" encoding="UTF-8"?>
<svg xmlns="http://www.w3.org/2000/svg" version="1.1" viewBox="0 0 1080 1080">
  <defs>
    <style>
      .cls-1, .cls-2 {
        fill: #fff;
      }

      .cls-3 {
        fill: #ec7700;
      }

      .cls-2 {
        stroke: #fff;
        stroke-miterlimit: 10;
        stroke-width: 17.7px;
      }

      .cls-4 {
        fill: #00c1de;
      }

      .cls-5 {
        fill: #80bc00;
      }

      .cls-6 {
        fill: #1a5632;
      }
    </style>
  </defs>
  <!-- Generator: Adobe Illustrator 28.6.0, SVG Export Plug-In . SVG Version: 1.2.0 Build 709)  -->
  <g>
    <g id="Capa_1">
      <rect class="cls-4" x="-26.15" y="-22.06" width="1135.66" height="1127.49"/>
      <g>
        <g>
          <g>
            <path class="cls-2" d="M315.3,645.57c-2.96,0-5.94-.59-8.78-1.77-97.37-40.46-172.57-72.43-173.31-72.75-6.34-2.7-11.14-8.08-13.1-14.68-1.96-6.6-.86-13.73,2.98-19.45.39-.58,39.54-58.69,92.81-133.68,4.94-6.96,13.34-10.63,21.77-9.53,8.46,1.09,15.63,6.76,18.64,14.74,24.48,64.78,54.43,140.22,80.5,205.48,3.45,8.63,1.39,18.48-5.22,25-4.43,4.36-10.31,6.67-16.29,6.65ZM177.16,539.53c21.69,9.17,55.63,23.47,96.47,40.55-15.05-37.9-30.57-77.29-45.02-114.79-21.66,30.87-39.58,56.89-51.45,74.24Z"/>
            <path class="cls-2" d="M392.84,228.95c-8.6-.03-16.51-4.84-20.47-12.56-4.16-8.13-3.14-17.95,2.61-25.05,119.12-147.16,153.27-155.31,175.92-151.34,4.45.78,8.57,2.84,11.86,5.94.6.56,60.46,56.97,135.38,128.92,6.66,6.39,8.87,16.14,5.62,24.78-3.25,8.64-11.34,14.51-20.56,14.93-77.52,3.53-191.81,8.85-288.98,14.34-.46.03-.92.04-1.38.04ZM539.61,87.59c-10.23,5.27-36.77,24.22-95.13,92.34,62.22-3.3,127.26-6.42,182.8-9.01-40.63-38.83-73.01-69.48-87.67-83.34ZM544.8,85.59"/>
            <path class="cls-2" d="M805.29,654.81c-4.7-.01-9.39-1.47-13.36-4.31-7.17-5.13-10.79-13.89-9.33-22.59,13.93-83.12,33.9-172.43,59.36-265.43,2.17-7.92,8.38-14.09,16.32-16.21,7.93-2.12,16.39.14,22.22,5.92,140.37,139.4,140.34,148.47,140.3,161.04-.05,14.71-.09,28.61-204.47,138.82-3.46,1.86-7.25,2.78-11.03,2.77ZM876.22,413.17c-15.73,60.48-29.01,119.13-39.65,175.23,71.03-39.3,112.96-65.36,131.44-78.6-11.06-13.27-35.98-40.56-91.79-96.63ZM978.42,501.39h0Z"/>
            <path class="cls-2" d="M399.86,835.28c-7.6-.02-11.66-1.61-14.98-2.91-7.8-3.05-13.74-8.82-16.72-16.23-.01-.03-.03-.06-.04-.09-16.03-40.36-32.85-82.18-49.11-122.61-8.41-20.91-16.79-41.75-25.06-62.36-3.46-8.63-1.41-18.48,5.21-25.01,6.61-6.54,16.49-8.46,25.07-4.9,75.84,31.5,186.36,76.9,282.12,114.34,8.58,3.35,14.34,11.49,14.66,20.69.32,9.21-4.86,17.72-13.18,21.67-137.73,65.28-186.7,77.48-207.97,77.42ZM357.26,664.8c1.53,3.8,3.06,7.6,4.59,11.41,14.85,36.91,30.16,74.98,44.92,112.07,13.09-2.12,47.68-11.37,132.56-49.58-62.26-24.77-126.98-51.18-182.07-73.9Z"/>
            <path class="cls-2" d="M234.65,439.69c-.96,0-1.94-.07-2.91-.19-8.45-1.1-15.61-6.77-18.62-14.74-22.39-59.33-37.82-103.66-47.2-135.53-13.89-47.21-17.17-71.86,1.72-84.23.02-.02.04-.03.07-.04,7.46-4.85,15.92-10.35,223.89-22.13,9.19-.51,17.69,4.39,21.85,12.52,4.16,8.13,3.15,17.94-2.59,25.05-43.96,54.38-96.89,124.91-157.35,209.63-4.38,6.14-11.44,9.7-18.86,9.68ZM201.79,243.28c2.8,15.4,12.07,49.45,39.48,124.63,37.01-51.21,70.98-96.69,101.52-135.95-85.97,5.32-124.11,9.07-141.01,11.32Z"/>
            <path class="cls-2" d="M864.16,391.66c-5.99-.02-11.83-2.37-16.19-6.71-48.22-47.9-107.68-105.73-181.8-176.78-6.66-6.39-8.88-16.14-5.63-24.79,3.25-8.65,11.34-14.52,20.57-14.94,131.11-5.87,238.42-10.13,239.49-10.17,7.61-.32,14.96,3.21,19.5,9.38,4.54,6.17,5.73,14.19,3.17,21.4-.27.76-27.15,76.87-56.77,185.59-2.16,7.93-8.37,14.11-16.31,16.23-2,.53-4.03.79-6.04.78ZM736.99,212.19c43.88,42.26,82.12,79.43,115.56,112.36,14.52-50.89,27.65-92.3,36.35-118.79-32.95,1.35-87.55,3.62-151.91,6.43Z"/>
            <path class="cls-2" d="M597.87,760.09c-2.82,0-5.65-.54-8.33-1.58-96.13-37.59-206.97-83.12-283.01-114.7-5.74-2.39-10.28-6.98-12.58-12.76-26.15-65.45-56.2-141.15-80.81-206.29-2.73-7.21-1.67-15.3,2.8-21.57,60.99-85.47,114.49-156.75,159.03-211.84,4.1-5.07,10.14-8.17,16.65-8.54,97.39-5.5,211.86-10.84,289.48-14.37,6.39-.29,12.47,2.03,17.02,6.4,74.31,71.24,133.97,129.25,182.38,177.35,5.9,5.86,8.19,14.45,6,22.47-25.06,91.51-44.69,179.28-58.36,260.87-1.18,7.03-5.54,13.12-11.81,16.51-69.93,37.69-143.97,75.27-208.5,105.82-3.14,1.49-6.54,2.23-9.95,2.22ZM333.21,604.89c72.89,30.23,174.05,71.74,263.85,106.98,58.58-27.95,124.4-61.36,187.44-95.14,13.15-76.02,31.26-157.05,53.93-241.23-44.86-44.42-99.07-97.1-165.12-160.48-74.32,3.39-178.08,8.26-268.85,13.32-40.88,51.01-89.17,115.38-143.77,191.63,22.47,59.07,48.88,125.69,72.52,184.92Z"/>
            <g>
              <path class="cls-2" d="M603.77,370.93l-35.22-.11c-12.75-.04-23.05-10.41-23.01-23.16l.12-36.6c.02-6.21,2.54-12.15,7-16.48,4.46-4.33,10.28-6.67,16.68-6.52,35.1.89,57.73,17.19,57.65,41.53l-.06,18.34c-.04,12.75-10.41,23.05-23.16,23.01Z"/>
              <path class="cls-2" d="M780.61,566.22l-10.16-.03c-19.2-.06-32.77-5.63-42.34-13.16-13.93,8.53-30.8,12.93-49.85,12.87-7.58-.02-14.73-.98-21.37-2.85-8.67,1.72-19.55,2.6-32.99,2.68l-14.04-.04c-8.68-.03-16.43-1.16-23.46-3.45-8.72,2.01-20.28,3.09-34.98,3.26-.12,0-.47,0-.58,0l-13.49-.04c-8.43-.03-16.2-1.16-23.21-3.38-8.75,2.03-20.36,3.08-35.12,3.19-.09,0-.45,0-.54,0l-11.42-.04c-19.29-.06-32.86-5.6-42.4-13.13-13.95,8.51-30.79,12.9-49.77,12.84-20.13-.06-37.85-7.06-51.26-20.23-13.52-13.44-20.58-31.57-20.51-52.52.05-16.01,4.99-30.3,14.68-42.48,6.89-8.56,15.27-15.53,25.02-20.83-1.87-.67-3.67-1.57-5.35-2.73-8.7-5.98-14.41-15.93-17.45-30.42-.14-.66-.25-1.32-.33-1.99l-.92-7.66c0-.07-.02-.13-.03-.2-.15-.99-.27-2.24-.27-3.72.03-8.56,4.79-16.41,12.38-20.38,22.16-11.6,45.64-17.44,69.8-17.36,27.02.09,47.91,8.29,62.09,24.38,3.92,4.36,7.27,9.34,10.05,14.98l.17-54.68c.08-24.34,22.85-40.5,58.02-41.16,6.03-.11,12.2,2.27,16.63,6.63,4.43,4.36,6.91,10.31,6.89,16.52l-.13,41.84c3.93-3.06,8.87-4.87,14.23-4.85l35.22.11c11.98.04,21.8,9.2,22.91,20.88,2.01-2.62,4.6-4.83,7.65-6.42,22.17-11.54,45.64-17.35,69.75-17.28,26.99.09,47.86,8.29,62.03,24.4,13.59,15.26,20.48,38.91,20.38,70.19l-.14,42.69c-.01,3.64.07,6.52.19,8.77,5.65.63,10.91,3.33,14.72,7.63,4.36,4.92,6.42,11.48,5.65,18.01l-3.39,28.78c-1.37,11.65-11.27,20.42-23,20.38ZM525.88,557.86h0s0,0,0,0ZM525.91,557.84s-.01,0-.02.01c0,0,0,0,.02-.01ZM525.96,557.81s-.02.01-.03.02c.01,0,.02-.01.03-.02ZM503.29,557.34s0,0,.01,0c0,0,0,0-.01,0ZM503.25,557.31s.01,0,.02.01c0,0-.01,0-.02-.01ZM503.21,557.28s.02.02.03.02c0,0-.02-.02-.03-.02ZM675.75,553.03s0,0,0,0c0,0,0,0,0,0ZM546.69,516.65s0,.02,0,.03c0-.01,0-.02,0-.03ZM787.47,498.7h0ZM483.94,497.38h0ZM689.94,494.17h0ZM386.55,493.2h.04s-.04,0-.04,0ZM689.72,492.53c.71.1,1.67.18,2.94.19,2.65,0,5.67-.73,8.99-2.19,1.18-.52,2.27-1.07,3.27-1.66l.02-5.64c-4.12,1.03-7.77,2.32-10.86,3.85-4.37,2.2-4.38,3.48-4.38,4.52,0,.35,0,.66.02.93ZM386.32,491.57c.69.1,1.64.18,2.88.18,2.69,0,5.72-.72,8.99-2.18,1.21-.54,2.34-1.13,3.39-1.76l.02-5.58c-4.83,1.2-8.38,2.6-10.91,3.87-4.39,2.22-4.4,3.51-4.4,4.54,0,.35,0,.66.02.94ZM630.97,491.35s-.02,0-.03,0c.01,0,.02,0,.03,0ZM561.23,490.56c-.05.01-.1.03-.15.04.05-.01.1-.03.15-.04ZM626.73,408.04l-.12,36.51c5.67-5.78,12.22-10.71,19.6-14.71-1.96-.7-3.83-1.66-5.58-2.89-6.07-4.28-10.72-10.61-13.9-18.9ZM423.03,410.39h0,0ZM423.1,410.39h-.04.04ZM726.42,411.35s-.02,0-.04,0c.01,0,.02,0,.04,0ZM318.61,383.24s0,.01,0,.02c0,0,0-.01,0-.02Z"/>
            </g>
            <path class="cls-2" d="M783.17,823.47c-17.65-.06-59.79-12.63-193.63-64.97-8.58-3.35-14.34-11.49-14.66-20.7-.32-9.21,4.87-17.72,13.19-21.67,63.82-30.22,137.1-67.41,206.35-104.74,7.75-4.18,17.23-3.58,24.39,1.55,7.17,5.13,10.79,13.9,9.33,22.59-9.95,59.25-16.67,114.7-19.97,164.82-.51,7.67-4.7,14.72-11.22,18.87-3.54,2.25-6.68,4.25-13.77,4.23ZM655.95,734.66c59.35,22.58,91.08,33.25,107.98,38.25,2.64-31.36,6.48-64.49,11.48-99.07-40.17,21.15-80.82,41.84-119.47,60.82Z"/>
          </g>
          <g>
            <path class="cls-2" d="M142.25,549.81s74.72,31.79,173.13,72.68c-29.5-73.84-57.59-144.84-80.66-205.88-53.72,75.63-92.48,133.21-92.48,133.21Z"/>
            <path class="cls-2" d="M546.93,62.74c-25.43-4.44-86.67,59.93-154.01,143.12,90.44-5.11,196.15-10.12,289.23-14.36-75.71-72.71-135.22-128.77-135.22-128.77Z"/>
            <path class="cls-2" d="M864.23,368.58c-20.77,75.86-42.9,167.9-58.86,263.15,106.84-57.62,192.32-109.06,192.35-118.57.03-9.17-58.59-70.2-133.49-144.58Z"/>
            <path class="cls-2" d="M389.58,807.53c6.95,17.3,98.48-18.44,208.37-70.52-89.12-34.84-195.22-78.25-282.57-114.52,24.47,61.04,49.98,124.04,74.2,185.05Z"/>
            <path class="cls-2" d="M180.29,224.31c-11.1,7.27,13.7,84.36,54.43,192.3,46.55-65.24,104.33-144.11,158.19-210.74-114.8,6.5-204.76,13.33-212.62,18.44Z"/>
            <path class="cls-2" d="M921.51,181.34s-106.8,4.24-239.37,10.17c57.58,55.2,124.6,119.95,182.08,177.07,30.22-110.95,57.28-187.24,57.28-187.24Z"/>
            <path class="cls-2" d="M682.15,191.51c-93.08,4.24-198.79,9.25-289.23,14.36-53.86,66.63-111.64,145.5-158.19,210.74,23.06,61.04,51.16,132.04,80.66,205.88,87.35,36.27,193.44,79.68,282.57,114.52,67.21-31.82,141.41-69.7,207.42-105.28,15.96-95.26,38.09-187.3,58.86-263.15-57.49-57.11-124.51-121.86-182.08-177.07Z"/>
            <g>
              <path class="cls-2" d="M568.62,347.74l.12-36.6c7.55.19,35.21,2.6,35.16,18.38l-.06,18.34-35.21-.11Z"/>
              <path class="cls-2" d="M770.52,543.11c-18.79-.06-31.18-6.9-38.03-20.68-.25-.6-.76-.98-1.42-1.08h-.16c-.62,0-1.15.26-1.54.57-11.92,14-29.2,20.96-51.04,20.89-7.3-.02-13.92-1.17-19.85-3.58-.3-.18-.53-.19-.72-.19-.15,0-.38,0-.52.18-4.79,1.42-14.44,3.3-33.48,3.41l-13.83-.04c-8.57-.03-15.79-1.48-21.78-4.57-.17,0-.56-.09-.71-.09-.31,0-.44.07-.74.08-3.51,1.58-12.78,4.11-35.56,4.39h-.23s-13.49-.04-13.49-.04c-8.45-.03-15.65-1.48-21.57-4.41-.25-.16-.55-.16-.82-.16-.24,0-.56,0-.79.14-3.43,1.52-12.77,4.07-35.39,4.25,0,0-.2,0-.28,0l-11.42-.04c-18.82-.06-31.33-6.9-37.94-20.68-.32-.6-.84-.98-1.56-1.08h-.21c-.49,0-.97.26-1.37.57-12.01,14-29.28,20.96-51.09,20.89-14.16-.04-25.98-4.6-35.15-13.61-9.07-9.02-13.65-21.08-13.6-35.98.03-10.83,3.32-20.21,9.66-28.19,6.48-8.06,15.02-14.26,25.36-18.38,10.55-4.06,21.1-7.27,31.16-9.06,10.1-1.98,20.39-2.91,30.64-3.16,1,0,1.83-.93,1.83-1.8-.24-12.42-3.17-21.42-8.64-26.72-5.51-5.36-14.37-8.03-26.26-8.07-12.09-.04-25.38,3.33-39.4,10.23-4.55-3.13-6.76-10.56-7.93-16.14l-.92-7.66c0-.44-.13-.73-.13-1.09,18.94-9.92,38.73-14.8,59.02-14.73,20.07.06,35.16,5.57,44.84,16.56,9.89,10.99,14.68,29.55,14.6,54.87l-.14,42.69c-.04,13.36.95,21.61,3.2,25.45,2.24,4.27,7.33,6.31,15.24,6.34h4.47c1.28.02,7.4.04,12.16-.88.91-.26,1.63-1.16,1.46-2.13-.69-3.38-.91-6.74-.9-10.11l.54-171.1c.05-15.78,27.74-18.01,35.37-18.15l-.55,172.01c-.05,14.42,1.25,22.66,4.13,26.12,2.95,3.49,9.44,5.24,20.08,5.28.35,0,7.42-.21,12.56-1.7.93-.25,1.56-1.24,1.31-2.13-.58-3.38-.84-6.74-.83-10.11l.41-129.33,35.21.11-.36,111.99c-.05,14.42,1.26,22.66,4.19,26.12,2.9,3.49,9.46,5.24,20.04,5.28h0s1.34,0,3.26-.22c.54,0,1.1-.16,1.45-.7.28-.52.36-1.05.19-1.73-2-5.7-2.93-11.98-2.91-18.79.03-10.83,3.2-20.21,9.66-28.19,6.44-8.05,15.01-14.26,25.38-18.38,10.5-4.06,21.04-7.27,31.12-9.06,10.11-1.98,20.33-2.91,30.57-3.16,1.01,0,1.9-.93,1.83-1.8-.16-12.42-3.03-21.42-8.56-26.72-5.5-5.36-14.37-8.03-26.27-8.07-12.1-.04-25.23,3.33-39.4,10.23-4.81-3.39-7.01-11.31-8.06-17.41l-.61-5c-.03-.98-.18-1.83-.22-2.54,18.93-9.85,38.71-14.73,59.03-14.67,19.97.06,35.1,5.57,44.77,16.56,9.79,10.99,14.72,29.55,14.63,54.87l-.14,42.69c-.04,13.36,1.03,21.61,3.07,25.45,2.3,4.27,7.4,6.31,15.22,6.34h2.44s-3.39,28.79-3.39,28.79l-10.16-.03ZM726.21,457.32c-17.24.61-31.53,3.68-42.41,9.09-11.32,5.69-17.15,14.16-17.19,25.11-.05,16.01,8.93,24.22,25.97,24.28,5.8.02,11.92-1.3,18.4-4.17,6.48-2.85,11.99-6.68,16.53-11.74.25-.32.45-.72.45-1.24l.13-39.47c0-.5-.2-.85-.55-1.37-.4-.33-.78-.5-1.28-.5h-.06ZM422.73,456.36c-17.21.61-31.52,3.68-42.35,9.09-11.28,5.69-17.14,14.16-17.17,25.11-.05,16.01,8.95,24.23,25.92,24.28,5.8.02,11.99-1.3,18.44-4.17,6.36-2.85,11.94-6.68,16.49-11.74.35-.32.58-.72.58-1.24l.13-39.47c0-.5-.23-.86-.65-1.37-.25-.33-.79-.5-1.27-.5h-.12Z"/>
            </g>
            <path class="cls-2" d="M785.12,798.85c3.62-54.92,10.92-111.57,20.25-167.13-66.01,35.58-140.21,73.46-207.42,105.28,105.02,41.06,186.64,70.23,187.18,61.85Z"/>
          </g>
        </g>
        <g>
          <g>
            <path class="cls-1" d="M315.3,645.57c-2.96,0-5.94-.59-8.78-1.77-97.37-40.46-172.57-72.43-173.31-72.75-6.34-2.7-11.14-8.08-13.1-14.68-1.96-6.6-.86-13.73,2.98-19.45.39-.58,39.54-58.69,92.81-133.68,4.94-6.96,13.34-10.63,21.77-9.53,8.46,1.09,15.63,6.76,18.64,14.74,24.48,64.78,54.43,140.22,80.5,205.48,3.45,8.63,1.39,18.48-5.22,25-4.43,4.36-10.31,6.67-16.29,6.65ZM177.16,539.53c21.69,9.17,55.63,23.47,96.47,40.55-15.05-37.9-30.57-77.29-45.02-114.79-21.66,30.87-39.58,56.89-51.45,74.24Z"/>
            <path class="cls-1" d="M392.84,228.95c-8.6-.03-16.51-4.84-20.47-12.56-4.16-8.13-3.14-17.95,2.61-25.05,119.12-147.16,153.27-155.31,175.92-151.34,4.45.78,8.57,2.84,11.86,5.94.6.56,60.46,56.97,135.38,128.92,6.66,6.39,8.87,16.14,5.62,24.78-3.25,8.64-11.34,14.51-20.56,14.93-77.52,3.53-191.81,8.85-288.98,14.34-.46.03-.92.04-1.38.04ZM539.61,87.59c-10.23,5.27-36.77,24.22-95.13,92.34,62.22-3.3,127.26-6.42,182.8-9.01-40.63-38.83-73.01-69.48-87.67-83.34ZM544.8,85.59"/>
            <path class="cls-1" d="M805.29,654.81c-4.7-.01-9.39-1.47-13.36-4.31-7.17-5.13-10.79-13.89-9.33-22.59,13.93-83.12,33.9-172.43,59.36-265.43,2.17-7.92,8.38-14.09,16.32-16.21,7.93-2.12,16.39.14,22.22,5.92,140.37,139.4,140.34,148.47,140.3,161.04-.05,14.71-.09,28.61-204.47,138.82-3.46,1.86-7.25,2.78-11.03,2.77ZM876.22,413.17c-15.73,60.48-29.01,119.13-39.65,175.23,71.03-39.3,112.96-65.36,131.44-78.6-11.06-13.27-35.98-40.56-91.79-96.63ZM978.42,501.39h0Z"/>
            <path class="cls-1" d="M399.86,835.28c-7.6-.02-11.66-1.61-14.98-2.91-7.8-3.05-13.74-8.82-16.72-16.23-.01-.03-.03-.06-.04-.09-16.03-40.36-32.85-82.18-49.11-122.61-8.41-20.91-16.79-41.75-25.06-62.36-3.46-8.63-1.41-18.48,5.21-25.01,6.61-6.54,16.49-8.46,25.07-4.9,75.84,31.5,186.36,76.9,282.12,114.34,8.58,3.35,14.34,11.49,14.66,20.69.32,9.21-4.86,17.72-13.18,21.67-137.73,65.28-186.7,77.48-207.97,77.42ZM357.26,664.8c1.53,3.8,3.06,7.6,4.59,11.41,14.85,36.91,30.16,74.98,44.92,112.07,13.09-2.12,47.68-11.37,132.56-49.58-62.26-24.77-126.98-51.18-182.07-73.9Z"/>
            <path class="cls-1" d="M234.65,439.69c-.96,0-1.94-.07-2.91-.19-8.45-1.1-15.61-6.77-18.62-14.74-22.39-59.33-37.82-103.66-47.2-135.53-13.89-47.21-17.17-71.86,1.72-84.23.02-.02.04-.03.07-.04,7.46-4.85,15.92-10.35,223.89-22.13,9.19-.51,17.69,4.39,21.85,12.52,4.16,8.13,3.15,17.94-2.59,25.05-43.96,54.38-96.89,124.91-157.35,209.63-4.38,6.14-11.44,9.7-18.86,9.68ZM201.79,243.28c2.8,15.4,12.07,49.45,39.48,124.63,37.01-51.21,70.98-96.69,101.52-135.95-85.97,5.32-124.11,9.07-141.01,11.32Z"/>
            <path class="cls-1" d="M864.16,391.66c-5.99-.02-11.83-2.37-16.19-6.71-48.22-47.9-107.68-105.73-181.8-176.78-6.66-6.39-8.88-16.14-5.63-24.79,3.25-8.65,11.34-14.52,20.57-14.94,131.11-5.87,238.42-10.13,239.49-10.17,7.61-.32,14.96,3.21,19.5,9.38,4.54,6.17,5.73,14.19,3.17,21.4-.27.76-27.15,76.87-56.77,185.59-2.16,7.93-8.37,14.11-16.31,16.23-2,.53-4.03.79-6.04.78ZM736.99,212.19c43.88,42.26,82.12,79.43,115.56,112.36,14.52-50.89,27.65-92.3,36.35-118.79-32.95,1.35-87.55,3.62-151.91,6.43Z"/>
            <path class="cls-1" d="M597.87,760.09c-2.82,0-5.65-.54-8.33-1.58-96.13-37.59-206.97-83.12-283.01-114.7-5.74-2.39-10.28-6.98-12.58-12.76-26.15-65.45-56.2-141.15-80.81-206.29-2.73-7.21-1.67-15.3,2.8-21.57,60.99-85.47,114.49-156.75,159.03-211.84,4.1-5.07,10.14-8.17,16.65-8.54,97.39-5.5,211.86-10.84,289.48-14.37,6.39-.29,12.47,2.03,17.02,6.4,74.31,71.24,133.97,129.25,182.38,177.35,5.9,5.86,8.19,14.45,6,22.47-25.06,91.51-44.69,179.28-58.36,260.87-1.18,7.03-5.54,13.12-11.81,16.51-69.93,37.69-143.97,75.27-208.5,105.82-3.14,1.49-6.54,2.23-9.95,2.22ZM333.21,604.89c72.89,30.23,174.05,71.74,263.85,106.98,58.58-27.95,124.4-61.36,187.44-95.14,13.15-76.02,31.26-157.05,53.93-241.23-44.86-44.42-99.07-97.1-165.12-160.48-74.32,3.39-178.08,8.26-268.85,13.32-40.88,51.01-89.17,115.38-143.77,191.63,22.47,59.07,48.88,125.69,72.52,184.92Z"/>
            <g>
              <path class="cls-1" d="M603.77,370.93l-35.22-.11c-12.75-.04-23.05-10.41-23.01-23.16l.12-36.6c.02-6.21,2.54-12.15,7-16.48,4.46-4.33,10.28-6.67,16.68-6.52,35.1.89,57.73,17.19,57.65,41.53l-.06,18.34c-.04,12.75-10.41,23.05-23.16,23.01Z"/>
              <path class="cls-1" d="M780.61,566.22l-10.16-.03c-19.2-.06-32.77-5.63-42.34-13.16-13.93,8.53-30.8,12.93-49.85,12.87-7.58-.02-14.73-.98-21.37-2.85-8.67,1.72-19.55,2.6-32.99,2.68l-14.04-.04c-8.68-.03-16.43-1.16-23.46-3.45-8.72,2.01-20.28,3.09-34.98,3.26-.12,0-.47,0-.58,0l-13.49-.04c-8.43-.03-16.2-1.16-23.21-3.38-8.75,2.03-20.36,3.08-35.12,3.19-.09,0-.45,0-.54,0l-11.42-.04c-19.29-.06-32.86-5.6-42.4-13.13-13.95,8.51-30.79,12.9-49.77,12.84-20.13-.06-37.85-7.06-51.26-20.23-13.52-13.44-20.58-31.57-20.51-52.52.05-16.01,4.99-30.3,14.68-42.48,6.89-8.56,15.27-15.53,25.02-20.83-1.87-.67-3.67-1.57-5.35-2.73-8.7-5.98-14.41-15.93-17.45-30.42-.14-.66-.25-1.32-.33-1.99l-.92-7.66c0-.07-.02-.13-.03-.2-.15-.99-.27-2.24-.27-3.72.03-8.56,4.79-16.41,12.38-20.38,22.16-11.6,45.64-17.44,69.8-17.36,27.02.09,47.91,8.29,62.09,24.38,3.92,4.36,7.27,9.34,10.05,14.98l.17-54.68c.08-24.34,22.85-40.5,58.02-41.16,6.03-.11,12.2,2.27,16.63,6.63,4.43,4.36,6.91,10.31,6.89,16.52l-.13,41.84c3.93-3.06,8.87-4.87,14.23-4.85l35.22.11c11.98.04,21.8,9.2,22.91,20.88,2.01-2.62,4.6-4.83,7.65-6.42,22.17-11.54,45.64-17.35,69.75-17.28,26.99.09,47.86,8.29,62.03,24.4,13.59,15.26,20.48,38.91,20.38,70.19l-.14,42.69c-.01,3.64.07,6.52.19,8.77,5.65.63,10.91,3.33,14.72,7.63,4.36,4.92,6.42,11.48,5.65,18.01l-3.39,28.78c-1.37,11.65-11.27,20.42-23,20.38ZM525.88,557.86h0s0,0,0,0ZM525.91,557.84s-.01,0-.02.01c0,0,0,0,.02-.01ZM525.96,557.81s-.02.01-.03.02c.01,0,.02-.01.03-.02ZM503.29,557.34s0,0,.01,0c0,0,0,0-.01,0ZM503.25,557.31s.01,0,.02.01c0,0-.01,0-.02-.01ZM503.21,557.28s.02.02.03.02c0,0-.02-.02-.03-.02ZM675.75,553.03s0,0,0,0c0,0,0,0,0,0ZM546.69,516.65s0,.02,0,.03c0-.01,0-.02,0-.03ZM787.47,498.7h0ZM483.94,497.38h0ZM689.94,494.17h0ZM386.55,493.2h.04s-.04,0-.04,0ZM689.72,492.53c.71.1,1.67.18,2.94.19,2.65,0,5.67-.73,8.99-2.19,1.18-.52,2.27-1.07,3.27-1.66l.02-5.64c-4.12,1.03-7.77,2.32-10.86,3.85-4.37,2.2-4.38,3.48-4.38,4.52,0,.35,0,.66.02.93ZM386.32,491.57c.69.1,1.64.18,2.88.18,2.69,0,5.72-.72,8.99-2.18,1.21-.54,2.34-1.13,3.39-1.76l.02-5.58c-4.83,1.2-8.38,2.6-10.91,3.87-4.39,2.22-4.4,3.51-4.4,4.54,0,.35,0,.66.02.94ZM630.97,491.35s-.02,0-.03,0c.01,0,.02,0,.03,0ZM561.23,490.56c-.05.01-.1.03-.15.04.05-.01.1-.03.15-.04ZM626.73,408.04l-.12,36.51c5.67-5.78,12.22-10.71,19.6-14.71-1.96-.7-3.83-1.66-5.58-2.89-6.07-4.28-10.72-10.61-13.9-18.9ZM423.03,410.39h0,0ZM423.1,410.39h-.04.04ZM726.42,411.35s-.02,0-.04,0c.01,0,.02,0,.04,0ZM318.61,383.24s0,.01,0,.02c0,0,0-.01,0-.02Z"/>
            </g>
            <path class="cls-1" d="M783.17,823.47c-17.65-.06-59.79-12.63-193.63-64.97-8.58-3.35-14.34-11.49-14.66-20.7-.32-9.21,4.87-17.72,13.19-21.67,63.82-30.22,137.1-67.41,206.35-104.74,7.75-4.18,17.23-3.58,24.39,1.55,7.17,5.13,10.79,13.9,9.33,22.59-9.95,59.25-16.67,114.7-19.97,164.82-.51,7.67-4.7,14.72-11.22,18.87-3.54,2.25-6.68,4.25-13.77,4.23ZM655.95,734.66c59.35,22.58,91.08,33.25,107.98,38.25,2.64-31.36,6.48-64.49,11.48-99.07-40.17,21.15-80.82,41.84-119.47,60.82Z"/>
          </g>
          <g>
            <path class="cls-3" d="M142.25,549.81s74.72,31.79,173.13,72.68c-29.5-73.84-57.59-144.84-80.66-205.88-53.72,75.63-92.48,133.21-92.48,133.21Z"/>
            <path class="cls-4" d="M546.93,62.74c-25.43-4.44-86.67,59.93-154.01,143.12,90.44-5.11,196.15-10.12,289.23-14.36-75.71-72.71-135.22-128.77-135.22-128.77Z"/>
            <path class="cls-5" d="M864.23,368.58c-20.77,75.86-42.9,167.9-58.86,263.15,106.84-57.62,192.32-109.06,192.35-118.57.03-9.17-58.59-70.2-133.49-144.58Z"/>
            <path class="cls-5" d="M389.58,807.53c6.95,17.3,98.48-18.44,208.37-70.52-89.12-34.84-195.22-78.25-282.57-114.52,24.47,61.04,49.98,124.04,74.2,185.05Z"/>
            <path class="cls-5" d="M180.29,224.31c-11.1,7.27,13.7,84.36,54.43,192.3,46.55-65.24,104.33-144.11,158.19-210.74-114.8,6.5-204.76,13.33-212.62,18.44Z"/>
            <path class="cls-3" d="M921.51,181.34s-106.8,4.24-239.37,10.17c57.58,55.2,124.6,119.95,182.08,177.07,30.22-110.95,57.28-187.24,57.28-187.24Z"/>
            <path class="cls-6" d="M682.15,191.51c-93.08,4.24-198.79,9.25-289.23,14.36-53.86,66.63-111.64,145.5-158.19,210.74,23.06,61.04,51.16,132.04,80.66,205.88,87.35,36.27,193.44,79.68,282.57,114.52,67.21-31.82,141.41-69.7,207.42-105.28,15.96-95.26,38.09-187.3,58.86-263.15-57.49-57.11-124.51-121.86-182.08-177.07Z"/>
            <g>
              <path class="cls-1" d="M568.62,347.74l.12-36.6c7.55.19,35.21,2.6,35.16,18.38l-.06,18.34-35.21-.11Z"/>
              <path class="cls-1" d="M770.52,543.11c-18.79-.06-31.18-6.9-38.03-20.68-.25-.6-.76-.98-1.42-1.08h-.16c-.62,0-1.15.26-1.54.57-11.92,14-29.2,20.96-51.04,20.89-7.3-.02-13.92-1.17-19.85-3.58-.3-.18-.53-.19-.72-.19-.15,0-.38,0-.52.18-4.79,1.42-14.44,3.3-33.48,3.41l-13.83-.04c-8.57-.03-15.79-1.48-21.78-4.57-.17,0-.56-.09-.71-.09-.31,0-.44.07-.74.08-3.51,1.58-12.78,4.11-35.56,4.39h-.23s-13.49-.04-13.49-.04c-8.45-.03-15.65-1.48-21.57-4.41-.25-.16-.55-.16-.82-.16-.24,0-.56,0-.79.14-3.43,1.52-12.77,4.07-35.39,4.25,0,0-.2,0-.28,0l-11.42-.04c-18.82-.06-31.33-6.9-37.94-20.68-.32-.6-.84-.98-1.56-1.08h-.21c-.49,0-.97.26-1.37.57-12.01,14-29.28,20.96-51.09,20.89-14.16-.04-25.98-4.6-35.15-13.61-9.07-9.02-13.65-21.08-13.6-35.98.03-10.83,3.32-20.21,9.66-28.19,6.48-8.06,15.02-14.26,25.36-18.38,10.55-4.06,21.1-7.27,31.16-9.06,10.1-1.98,20.39-2.91,30.64-3.16,1,0,1.83-.93,1.83-1.8-.24-12.42-3.17-21.42-8.64-26.72-5.51-5.36-14.37-8.03-26.26-8.07-12.09-.04-25.38,3.33-39.4,10.23-4.55-3.13-6.76-10.56-7.93-16.14l-.92-7.66c0-.44-.13-.73-.13-1.09,18.94-9.92,38.73-14.8,59.02-14.73,20.07.06,35.16,5.57,44.84,16.56,9.89,10.99,14.68,29.55,14.6,54.87l-.14,42.69c-.04,13.36.95,21.61,3.2,25.45,2.24,4.27,7.33,6.31,15.24,6.34h4.47c1.28.02,7.4.04,12.16-.88.91-.26,1.63-1.16,1.46-2.13-.69-3.38-.91-6.74-.9-10.11l.54-171.1c.05-15.78,27.74-18.01,35.37-18.15l-.55,172.01c-.05,14.42,1.25,22.66,4.13,26.12,2.95,3.49,9.44,5.24,20.08,5.28.35,0,7.42-.21,12.56-1.7.93-.25,1.56-1.24,1.31-2.13-.58-3.38-.84-6.74-.83-10.11l.41-129.33,35.21.11-.36,111.99c-.05,14.42,1.26,22.66,4.19,26.12,2.9,3.49,9.46,5.24,20.04,5.28h0s1.34,0,3.26-.22c.54,0,1.1-.16,1.45-.7.28-.52.36-1.05.19-1.73-2-5.7-2.93-11.98-2.91-18.79.03-10.83,3.2-20.21,9.66-28.19,6.44-8.05,15.01-14.26,25.38-18.38,10.5-4.06,21.04-7.27,31.12-9.06,10.11-1.98,20.33-2.91,30.57-3.16,1.01,0,1.9-.93,1.83-1.8-.16-12.42-3.03-21.42-8.56-26.72-5.5-5.36-14.37-8.03-26.27-8.07-12.1-.04-25.23,3.33-39.4,10.23-4.81-3.39-7.01-11.31-8.06-17.41l-.61-5c-.03-.98-.18-1.83-.22-2.54,18.93-9.85,38.71-14.73,59.03-14.67,19.97.06,35.1,5.57,44.77,16.56,9.79,10.99,14.72,29.55,14.63,54.87l-.14,42.69c-.04,13.36,1.03,21.61,3.07,25.45,2.3,4.27,7.4,6.31,15.22,6.34h2.44s-3.39,28.79-3.39,28.79l-10.16-.03ZM726.21,457.32c-17.24.61-31.53,3.68-42.41,9.09-11.32,5.69-17.15,14.16-17.19,25.11-.05,16.01,8.93,24.22,25.97,24.28,5.8.02,11.92-1.3,18.4-4.17,6.48-2.85,11.99-6.68,16.53-11.74.25-.32.45-.72.45-1.24l.13-39.47c0-.5-.2-.85-.55-1.37-.4-.33-.78-.5-1.28-.5h-.06ZM422.73,456.36c-17.21.61-31.52,3.68-42.35,9.09-11.28,5.69-17.14,14.16-17.17,25.11-.05,16.01,8.95,24.23,25.92,24.28,5.8.02,11.99-1.3,18.44-4.17,6.36-2.85,11.94-6.68,16.49-11.74.35-.32.58-.72.58-1.24l.13-39.47c0-.5-.23-.86-.65-1.37-.25-.33-.79-.5-1.27-.5h-.12Z"/>
            </g>
            <path class="cls-4" d="M785.12,798.85c3.62-54.92,10.92-111.57,20.25-167.13-66.01,35.58-140.21,73.46-207.42,105.28,105.02,41.06,186.64,70.23,187.18,61.85Z"/>
          </g>
        </g>
        <g>
          <path class="cls-1" d="M517.37,862.33l-.07,23.21,21.3.07.04-11.63c.03-10.01-16.4-11.53-21.27-11.65Z"/>
          <path class="cls-1" d="M512.75,916.14l.06-19.7c-1.95-.35-3.32-.52-5.66-.53-10.15-.03-21.3,5.88-26.02,17.58h-.78s-.73-15.8-.73-15.8l-18.18-.06c.56,7.47.73,15.46.69,26.66l-.13,41.77c.09.49-.45.99-.92,1.12-2.48.46-6.54.45-7.2.45-4.12-.01-6.77-1.04-7.94-3.18-1.17-1.93-1.69-6.07-1.67-12.78l.07-21.44c.04-12.71-2.45-22.03-7.61-27.55-5.05-5.53-12.92-8.29-23.38-8.32-10.58-.03-20.89,2.41-30.76,7.39,0,.18.07.33.07.55l.48,3.85c.61,2.8,1.76,6.53,4.13,8.1,7.31-3.47,14.24-5.16,20.53-5.14,6.2.02,10.82,1.36,13.69,4.05,2.85,2.66,4.38,7.19,4.51,13.42,0,.43-.43.9-.96.9-5.34.13-10.71.6-15.97,1.59-5.24.9-10.74,2.51-16.24,4.55-5.39,2.07-9.84,5.19-13.22,9.23-3.3,4.01-5.02,8.72-5.03,14.16,0,1.57.12,3.07.33,4.51-4.85,2.72-10.87,3.22-14.65,3.21-9.17-.03-12.28-5.3-12.25-15.32l.12-36.51,21.49.07.05-15.62-21.49-.07.07-23.61-18.18,4.87-.06,18.68-13.67-.04-.05,15.62,13.67.04-.12,38.89c-.03,10.87,2.28,18.35,7.34,23.12,4.48,4.26,8.81,6.83,17.59,6.93,8.71.1,18.77-2.54,26.89-6.69-.26.15-.12.08,0,0,4.78,4.52,10.94,6.81,18.31,6.83,11.37.04,20.36-3.46,26.62-10.49.21-.16.46-.29.72-.29h.11c.38.05.65.24.81.54,3.45,6.92,9.97,10.36,19.78,10.39l6.1.02c11.79-.09,13.9-2.09,15.69-2.85.12-.07.29-.12.42-.13.19,0,.3.06.42.14,0,0,1.49,1.65,7.39,1.73,3.54.05,5.2-.58,5.2-.58l.14-42.8c0-2.38.4-4.58.8-6.45,2.18-9.33,10.01-15.76,21.53-15.73,2.93,0,5.07.36,7.02.7ZM425.91,959.76c0,.26-.13.46-.31.62-2.37,2.54-5.28,4.46-8.59,5.89-3.36,1.44-6.59,2.1-9.61,2.09-8.84-.03-13.53-4.15-13.51-12.2.02-5.5,3.07-9.75,8.95-12.61,5.64-2.71,13.1-4.25,22.07-4.56h.06c.25,0,.53.08.66.25.22.26.34.44.34.69l-.06,19.82Z"/>
          <path class="cls-1" d="M517.05,965.07c-.06,18-1.83,24.45-6.34,28.68-3.91,3.56-10.17,5.41-17.98,5.89l.94,16.31c11.91.04,23.84-2.81,32.25-9.58,8.61-7.44,12.35-18.14,12.41-35.29l.24-74.53-21.3-.07-.22,68.59Z"/>
          <path class="cls-1" d="M586.15,900.25c-27.45-.09-40.6,20.42-40.67,42.26-.08,24.11,14.9,39.84,42.7,39.93,12.31.04,22.52-2.03,29.92-4.76l-3.13-13.76c-6.52,2.25-13.73,3.52-23.76,3.48-13.72-.04-25.84-6.23-26.33-20.47l54.69.17c.36-1.78.72-4.69.73-8.41.05-17.31-6.35-38.36-34.15-38.45ZM564.93,933.03c.91-8.08,6.57-19.23,19.94-19.19,14.43.05,17.91,12.03,17.71,19.31l-37.65-.12Z"/>
          <path class="cls-1" d="M803.42,933.22c-12.57-3.78-20.58-6.11-20.55-12.82.02-6.44,8.89-10.3,17.82-10.27,8.73.03,16.93,3.28,21.19,5.34l4.53-13.61c-5.67-2.56-15.21-4.97-26.16-5.01-22.93-.07-33.48,13.18-33.52,25.88-.03,8.22,3.95,18.52,23.21,24.19,12.17,3.61,20.13,4.44,20.11,12.12-.02,7.42-8.81,9.14-19.77,9.11-8.93-.03-19.68-3.12-25.35-6.02l-.5,1.52c-.84,1.75-2.9,4.41-7.26,4.96h-2.37c-4.19-.02-6.88-1.05-8.07-3.19-1.19-1.93-1.72-6.07-1.7-12.78l.07-21.44c.04-12.71-2.5-22.03-7.74-27.55-5.13-5.52-13.13-8.29-23.76-8.32-10.75-.03-21.23,2.41-31.27,7.39,0,.18.07.33.07.55l.49,3.85c.62,2.8,1.79,6.53,4.2,8.1,7.43-3.47,14.47-5.15,20.87-5.14,6.3.02,10.99,1.36,13.91,4.05,2.9,2.66,4.45,7.19,4.58,13.42,0,.43-.44.9-.97.9-5.43.13-10.88.6-16.23,1.59-5.33.9-10.92,2.51-16.51,4.55-5.48,2.07-10,5.18-13.43,9.23-3.36,4.01-5.1,8.72-5.12,14.16,0,1.97.17,3.83.5,5.6-4.36,1.77-9.2,2.14-12.41,2.13-9.17-.03-12.28-5.3-12.25-15.32l.12-36.51,21.49.07.05-15.62-21.49-.07.08-23.61-18.18,4.87-.06,18.68-13.66-.04-.05,15.62,13.66.04-.12,38.89c-.04,10.87,2.28,18.35,7.35,23.12,4.48,4.26,10.46,6.76,19.24,6.85,8.71.1,13.91-1.05,22.03-5.2.1-.05.19-.1.29-.16.46-.22,1.43-.5,2.56.35l.02-.13c4.56,3.47,10.1,5.33,16.67,5.35,11.55.04,20.7-3.46,27.06-10.49.21-.16.47-.29.73-.29h.12c.38.05.66.24.83.54,3.5,6.92,10.13,10.36,20.1,10.39,12.07.04,13.89-3.01,15.71-3.78.12-.07.29-.07.42-.07h0c6.85,2.33,15.53,3.86,25.03,3.89,26.18.08,36.31-10.75,36.36-25.7.03-10.72-5.12-18.68-22.96-24.17ZM726.36,960.71c0,.26-.13.46-.31.62-2.41,2.54-5.37,4.46-8.74,5.89-3.42,1.43-6.7,2.1-9.77,2.09-8.99-.03-13.76-4.15-13.73-12.2.02-5.5,3.12-9.75,9.1-12.61,5.73-2.71,13.32-4.25,22.43-4.56h.06c.25,0,.54.08.67.25.22.26.34.44.34.69l-.06,19.82Z"/>
        </g>
      </g>
    </g>
  </g>
</svg>