<svg width="27" height="20" viewBox="0 0 27 20" fill="none" xmlns="http://www.w3.org/2000/svg">
<path d="M14.4897 10.8543C17.422 10.8685 20.0985 8.43492 20.0985 5.47433C20.0985 2.23677 17.422 -0.00107643 14.4897 3.88443e-07H11.9661C8.99866 -0.00107643 6.55615 2.23744 6.55615 5.47433C6.55615 8.43557 8.99866 10.8686 11.9661 10.8543H14.4897Z" fill="#0079BE"/>
<path d="M11.9783 0.449219C9.26676 0.45008 7.06949 2.67371 7.06885 5.41812C7.06949 8.16205 9.26674 10.3855 11.9783 10.3863C14.6906 10.3855 16.8883 8.16205 16.8887 5.41812C16.8883 2.67371 14.6906 0.45008 11.9783 0.449219ZM8.86635 5.41812C8.8689 4.07705 9.69677 2.93346 10.8642 2.47902V8.35652C9.69677 7.90234 8.86888 6.75938 8.86635 5.41812ZM13.0921 8.35781V2.47883C14.2599 2.93217 15.0891 4.0764 15.0912 5.41812C15.0891 6.76024 14.2599 7.90361 13.0921 8.35781Z" fill="white"/>
<path d="M14.4897 10.8543C17.422 10.8685 20.0985 8.43492 20.0985 5.47433C20.0985 2.23677 17.422 -0.00107643 14.4897 3.88443e-07H11.9661C8.99866 -0.00107643 6.55615 2.23744 6.55615 5.47433C6.55615 8.43557 8.99866 10.8686 11.9661 10.8543H14.4897Z" fill="#0079BE"/>
<path d="M11.9783 0.449219C9.26676 0.45008 7.06949 2.67371 7.06885 5.41812C7.06949 8.16205 9.26674 10.3855 11.9783 10.3863C14.6906 10.3855 16.8883 8.16205 16.8887 5.41812C16.8883 2.67371 14.6906 0.45008 11.9783 0.449219ZM8.86635 5.41812C8.8689 4.07705 9.69677 2.93346 10.8642 2.47902V8.35652C9.69677 7.90234 8.86888 6.75938 8.86635 5.41812ZM13.0921 8.35781V2.47883C14.2599 2.93217 15.0891 4.0764 15.0912 5.41812C15.0891 6.76024 14.2599 7.90361 13.0921 8.35781Z" fill="white"/>
<path d="M0.524735 13.1902C0.524735 12.6768 0.260113 12.7106 0.00636844 12.705V12.5566C0.226266 12.5676 0.451698 12.5676 0.672043 12.5676C0.90897 12.5676 1.23062 12.5566 1.64826 12.5566C3.10899 12.5566 3.9045 13.5439 3.9045 14.5548C3.9045 15.1201 3.57754 16.5413 1.58035 16.5413C1.29276 16.5413 1.02731 16.5301 0.76228 16.5301C0.508536 16.5301 0.260113 16.5357 0.00634766 16.5413V16.3931C0.344624 16.3586 0.508536 16.3472 0.524715 15.9589V13.1902H0.524735ZM1.07778 15.8678C1.07778 16.3074 1.38836 16.3587 1.66467 16.3587C2.88358 16.3587 3.28378 15.4281 3.28378 14.5774C3.28378 13.5103 2.60663 12.7397 1.51802 12.7397C1.28642 12.7397 1.17998 12.7565 1.0778 12.7625L1.07778 15.8678Z" fill="#211E1F"/>
<path d="M4.10254 16.3918H4.2094C4.36714 16.3918 4.4802 16.3918 4.4802 16.2029V14.6562C4.4802 14.4053 4.39567 14.3704 4.18686 14.2569V14.1654C4.45188 14.0848 4.76824 13.9771 4.79035 13.9599C4.83016 13.9371 4.86379 13.9311 4.89211 13.9311C4.92001 13.9311 4.9317 13.9655 4.9317 14.0114V16.2029C4.9317 16.3918 5.05581 16.3918 5.21376 16.3918H5.30955V16.5402C5.11752 16.5402 4.91999 16.5288 4.71734 16.5288C4.51426 16.5288 4.31096 16.5344 4.10256 16.5402V16.3918H4.10254ZM4.70603 13.0521C4.55917 13.0521 4.42975 12.9152 4.42975 12.7668C4.42975 12.6238 4.56513 12.4922 4.70603 12.4922C4.85228 12.4922 4.98256 12.6126 4.98256 12.7668C4.98256 12.921 4.85805 13.0521 4.70603 13.0521Z" fill="#211E1F"/>
<path d="M5.8455 14.6908C5.8455 14.4797 5.78311 14.4229 5.51853 14.3143V14.206C5.76099 14.1261 5.99198 14.0518 6.26293 13.9317C6.27977 13.9317 6.29635 13.9433 6.29635 13.9887V14.36C6.61845 14.1261 6.89497 13.9316 7.27344 13.9316C7.7524 13.9316 7.92161 14.2857 7.92161 14.7308V16.2035C7.92161 16.3924 8.04572 16.3924 8.20389 16.3924H8.30545V16.5408C8.10745 16.5408 7.91014 16.5294 7.70749 16.5294C7.50417 16.5294 7.30086 16.535 7.09801 16.5408V16.3924H7.19934C7.35769 16.3924 7.46992 16.3924 7.46992 16.2035V14.7255C7.46992 14.3996 7.27344 14.24 6.95134 14.24C6.77106 14.24 6.48323 14.3884 6.29633 14.5142V16.2035C6.29633 16.3924 6.42105 16.3924 6.57926 16.3924H6.68058V16.5408C6.48323 16.5408 6.28547 16.5293 6.08241 16.5293C5.87952 16.5293 5.67603 16.535 5.47314 16.5408V16.3924H5.5749C5.73285 16.3924 5.84546 16.3924 5.84546 16.2035V14.6908H5.8455Z" fill="#211E1F"/>
<path d="M8.73426 14.9652C8.72253 15.0167 8.72253 15.1021 8.73426 15.2964C8.76749 15.8385 9.11253 16.2837 9.56317 16.2837C9.87375 16.2837 10.1168 16.1124 10.3253 15.9014L10.404 15.9815C10.1443 16.3295 9.82285 16.6263 9.36051 16.6263C8.46325 16.6263 8.28271 15.7469 8.28271 15.3819C8.28271 14.2629 9.02734 13.9316 9.42201 13.9316C9.87926 13.9316 10.3704 14.2226 10.3757 14.8278C10.3757 14.8624 10.3757 14.8963 10.3704 14.9309L10.3193 14.9652H8.73426ZM9.73306 14.7823C9.87375 14.7823 9.89039 14.708 9.89039 14.6398C9.89039 14.3486 9.7156 14.1145 9.39949 14.1145C9.0557 14.1145 8.81875 14.371 8.75106 14.7823H9.73306Z" fill="#211E1F"/>
<path d="M10.5059 16.3924H10.6583C10.8158 16.3924 10.9286 16.3924 10.9286 16.2035V14.5997C10.9286 14.4229 10.7202 14.3884 10.6353 14.3428V14.2575C11.0472 14.0802 11.273 13.9316 11.3243 13.9316C11.3578 13.9316 11.3744 13.9489 11.3744 14.0062V14.5198H11.3863C11.527 14.2973 11.7644 13.9316 12.1081 13.9316C12.2493 13.9316 12.4296 14.0286 12.4296 14.2342C12.4296 14.3884 12.3227 14.5258 12.1648 14.5258C11.9892 14.5258 11.9892 14.3884 11.7921 14.3884C11.696 14.3884 11.3804 14.5198 11.3804 14.8624V16.2035C11.3804 16.3924 11.4929 16.3924 11.6511 16.3924H11.9668V16.5408C11.6564 16.535 11.4204 16.5294 11.1773 16.5294C10.9461 16.5294 10.7089 16.535 10.5059 16.5408V16.3924H10.5059Z" fill="#211E1F"/>
<path d="M12.6779 15.7469C12.7514 16.1238 12.9768 16.4436 13.3889 16.4436C13.721 16.4436 13.8453 16.2382 13.8453 16.0383C13.8453 15.3647 12.6158 15.5815 12.6158 14.6626C12.6158 14.3428 12.8699 13.9316 13.4902 13.9316C13.6706 13.9316 13.913 13.9833 14.1329 14.0977L14.1729 14.6794H14.0429C13.9867 14.3202 13.7894 14.1145 13.4279 14.1145C13.2022 14.1145 12.9881 14.2459 12.9881 14.4912C12.9881 15.1597 14.2968 14.9536 14.2968 15.8497C14.2968 16.2264 13.9977 16.6263 13.3263 16.6263C13.1007 16.6263 12.8356 16.5464 12.6383 16.4325L12.5762 15.7758L12.6779 15.7469Z" fill="#211E1F"/>
<path d="M19.3912 13.5899H19.2504C19.1432 12.9223 18.6748 12.6538 18.0432 12.6538C17.394 12.6538 16.4518 13.0931 16.4518 14.463C16.4518 15.617 17.2647 16.4444 18.1333 16.4444C18.6916 16.4444 19.1546 16.0563 19.2675 15.4567L19.3969 15.4908L19.2675 16.3242C19.0305 16.473 18.393 16.627 18.0202 16.627C16.7004 16.627 15.8657 15.7649 15.8657 14.4805C15.8657 13.3102 16.8979 12.4707 18.0036 12.4707C18.4605 12.4707 18.9005 12.6197 19.3349 12.7739L19.3912 13.5899Z" fill="#211E1F"/>
<path d="M23.2171 16.2264C23.2171 16.3296 23.2788 16.3352 23.3746 16.3352C23.4425 16.3352 23.5268 16.3296 23.6004 16.3296V16.4497C23.3576 16.4724 22.895 16.5923 22.7877 16.6263L22.7594 16.6091V16.1472C22.4214 16.4267 22.1614 16.6263 21.7606 16.6263C21.456 16.6263 21.1401 16.4267 21.1401 15.9475V14.4856C21.1401 14.3372 21.1177 14.1944 20.8022 14.166V14.0575C21.0056 14.0519 21.456 14.0176 21.5296 14.0176C21.5922 14.0176 21.5922 14.0575 21.5922 14.183V15.6554C21.5922 15.8271 21.5922 16.3179 22.0827 16.3179C22.2745 16.3179 22.5282 16.1695 22.765 15.9703V14.4339C22.765 14.3202 22.4944 14.2575 22.2917 14.2002V14.0975C22.7988 14.063 23.1153 14.0176 23.1713 14.0176C23.2171 14.0176 23.2171 14.0574 23.2171 14.1205V16.2264H23.2171Z" fill="#211E1F"/>
<path d="M24.3395 14.3435C24.565 14.1494 24.8695 13.9323 25.1801 13.9323C25.8347 13.9323 26.2292 14.5095 26.2292 15.1312C26.2292 15.879 25.6878 16.627 24.8806 16.627C24.4634 16.627 24.2435 16.4898 24.0966 16.4273L23.9276 16.5582L23.8094 16.4958C23.8595 16.159 23.8882 15.8277 23.8882 15.4797V13.025C23.8882 12.6537 23.803 12.6423 23.5889 12.5796V12.4883C23.8152 12.4142 24.0514 12.3113 24.17 12.2426C24.2322 12.2085 24.2771 12.1797 24.2946 12.1797C24.3282 12.1797 24.3395 12.2142 24.3395 12.26V14.3434H24.3395V14.3435ZM24.3395 15.896C24.3395 16.1131 24.5424 16.4788 24.9204 16.4788C25.5241 16.4788 25.7779 15.879 25.7779 15.3708C25.7779 14.7544 25.3157 14.2408 24.8755 14.2408C24.6663 14.2408 24.4917 14.3779 24.3395 14.5095V15.896H24.3395Z" fill="#211E1F"/>
<path d="M0 19.8598H0.0432124C0.15348 19.8598 0.270135 19.8447 0.270135 19.6829V18.0557C0.270135 17.8937 0.15348 17.8784 0.0432124 17.8784H0V17.7852C0.119847 17.7852 0.303981 17.7974 0.454908 17.7974C0.608175 17.7974 0.792097 17.7852 0.936424 17.7852V17.8784H0.89321C0.783156 17.8784 0.66631 17.8937 0.66631 18.0557V19.6829C0.66631 19.8447 0.783156 19.8598 0.89321 19.8598H0.936424V19.9535C0.789117 19.9535 0.604556 19.9412 0.451501 19.9412C0.301022 19.9412 0.119847 19.9535 0 19.9535V19.8598Z" fill="#211E1F"/>
<path d="M3.04525 19.3412L3.0514 19.3352V18.1705C3.0514 17.9155 2.87623 17.8784 2.78426 17.8784H2.71655V17.7852C2.86109 17.7852 3.00222 17.7974 3.14634 17.7974C3.27213 17.7974 3.39859 17.7852 3.52419 17.7852V17.8784H3.47821C3.34899 17.8784 3.20467 17.9032 3.20467 18.2728V19.6864C3.20467 19.795 3.20784 19.9035 3.22295 19.9998H3.10611L1.52552 18.2168V19.4967C1.52552 19.767 1.57725 19.8598 1.81397 19.8598H1.86589V19.9535C1.73414 19.9535 1.60235 19.9412 1.47016 19.9412C1.33243 19.9412 1.1911 19.9535 1.05273 19.9535V19.8598H1.09573C1.30754 19.8598 1.37185 19.7142 1.37185 19.4659V18.1576C1.37185 17.9838 1.23029 17.8785 1.09278 17.8785H1.05276V17.7852C1.16939 17.7852 1.28904 17.7975 1.40549 17.7975C1.49764 17.7975 1.58685 17.7852 1.67879 17.7852L3.04525 19.3412Z" fill="#211E1F"/>
<path d="M3.98387 17.941C3.75333 17.941 3.7446 17.997 3.69862 18.2235H3.60645C3.61858 18.1367 3.63391 18.05 3.64327 17.9595C3.6556 17.8725 3.66156 17.7859 3.66156 17.6959H3.73543C3.76012 17.7891 3.83677 17.7859 3.92001 17.7859H5.50357C5.58657 17.7859 5.66323 17.7829 5.66961 17.6895L5.74282 17.7019C5.7309 17.7859 5.71855 17.8697 5.70918 17.9537C5.70365 18.0375 5.70365 18.1215 5.70365 18.205L5.61126 18.2397C5.60488 18.1249 5.58955 17.941 5.38413 17.941H4.88068V19.5937C4.88068 19.8332 4.98821 19.8605 5.13507 19.8605H5.19361V19.9542C5.07397 19.9542 4.85878 19.9419 4.69335 19.9419C4.50924 19.9419 4.294 19.9542 4.17416 19.9542V19.8605H4.2327C4.40193 19.8605 4.48751 19.8452 4.48751 19.6001V17.941H3.98387Z" fill="#211E1F"/>
<path d="M5.84131 19.8598H5.88452C5.99481 19.8598 6.11164 19.8447 6.11164 19.6829V18.0557C6.11164 17.8937 5.99481 17.8784 5.88452 17.8784H5.84131V17.7852C6.02821 17.7852 6.34797 17.7974 6.60529 17.7974C6.86374 17.7974 7.18241 17.7852 7.39101 17.7852C7.38594 17.9185 7.38869 18.1239 7.39782 18.2603L7.30522 18.2852C7.29055 18.0835 7.2537 17.9221 6.9312 17.9221H6.50484V18.7356H6.86972C7.05382 18.7356 7.09407 18.6303 7.11216 18.4621H7.20413C7.19819 18.5837 7.19497 18.7048 7.19497 18.8258C7.19497 18.9441 7.19817 19.0619 7.20413 19.1799L7.11216 19.1984C7.09407 19.0121 7.08472 18.8911 6.87268 18.8911H6.50486V19.6145C6.50486 19.8167 6.68218 19.8167 6.87888 19.8167C7.24734 19.8167 7.40976 19.7915 7.50196 19.4379L7.58798 19.4592C7.54773 19.6242 7.51111 19.7885 7.48386 19.9535C7.28717 19.9535 6.93401 19.9412 6.6581 19.9412C6.38137 19.9412 6.01633 19.9535 5.84131 19.9535V19.8598Z" fill="#211E1F"/>
<path d="M8.00184 18.1144C8.00184 17.8879 7.87923 17.8786 7.78365 17.8786H7.72852V17.7852C7.82684 17.7852 8.01694 17.7976 8.20429 17.7976C8.38842 17.7976 8.53594 17.7852 8.69839 17.7852C9.08492 17.7852 9.42918 17.8909 9.42918 18.3324C9.42918 18.6113 9.24505 18.7823 9.00256 18.879L9.52729 19.6737C9.61327 19.8051 9.67439 19.8419 9.8251 19.86V19.9537C9.72378 19.9537 9.62541 19.9414 9.52429 19.9414C9.42916 19.9414 9.33058 19.9537 9.23583 19.9537C8.99954 19.6399 8.79648 19.3043 8.597 18.9468H8.39502V19.6119C8.39502 19.8514 8.50507 19.86 8.64619 19.86H8.70154V19.9537C8.52613 19.9537 8.34885 19.9414 8.17363 19.9414C8.02611 19.9414 7.88176 19.9537 7.72852 19.9537V19.86H7.78365C7.89773 19.86 8.00184 19.8079 8.00184 19.6926V18.1144ZM8.39498 18.8351H8.54486C8.85204 18.8351 9.01742 18.7171 9.01742 18.3505C9.01742 18.0744 8.84267 17.8971 8.56913 17.8971C8.47695 17.8971 8.43779 17.9068 8.39496 17.9096V18.8351H8.39498Z" fill="#211E1F"/>
<path d="M11.9093 19.3412L11.9148 19.3352V18.1705C11.9148 17.9155 11.74 17.8784 11.6481 17.8784H11.5808V17.7852C11.7249 17.7852 11.8659 17.7974 12.0104 17.7974C12.1364 17.7974 12.2618 17.7852 12.3884 17.7852V17.8784H12.3423C12.2133 17.8784 12.0689 17.9032 12.0689 18.2728V19.6864C12.0689 19.795 12.0719 19.9035 12.087 19.9998H11.9706L10.3898 18.2168V19.4967C10.3898 19.767 10.4419 19.8598 10.6782 19.8598H10.7304V19.9535C10.5986 19.9535 10.4664 19.9412 10.3347 19.9412C10.196 19.9412 10.0549 19.9535 9.91699 19.9535V19.8598H9.95957C10.1716 19.8598 10.2361 19.7142 10.2361 19.4659V18.1576C10.2361 17.9838 10.0949 17.8785 9.95703 17.8785H9.91699V17.7852C10.0332 17.7852 10.1535 17.7975 10.2699 17.7975C10.3615 17.7975 10.4509 17.7852 10.5431 17.7852L11.9093 19.3412Z" fill="#211E1F"/>
<path d="M12.8823 19.509C12.8512 19.6143 12.8142 19.6957 12.8142 19.751C12.8142 19.8445 12.9434 19.8596 13.0443 19.8596H13.0786V19.9533C12.9556 19.9466 12.8302 19.941 12.7065 19.941C12.596 19.941 12.4862 19.9466 12.3755 19.9533V19.8596H12.394C12.5136 19.8596 12.6152 19.7883 12.6605 19.6576L13.1522 18.2323C13.1919 18.1173 13.2476 17.962 13.2662 17.8468C13.3639 17.813 13.4869 17.751 13.545 17.7135C13.5546 17.7103 13.5599 17.707 13.5695 17.707C13.5787 17.707 13.5846 17.707 13.5914 17.7167C13.6004 17.7413 13.6093 17.7695 13.6191 17.7943L14.1838 19.419C14.2207 19.5275 14.257 19.6423 14.2969 19.7358C14.3339 19.8228 14.3986 19.8596 14.5002 19.8596H14.5183V19.9533C14.3802 19.9466 14.2418 19.941 14.0949 19.941C13.9444 19.941 13.7905 19.9466 13.634 19.9533V19.8596H13.6681C13.7383 19.8596 13.8584 19.8475 13.8584 19.7698C13.8584 19.7295 13.8307 19.6457 13.7965 19.546L13.677 19.1857H12.9803L12.8823 19.509ZM13.3302 18.1328H13.324L13.0385 19.0119H13.6123L13.3302 18.1328Z" fill="#211E1F"/>
<path d="M14.6533 17.941C14.423 17.941 14.4138 17.997 14.3676 18.2235H14.2754C14.2875 18.1367 14.3031 18.05 14.3127 17.9595C14.325 17.8725 14.3306 17.7859 14.3306 17.6959H14.4046C14.4291 17.7891 14.5062 17.7859 14.5886 17.7859H16.173C16.2554 17.7859 16.332 17.7829 16.3384 17.6895L16.4118 17.7019C16.4001 17.7859 16.388 17.8697 16.3786 17.9537C16.372 18.0375 16.372 18.1215 16.372 18.205L16.2801 18.2397C16.2743 18.1249 16.259 17.941 16.0531 17.941H15.5497V19.5937C15.5497 19.8332 15.6574 19.8605 15.8043 19.8605H15.8626V19.9542C15.743 19.9542 15.5284 19.9419 15.3623 19.9419C15.1784 19.9419 14.9632 19.9542 14.8436 19.9542V19.8605H14.9017C15.0709 19.8605 15.1569 19.8452 15.1569 19.6001V17.941H14.6533Z" fill="#211E1F"/>
<path d="M16.5254 19.8598H16.5684C16.6793 19.8598 16.7953 19.8447 16.7953 19.6829V18.0557C16.7953 17.8937 16.6793 17.8784 16.5684 17.8784H16.5254V17.7852C16.6453 17.7852 16.8292 17.7974 16.9792 17.7974C17.1334 17.7974 17.3175 17.7852 17.4618 17.7852V17.8784H17.4188C17.3084 17.8784 17.1913 17.8937 17.1913 18.0557V19.6829C17.1913 19.8447 17.3084 19.8598 17.4188 19.8598H17.4618V19.9535C17.3143 19.9535 17.13 19.9412 16.9769 19.9412C16.8262 19.9412 16.6453 19.9535 16.5254 19.9535V19.8598Z" fill="#211E1F"/>
<path d="M21.9305 19.3412L21.9367 19.3352V18.1705C21.9367 17.9155 21.7613 17.8784 21.6691 17.8784H21.6027V17.7852C21.7466 17.7852 21.8877 17.7974 22.0316 17.7974C22.1578 17.7974 22.2836 17.7852 22.4097 17.7852V17.8784H22.3633C22.2347 17.8784 22.0901 17.9032 22.0901 18.2728V19.6864C22.0901 19.795 22.0931 19.9035 22.1087 19.9998H21.9922L20.411 18.2168V19.4967C20.411 19.767 20.4629 19.8598 20.6992 19.8598H20.7518V19.9535C20.6196 19.9535 20.4879 19.9412 20.3558 19.9412C20.2177 19.9412 20.0761 19.9535 19.938 19.9535V19.8598H19.9812C20.1934 19.8598 20.2571 19.7142 20.2571 19.4659V18.1576C20.2571 17.9838 20.1165 17.8785 19.978 17.8785H19.938V17.7852C20.0546 17.7852 20.1745 17.7975 20.2909 17.7975C20.3831 17.7975 20.4719 17.7852 20.5643 17.7852L21.9305 19.3412Z" fill="#211E1F"/>
<path d="M25.3134 19.6489C25.3134 19.7732 25.3986 19.8102 25.497 19.8229C25.6228 19.8324 25.7609 19.8324 25.9027 19.8167C26.0313 19.801 26.142 19.7265 26.1969 19.6489C26.2458 19.5804 26.2735 19.4934 26.292 19.4252H26.381C26.3474 19.6022 26.3044 19.7766 26.2673 19.9534C25.9978 19.9534 25.7271 19.9412 25.4573 19.9412C25.1868 19.9412 24.9171 19.9534 24.647 19.9534V19.8597H24.6891C24.8002 19.8597 24.9203 19.8447 24.9203 19.6519V18.0557C24.9203 17.8937 24.8002 17.8784 24.6891 17.8784H24.647V17.7852C24.8092 17.7852 24.969 17.7974 25.1315 17.7974C25.2885 17.7974 25.4418 17.7852 25.5985 17.7852V17.8784H25.5212C25.405 17.8784 25.3134 17.8819 25.3134 18.046V19.6489Z" fill="#211E1F"/>
<path d="M26.3434 17.6973C26.5284 17.6973 26.6665 17.8411 26.6665 18.0255C26.6665 18.209 26.5284 18.3515 26.3434 18.3515C26.1584 18.3515 26.02 18.209 26.02 18.0255C26.02 17.8412 26.1584 17.6973 26.3434 17.6973ZM26.3434 18.2906C26.4879 18.2906 26.5991 18.1657 26.5991 18.0255C26.5991 17.8844 26.4896 17.7584 26.3434 17.7584C26.198 17.7584 26.0869 17.8844 26.0869 18.0255C26.0869 18.1657 26.198 18.2906 26.3434 18.2906ZM26.1824 18.1978V18.1816C26.2222 18.176 26.2295 18.1773 26.2295 18.1523V17.9103C26.2295 17.8763 26.2258 17.8646 26.1839 17.8663V17.8497H26.3493C26.4064 17.8497 26.4585 17.8771 26.4585 17.9365C26.4585 17.9852 26.4266 18.0212 26.3821 18.0352L26.4351 18.1101C26.46 18.1441 26.4879 18.176 26.5064 18.1872V18.1978H26.4434C26.4132 18.1978 26.3868 18.1334 26.3272 18.047H26.2914V18.1558C26.2914 18.1773 26.2989 18.176 26.3387 18.1816V18.1978H26.1824V18.1978ZM26.2914 18.0255H26.3295C26.3712 18.0255 26.3908 17.9934 26.3908 17.9419C26.3908 17.8898 26.3606 17.8715 26.3274 17.8715H26.2914V18.0255Z" fill="#211E1F"/>
<path d="M19.5948 16.3931H19.7016C19.8598 16.3931 19.973 16.3931 19.973 16.2042V13.025C19.973 12.6537 19.8883 12.6423 19.6737 12.5796V12.4883C19.8994 12.4142 20.1363 12.3113 20.2549 12.2426C20.3164 12.2086 20.3619 12.1797 20.3785 12.1797C20.413 12.1797 20.4243 12.2142 20.4243 12.26V16.2042C20.4243 16.3931 20.5482 16.3931 20.7064 16.3931H20.8015V16.5415C20.6106 16.5415 20.4131 16.5301 20.2097 16.5301C20.0069 16.5301 19.8038 16.5357 19.5947 16.5415V16.3931H19.5948Z" fill="#211E1F"/>
<path d="M18.686 17.7383C19.3403 17.7383 19.8619 18.1488 19.8619 18.8101C19.8619 19.5247 19.3554 19.9996 18.7019 19.9996C18.0505 19.9996 17.5537 19.5523 17.5537 18.8844C17.5537 18.2386 18.0476 17.7383 18.686 17.7383ZM18.7324 19.8628C19.328 19.8628 19.4317 19.3313 19.4317 18.8784C19.4317 18.4244 19.1899 17.8748 18.68 17.8748C18.1427 17.8748 17.9833 18.3594 17.9833 18.7753C17.9833 19.3313 18.2349 19.8628 18.7324 19.8628Z" fill="#211E1F"/>
<path d="M22.9028 19.509C22.8727 19.6143 22.8355 19.6957 22.8355 19.751C22.8355 19.8445 22.9647 19.8596 23.0654 19.8596H23.0997V19.9533C22.9768 19.9466 22.8508 19.941 22.728 19.941C22.6171 19.941 22.507 19.9466 22.397 19.9533V19.8596H22.4144C22.5347 19.8596 22.6365 19.7883 22.6818 19.6576L23.1736 18.2323C23.2131 18.1173 23.2687 17.962 23.2866 17.8468C23.3849 17.813 23.5076 17.751 23.5665 17.7135C23.5752 17.7103 23.5814 17.707 23.5908 17.707C23.5999 17.707 23.6057 17.707 23.6119 17.7167C23.6212 17.7413 23.6308 17.7695 23.64 17.7943L24.2045 19.419C24.2413 19.5275 24.278 19.6423 24.3184 19.7358C24.3552 19.8228 24.4199 19.8596 24.5208 19.8596H24.5396V19.9533C24.4012 19.9466 24.2631 19.941 24.1155 19.941C23.9654 19.941 23.8118 19.9466 23.6551 19.9533V19.8596H23.6892C23.7592 19.8596 23.8797 19.8475 23.8797 19.7698C23.8797 19.7295 23.8518 19.6457 23.8175 19.546L23.6983 19.1857H23.0014L22.9028 19.509ZM23.3515 18.1328H23.3453L23.0595 19.0119H23.634L23.3515 18.1328Z" fill="#211E1F"/>
</svg>
