<svg width="20" height="20" viewBox="0 0 20 20" fill="none" xmlns="http://www.w3.org/2000/svg">
<path d="M0 0H19.9503V10.7966L18.9628 12.3434L19.9503 13.72V20H0V9.82212L0.61718 9.11059L0 8.43001V0Z" fill="#016FD0"/>
<path d="M3.87305 13.9369V10.7969H7.18945L7.54527 11.2619L7.91285 10.7969H19.9506V13.7203C19.9506 13.7203 19.6358 13.9337 19.2717 13.9369H12.6061L12.205 13.4419V13.9369H10.8904V13.0919C10.8904 13.0919 10.7108 13.2099 10.3226 13.2099H9.87512V13.9369H7.88472L7.52941 13.4619L7.16865 13.9369H3.87305Z" fill="white"/>
<path d="M0 8.42951L0.747862 6.68164H2.04121L2.46563 7.66073V6.68164H4.07339L4.32604 7.38929L4.57099 6.68164H11.7881V7.0374C11.7881 7.0374 12.1675 6.68164 12.791 6.68164L15.1327 6.68984L15.5498 7.65612V6.68164H16.8953L17.2656 7.23669V6.68164H18.6234V9.82162H17.2656L16.9107 9.26478V9.82162H14.934L14.7352 9.32665H14.2037L14.0082 9.82162H12.6676C12.1311 9.82162 11.7881 9.47312 11.7881 9.47312V9.82162H9.76687L9.3657 9.32665V9.82162H1.84961L1.65096 9.32665H1.12123L0.923978 9.82162H0V8.42951Z" fill="white"/>
<path d="M1.01261 7.06836L0.00390625 9.41948H0.660624L0.846743 8.94868H1.92874L2.11389 9.41948H2.78507L1.77733 7.06836H1.01261ZM1.38581 7.61554L1.71562 8.43824H1.05504L1.38581 7.61554Z" fill="#016FD0"/>
<path d="M2.85449 9.41948V7.06836L3.78772 7.07183L4.33052 8.58769L4.86033 7.06836H5.7861V9.41948H5.19978V7.68708L4.57826 9.41948H4.06406L3.44081 7.68708V9.41948H2.85449Z" fill="#016FD0"/>
<path d="M6.18701 9.41948V7.06836H8.10027V7.59427H6.7795V7.99643H8.06941V8.49141H6.7795V8.90904H8.10027V9.41948H6.18701Z" fill="#016FD0"/>
<path d="M8.43994 7.06836V9.41948H9.02626V8.58421H9.27313L9.97614 9.41948H10.6926L9.92117 8.55328C10.2378 8.52649 10.5644 8.25407 10.5644 7.83112C10.5644 7.33636 10.177 7.06836 9.7447 7.06836H8.43994ZM9.02626 7.59427H9.69648C9.85726 7.59427 9.97421 7.72034 9.97421 7.84175C9.97421 7.99795 9.82268 8.08924 9.70516 8.08924H9.02626V7.59427Z" fill="#016FD0"/>
<path d="M11.4024 9.41948H10.8037V7.06836H11.4024V9.41948Z" fill="#016FD0"/>
<path d="M12.8221 9.41948H12.6928C12.0676 9.41948 11.688 8.92567 11.688 8.25359C11.688 7.5649 12.0633 7.06836 12.8529 7.06836H13.501V7.6252H12.8292C12.5087 7.6252 12.282 7.87596 12.282 8.25939C12.282 8.71471 12.5412 8.90595 12.9146 8.90595H13.0689L12.8221 9.41948Z" fill="#016FD0"/>
<path d="M14.0976 7.06836L13.0889 9.41948H13.7456L13.9317 8.94868H15.0137L15.1989 9.41948H15.87L14.8623 7.06836H14.0976ZM14.4708 7.61554L14.8006 8.43824H14.14L14.4708 7.61554Z" fill="#016FD0"/>
<path d="M15.9385 9.41948V7.06836H16.6839L17.6357 8.54554V7.06836H18.222V9.41948H17.5007L16.5248 7.90363V9.41948H15.9385Z" fill="#016FD0"/>
<path d="M4.27393 13.5347V11.1836H6.18719V11.7095H4.86642V12.1117H6.15633V12.6066H4.86642V13.0243H6.18719V13.5347H4.27393Z" fill="#016FD0"/>
<path d="M13.6489 13.5347V11.1836H15.5622V11.7095H14.2414V12.1117H15.5252V12.6066H14.2414V13.0243H15.5622V13.5347H13.6489Z" fill="#016FD0"/>
<path d="M6.26144 13.5347L7.19299 12.3737L6.23926 11.1836H6.97794L7.54594 11.9193L8.11587 11.1836H8.82563L7.88443 12.3592L8.8177 13.5347H8.07913L7.52762 12.8106L6.98952 13.5347H6.26144Z" fill="#016FD0"/>
<path d="M8.88721 11.1836V13.5347H9.48896V12.7923H10.1061C10.6284 12.7923 11.0242 12.5145 11.0242 11.9744C11.0242 11.527 10.7137 11.1836 10.1823 11.1836H8.88721ZM9.48896 11.7153H10.1389C10.3076 11.7153 10.4282 11.819 10.4282 11.986C10.4282 12.1429 10.3082 12.2567 10.137 12.2567H9.48896V11.7153Z" fill="#016FD0"/>
<path d="M11.2788 11.1836V13.5347H11.8651V12.6994H12.112L12.815 13.5347H13.5315L12.76 12.6685C13.0767 12.6417 13.4033 12.3693 13.4033 11.9464C13.4033 11.4516 13.0159 11.1836 12.5836 11.1836H11.2788ZM11.8651 11.7095H12.5353C12.6961 11.7095 12.8131 11.8356 12.8131 11.957C12.8131 12.1132 12.6615 12.2045 12.544 12.2045H11.8651V11.7095Z" fill="#016FD0"/>
<path d="M15.8337 13.5347V13.0243H17.0071C17.1808 13.0243 17.2559 12.9302 17.2559 12.8271C17.2559 12.7282 17.181 12.6283 17.0071 12.6283H16.4769C16.016 12.6283 15.7593 12.3468 15.7593 11.9241C15.7593 11.5471 15.9943 11.1836 16.6793 11.1836H17.821L17.5742 11.7126H16.5867C16.3979 11.7126 16.3398 11.8119 16.3398 11.9067C16.3398 12.0042 16.4116 12.1117 16.5558 12.1117H17.1113C17.6251 12.1117 17.848 12.4038 17.848 12.7865C17.848 13.1978 17.5996 13.5347 17.0833 13.5347H15.8337Z" fill="#016FD0"/>
<path d="M17.9856 13.5347V13.0243H19.159C19.3326 13.0243 19.4078 12.9302 19.4078 12.8271C19.4078 12.7282 19.3329 12.6283 19.159 12.6283H18.6287C18.1678 12.6283 17.9111 12.3468 17.9111 11.9241C17.9111 11.5471 18.1462 11.1836 18.8311 11.1836H19.9729L19.726 11.7126H18.7385C18.5498 11.7126 18.4917 11.8119 18.4917 11.9067C18.4917 12.0042 18.5635 12.1117 18.7077 12.1117H19.2631C19.7769 12.1117 19.9999 12.4038 19.9999 12.7865C19.9999 13.1978 19.7515 13.5347 19.2352 13.5347H17.9856Z" fill="#016FD0"/>
</svg>
