<svg width="57" height="27" viewBox="0 0 57 27" fill="none" xmlns="http://www.w3.org/2000/svg">
<path d="M57 10.037C57 10.037 40.6671 21.7478 10.7561 27H57V10.037Z" fill="#F48120"/>
<path d="M2.4868 0.258255H0V9.11877H2.4868C3.80133 9.11877 4.75255 8.79716 5.59206 8.10371C6.59031 7.26561 7.17585 6.00904 7.17585 4.70465C7.16057 2.07914 5.24403 0.258255 2.4868 0.258255ZM4.48329 6.92725C3.94478 7.41027 3.264 7.63624 2.15405 7.63624H1.69549V1.77307H2.15522C3.24871 1.77307 3.91421 1.96675 4.48447 2.48205C5.07119 3.01409 5.41922 3.83546 5.41922 4.68911C5.41804 5.54276 5.06883 6.39641 4.48329 6.92725Z" fill="#231F20"/>
<path d="M9.64849 0.258255H7.953V9.11877H9.64849V0.258255Z" fill="#231F20"/>
<path d="M13.7979 3.65731C12.7843 3.27113 12.4833 3.01289 12.4833 2.54541C12.4833 1.98109 13.0218 1.56264 13.7508 1.56264C14.2576 1.56264 14.6856 1.77186 15.1136 2.28716L16.0013 1.1107C15.2723 0.466282 14.401 0.12793 13.4345 0.12793C11.8978 0.12793 10.7102 1.22309 10.7102 2.67334C10.7102 3.89762 11.2652 4.52531 12.849 5.10636C13.5145 5.34787 13.8473 5.50928 14.0213 5.60612C14.354 5.83209 14.528 6.1537 14.528 6.52433C14.528 7.24886 13.9731 7.7809 13.2135 7.7809C12.4057 7.7809 11.7555 7.36244 11.3605 6.60444L10.267 7.68405C11.043 8.86051 11.9942 9.37581 13.277 9.37581C15.036 9.37581 16.287 8.18381 16.287 6.45977C16.3176 5.02626 15.7309 4.38184 13.7979 3.65731Z" fill="#231F20"/>
<path d="M16.8397 4.70465C16.8397 7.31462 18.8515 9.32799 21.4335 9.32799C22.1625 9.32799 22.7963 9.18333 23.5558 8.8127V6.78258C22.8751 7.47483 22.273 7.74862 21.5123 7.74862C19.8015 7.74862 18.5811 6.49206 18.5811 4.68791C18.5811 2.98061 19.8321 1.64274 21.4324 1.64274C22.2401 1.64274 22.8586 1.93327 23.5547 2.64106V0.61095C22.8104 0.224775 22.1919 0.0633698 21.4629 0.0633698C18.915 0.0645653 16.8397 2.12696 16.8397 4.70465Z" fill="#231F20"/>
<path d="M37.0551 6.21827L34.7259 0.258255H32.8728L36.5636 9.34354H37.4831L41.2374 0.258255H39.3996L37.0551 6.21827Z" fill="#231F20"/>
<path d="M42.0133 9.11877H46.8293V7.6207H43.7088V5.23669H46.7188V3.73742H43.7088V1.77307H46.8293V0.258255H42.0133V9.11877Z" fill="#231F20"/>
<path d="M53.5619 2.88376C53.5619 1.22428 52.4367 0.273788 50.4731 0.273788H47.9546V9.1343H49.6501V5.57384H49.8723L52.2168 9.1343H54.3086L51.5678 5.39689C52.8494 5.1231 53.5619 4.23717 53.5619 2.88376ZM50.1404 4.34955H49.6489V1.65948H50.1721C51.2339 1.65948 51.8041 2.11021 51.8041 2.9806C51.8041 3.86653 51.2339 4.34955 50.1404 4.34955Z" fill="#231F20"/>
<path d="M28.7692 9.44038C31.3329 9.44038 33.4112 7.32708 33.4112 4.72019C33.4112 2.1133 31.3329 0 28.7692 0C26.2055 0 24.1272 2.1133 24.1272 4.72019C24.1272 7.32708 26.2055 9.44038 28.7692 9.44038Z" fill="url(#paint0_linear_1_3153)"/>
<path opacity="0.65" d="M28.7692 9.44038C31.3329 9.44038 33.4112 7.32708 33.4112 4.72019C33.4112 2.1133 31.3329 0 28.7692 0C26.2055 0 24.1272 2.1133 24.1272 4.72019C24.1272 7.32708 26.2055 9.44038 28.7692 9.44038Z" fill="url(#paint1_linear_1_3153)"/>
<path d="M54.6402 0.596597C54.6402 0.435192 54.5296 0.355087 54.3544 0.355087H54.1005V1.12863H54.2909V0.822563L54.5132 1.12863H54.7354L54.4814 0.80702C54.5767 0.790282 54.6402 0.708982 54.6402 0.596597ZM54.3227 0.708983H54.2909V0.499754H54.3227C54.4179 0.499754 54.465 0.532035 54.465 0.596597C54.465 0.676701 54.4179 0.708983 54.3227 0.708983Z" fill="#231F20"/>
<path d="M54.3862 0.0645599C54.0217 0.0645599 53.7207 0.370631 53.7207 0.741264C53.7207 1.1119 54.0217 1.41797 54.3862 1.41797C54.7507 1.41797 55.0517 1.1119 55.0517 0.741264C55.0517 0.370631 54.7507 0.0645599 54.3862 0.0645599ZM54.3862 1.30558C54.1005 1.30558 53.8477 1.06407 53.8477 0.741264C53.8477 0.435193 54.0852 0.176946 54.3862 0.176946C54.6719 0.176946 54.9094 0.435193 54.9094 0.741264C54.9094 1.04733 54.6719 1.30558 54.3862 1.30558Z" fill="#231F20"/>
<defs>
<linearGradient id="paint0_linear_1_3153" x1="31.1418" y1="8.4977" x2="27.8565" y2="3.43903" gradientUnits="userSpaceOnUse">
<stop stop-color="#F89F20"/>
<stop offset="0.2502" stop-color="#F79A20"/>
<stop offset="0.5331" stop-color="#F68D20"/>
<stop offset="0.6196" stop-color="#F58720"/>
<stop offset="0.7232" stop-color="#F48120"/>
<stop offset="1" stop-color="#F37521"/>
</linearGradient>
<linearGradient id="paint1_linear_1_3153" x1="30.6352" y1="8.42896" x2="25.8203" y2="-0.826225" gradientUnits="userSpaceOnUse">
<stop stop-color="#F58720"/>
<stop offset="0.3587" stop-color="#E16F27"/>
<stop offset="0.703" stop-color="#D4602C"/>
<stop offset="0.9816" stop-color="#D05B2E"/>
</linearGradient>
</defs>
</svg>
