<svg width="32" height="10" viewBox="0 0 32 10" fill="none" xmlns="http://www.w3.org/2000/svg">
<path d="M12.1471 0.161137L7.96078 9.82938H5.22549L3.16667 2.11374C3.03922 1.63981 2.93137 1.45972 2.54902 1.26066C1.93137 0.938388 0.901961 0.625592 0 0.436019L0.0588241 0.161137H4.46078C5.01961 0.161137 5.52941 0.521327 5.65686 1.14692L6.7451 6.73934L9.43137 0.161137H12.1471ZM22.8627 6.67299C22.8725 4.12322 19.2157 3.98104 19.2353 2.8436C19.2451 2.49289 19.5882 2.12322 20.3333 2.03791C20.7059 1.99052 21.7255 1.95261 22.8824 2.47393L23.3333 0.42654C22.7059 0.208531 21.9118 0 20.9118 0C18.3529 0 16.5588 1.31754 16.5392 3.19431C16.5196 4.58768 17.8235 5.36493 18.8039 5.82938C19.8137 6.30332 20.1471 6.60664 20.1471 7.03318C20.1373 7.6872 19.3431 7.97156 18.598 7.98104C17.2941 8 16.549 7.63981 15.9412 7.37441L15.4706 9.48815C16.0784 9.75355 17.1863 9.99052 18.3431 10C21.0784 9.98104 22.8529 8.68246 22.8627 6.67299ZM29.6078 9.82938H32L29.9118 0.161137H27.7059C27.2059 0.161137 26.7941 0.436019 26.6078 0.872038L22.7255 9.82938H25.4412L25.9804 8.38863H29.3039L29.6078 9.82938ZM26.7255 6.40758L28.0882 2.77725L28.8725 6.40758H26.7255ZM15.8431 0.161137L13.7059 9.82938H11.1176L13.2549 0.161137H15.8431Z" fill="url(#paint0_linear)"/>
<defs>
<linearGradient id="paint0_linear" x1="3.30371" y1="9.71749" x2="29.5572" y2="-0.697498" gradientUnits="userSpaceOnUse">
<stop stop-color="#252855"/>
<stop offset="1" stop-color="#253788"/>
</linearGradient>
</defs>
</svg>
