<svg width="27" height="20" viewBox="0 0 27 20" fill="none" xmlns="http://www.w3.org/2000/svg">
<path d="M4.85273 19.9548V18.6274C4.85273 18.1186 4.53228 17.7867 3.98292 17.7867C3.70824 17.7867 3.41067 17.8752 3.20467 18.1628C3.04444 17.9194 2.81554 17.7867 2.47219 17.7867C2.24329 17.7867 2.01439 17.8531 1.83127 18.0964V17.8309H1.35059V19.9548H1.83127V18.7823C1.83127 18.4062 2.03728 18.2292 2.35774 18.2292C2.6782 18.2292 2.83843 18.4283 2.83843 18.7823V19.9548H3.31912V18.7823C3.31912 18.4062 3.54801 18.2292 3.84558 18.2292C4.16604 18.2292 4.32627 18.4283 4.32627 18.7823V19.9548H4.85273ZM11.9715 17.8309H11.1932V17.1893H10.7125V17.8309H10.2776V18.2513H10.7125V19.2247C10.7125 19.7115 10.9185 19.9991 11.4679 19.9991C11.6739 19.9991 11.9028 19.9327 12.063 19.8442L11.9257 19.446C11.7884 19.5345 11.6281 19.5566 11.5137 19.5566C11.2848 19.5566 11.1932 19.4239 11.1932 19.2026V18.2513H11.9715V17.8309ZM16.0459 17.7867C15.7712 17.7867 15.5881 17.9194 15.4736 18.0964V17.8309H14.9929V19.9548H15.4736V18.7601C15.4736 18.4062 15.6339 18.207 15.9314 18.207C16.023 18.207 16.1374 18.2292 16.229 18.2513L16.3663 17.8088C16.2748 17.7867 16.1374 17.7867 16.0459 17.7867ZM9.8885 18.0079C9.6596 17.8531 9.33915 17.7867 8.9958 17.7867C8.44644 17.7867 8.0802 18.0522 8.0802 18.4725C8.0802 18.8265 8.35488 19.0256 8.83557 19.092L9.06446 19.1141C9.31625 19.1584 9.45359 19.2247 9.45359 19.3354C9.45359 19.4902 9.27047 19.6009 8.95001 19.6009C8.62956 19.6009 8.37777 19.4902 8.21754 19.3796L7.98865 19.7336C8.24043 19.9106 8.58378 19.9991 8.92713 19.9991C9.56805 19.9991 9.93428 19.7115 9.93428 19.3132C9.93428 18.9371 9.63671 18.738 9.17891 18.6716L8.95001 18.6495C8.74401 18.6274 8.58378 18.5831 8.58378 18.4504C8.58378 18.2955 8.74401 18.207 8.9958 18.207C9.27048 18.207 9.54515 18.3177 9.68249 18.384L9.8885 18.0079ZM22.661 17.7867C22.3864 17.7867 22.2032 17.9194 22.0888 18.0964V17.8309H21.6081V19.9548H22.0888V18.7601C22.0888 18.4062 22.249 18.207 22.5466 18.207C22.6382 18.207 22.7526 18.2292 22.8442 18.2513L22.9815 17.8088C22.8899 17.7867 22.7526 17.7867 22.661 17.7867ZM16.5266 18.8929C16.5266 19.5345 16.9844 19.9991 17.6939 19.9991C18.0144 19.9991 18.2433 19.9327 18.4722 19.7557L18.2433 19.3796C18.0602 19.5124 17.8771 19.5787 17.6711 19.5787C17.2819 19.5787 17.0072 19.3132 17.0072 18.8929C17.0072 18.4947 17.2819 18.2292 17.6711 18.207C17.8771 18.207 18.0602 18.2734 18.2433 18.4062L18.4722 18.0301C18.2433 17.8531 18.0144 17.7867 17.6939 17.7867C16.9844 17.7867 16.5266 18.2513 16.5266 18.8929ZM20.9672 18.8929V17.8309H20.4865V18.0964C20.3263 17.8973 20.0974 17.7867 19.7998 17.7867C19.1818 17.7867 18.7011 18.2513 18.7011 18.8929C18.7011 19.5345 19.1818 19.9991 19.7998 19.9991C20.1203 19.9991 20.3492 19.8885 20.4865 19.6893V19.9548H20.9672V18.8929ZM19.2047 18.8929C19.2047 18.5168 19.4565 18.207 19.8685 18.207C20.2576 18.207 20.5323 18.4947 20.5323 18.8929C20.5323 19.269 20.2576 19.5787 19.8685 19.5787C19.4565 19.5566 19.2047 19.269 19.2047 18.8929ZM13.4593 17.7867C12.8184 17.7867 12.3606 18.2292 12.3606 18.8929C12.3606 19.5566 12.8184 19.9991 13.4822 19.9991C13.8027 19.9991 14.1231 19.9106 14.3749 19.7115L14.146 19.3796C13.9629 19.5124 13.734 19.6009 13.5051 19.6009C13.2075 19.6009 12.91 19.4681 12.8413 19.092H14.4665C14.4665 19.0256 14.4665 18.9814 14.4665 18.915C14.4894 18.2292 14.0773 17.7867 13.4593 17.7867ZM13.4593 18.1849C13.7569 18.1849 13.9629 18.3619 14.0087 18.6938H12.8642C12.91 18.4062 13.116 18.1849 13.4593 18.1849ZM25.3849 18.8929V16.9902H24.9042V18.0964C24.744 17.8973 24.5151 17.7867 24.2176 17.7867C23.5995 17.7867 23.1188 18.2513 23.1188 18.8929C23.1188 19.5345 23.5995 19.9991 24.2176 19.9991C24.538 19.9991 24.7669 19.8885 24.9042 19.6893V19.9548H25.3849V18.8929ZM23.6224 18.8929C23.6224 18.5168 23.8742 18.207 24.2862 18.207C24.6753 18.207 24.95 18.4947 24.95 18.8929C24.95 19.269 24.6753 19.5787 24.2862 19.5787C23.8742 19.5566 23.6224 19.269 23.6224 18.8929ZM7.55374 18.8929V17.8309H7.07305V18.0964C6.91282 17.8973 6.68392 17.7867 6.38635 17.7867C5.76833 17.7867 5.28764 18.2513 5.28764 18.8929C5.28764 19.5345 5.76833 19.9991 6.38635 19.9991C6.70681 19.9991 6.93571 19.8885 7.07305 19.6893V19.9548H7.55374V18.8929ZM5.76833 18.8929C5.76833 18.5168 6.02011 18.207 6.43213 18.207C6.82126 18.207 7.09594 18.4947 7.09594 18.8929C7.09594 19.269 6.82126 19.5787 6.43213 19.5787C6.02011 19.5566 5.76833 19.269 5.76833 18.8929Z" fill="black"/>
<path d="M16.9383 1.70312H9.72803V14.2253H16.9383V1.70312Z" fill="#FF5F00"/>
<path d="M10.186 7.96461C10.186 5.42036 11.422 3.16372 13.3219 1.70354C11.9256 0.641596 10.1631 0 8.24035 0C3.68527 0 0 3.56195 0 7.96461C0 12.3673 3.68527 15.9292 8.24035 15.9292C10.1631 15.9292 11.9256 15.2876 13.3219 14.2257C11.422 12.7876 10.186 10.5089 10.186 7.96461Z" fill="#EB001B"/>
<path d="M26.6666 7.96461C26.6666 12.3673 22.9814 15.9292 18.4263 15.9292C16.5035 15.9292 14.741 15.2876 13.3447 14.2257C15.2675 12.7655 16.4806 10.5089 16.4806 7.96461C16.4806 5.42036 15.2446 3.16372 13.3447 1.70354C14.741 0.641596 16.5035 0 18.4263 0C22.9814 0 26.6666 3.58407 26.6666 7.96461Z" fill="#F79E1B"/>
</svg>
