<svg width="48" height="48" viewBox="0 0 48 48" fill="none" xmlns="http://www.w3.org/2000/svg">
<rect width="48" height="48" rx="24" fill="#1D9BF0"/>
<path d="M35.0622 16.1328C34.2466 16.4938 33.3747 16.7375 32.456 16.85C33.3935 16.2875 34.1153 15.3969 34.4528 14.3375C33.5763 14.8578 32.606 15.2375 31.57 15.4391C30.7403 14.5531 29.5591 14 28.256 14C25.7481 14 23.7185 16.0344 23.7185 18.5422C23.7185 18.8984 23.756 19.2453 23.8356 19.5781C20.0622 19.3906 16.7153 17.5812 14.4794 14.8297C14.0903 15.5 13.8653 16.2828 13.8653 17.1125C13.8653 18.6875 14.6669 20.0797 15.8856 20.8953C15.1403 20.8766 14.4372 20.6703 13.8278 20.3281C13.8278 20.3469 13.8278 20.3656 13.8278 20.3844C13.8278 22.5875 15.3935 24.4203 17.47 24.8375C17.0903 24.9406 16.6872 24.9969 16.2747 24.9969C15.9841 24.9969 15.6981 24.9687 15.4216 24.9125C15.9981 26.7172 17.6763 28.0297 19.6638 28.0672C18.1122 29.2859 16.1528 30.0125 14.0247 30.0125C13.6591 30.0125 13.2981 29.9891 12.9419 29.9469C14.9481 31.25 17.3341 32 19.8935 32C28.2466 32 32.8122 25.0766 32.8122 19.0719C32.8122 18.875 32.8075 18.6781 32.7981 18.4859C33.6841 17.8437 34.4528 17.0422 35.0622 16.1328Z" fill="white"/>
</svg>
